<?xml version="1.0" encoding="UTF-8"?>
<svg height="128px" viewBox="0 0 128 128" width="128px" xmlns="http://www.w3.org/2000/svg" xmlns:xlink="http://www.w3.org/1999/xlink">
    <linearGradient id="a" gradientTransform="matrix(0.880364 0 0 1 168.977112 -437.937494)" gradientUnits="userSpaceOnUse" x1="-126" x2="-58" y1="497" y2="497">
        <stop offset="0" stop-color="#ff6918"/>
        <stop offset="0.0501698" stop-color="#ffa06d"/>
        <stop offset="0.119985" stop-color="#c64600"/>
        <stop offset="0.865315" stop-color="#c64600"/>
        <stop offset="0.94231" stop-color="#8f3200"/>
        <stop offset="1" stop-color="#c64600"/>
    </linearGradient>
    <linearGradient id="b" gradientUnits="userSpaceOnUse" x1="67.939423" x2="108.02781" y1="109.062521" y2="109.062521">
        <stop offset="0" stop-color="#c0bfbc"/>
        <stop offset="0.028318" stop-color="#dedddc"/>
        <stop offset="0.0746196" stop-color="#bdbdb9"/>
        <stop offset="0.654803" stop-color="#c4c3c0"/>
        <stop offset="0.938916" stop-color="#b8b7b3"/>
        <stop offset="1" stop-color="#9f9d99"/>
    </linearGradient>
    <linearGradient id="c" gradientUnits="userSpaceOnUse" x1="82.218415" x2="88.582375" y1="111.141424" y2="128.696844">
        <stop offset="0" stop-color="#f6f5f4"/>
        <stop offset="1" stop-color="#cbc6c0"/>
    </linearGradient>
    <linearGradient id="d" gradientUnits="userSpaceOnUse" x1="68.939423" x2="106.939423" y1="115.562506" y2="115.562506">
        <stop offset="0" stop-color="#6a6966"/>
        <stop offset="0.471382" stop-color="#a09f9d"/>
        <stop offset="1" stop-color="#a2a09e"/>
    </linearGradient>
    <linearGradient id="e" gradientUnits="userSpaceOnUse" x1="11.959304" x2="69.959304" y1="70.5" y2="70.5">
        <stop offset="0" stop-color="#5e5c64"/>
        <stop offset="0.0496858" stop-color="#898790"/>
        <stop offset="0.0993507" stop-color="#5e5c64"/>
        <stop offset="0.898941" stop-color="#5e5c64"/>
        <stop offset="0.947088" stop-color="#4a484e"/>
        <stop offset="1" stop-color="#5e5c64"/>
    </linearGradient>
    <path d="m 66.316406 40.316406 h 43.335938 c 4.5625 0 8.261718 3.699219 8.261718 8.261719 v 49.222656 c 0 4.5625 -3.699218 8.261719 -8.261718 8.261719 h -43.335938 c -4.566406 0 -8.265625 -3.699219 -8.265625 -8.261719 v -49.222656 c 0 -4.5625 3.699219 -8.261719 8.265625 -8.261719 z m 0 0" fill="url(#a)"/>
    <path d="m 71.917969 94.0625 h 32.132812 c 2.195313 0 3.976563 1.78125 3.976563 3.976562 v 17.253907 c 0 2.195312 -1.78125 3.976562 -3.976563 3.976562 h -32.132812 c -2.199219 0 -3.980469 -1.78125 -3.980469 -3.976562 v -17.253907 c 0 -2.195312 1.78125 -3.976562 3.980469 -3.976562 z m 0 0" fill="url(#b)"/>
    <path d="m 72.359375 111.140625 h 31.160156 c 2.441407 0 4.417969 1.980469 4.417969 4.421875 s -1.976562 4.421875 -4.417969 4.421875 h -31.160156 c -2.441406 0 -4.421875 -1.980469 -4.421875 -4.421875 s 1.980469 -4.421875 4.421875 -4.421875 z m 0 0" fill="url(#c)"/>
    <path d="m 72.4375 112.0625 h 31 c 1.933594 0 3.5 1.566406 3.5 3.5 s -1.566406 3.5 -3.5 3.5 h -31 c -1.929688 0 -3.5 -1.566406 -3.5 -3.5 s 1.570312 -3.5 3.5 -3.5 z m 0 0" fill="url(#d)"/>
    <path d="m 71.914062 94.0625 c -2.203124 0 -3.976562 1.773438 -3.976562 3.976562 v 2 c 0 -2.203124 1.773438 -3.976562 3.976562 -3.976562 h 32.136719 c 2.203125 0 3.976563 1.773438 3.976563 3.976562 v -2 c 0 -2.203124 -1.773438 -3.976562 -3.976563 -3.976562 z m 0 0" fill-opacity="0.176471"/>
    <path d="m 66.855469 42.492188 h 42.257812 c 4.859375 0 8.800781 3.941406 8.800781 8.804687 v 29.960937 c 0 4.863282 -3.941406 8.804688 -8.800781 8.804688 h -42.257812 c -4.863281 0 -8.804688 -3.941406 -8.804688 -8.804688 v -29.960937 c 0 -4.863281 3.941407 -8.804687 8.804688 -8.804687 z m 0 0" fill="#ff7800"/>
    <path d="m 87.984375 8.0625 c 16.53125 0 29.929687 13.402344 29.929687 29.933594 v 22.132812 c 0 16.53125 -13.398437 29.933594 -29.929687 29.933594 s -29.933594 -13.402344 -29.933594 -29.933594 v -22.132812 c 0 -16.53125 13.402344 -29.933594 29.933594 -29.933594 z m 0 0" fill="#ff7800"/>
    <path d="m 67.585938 16 h 0.828124 c 0.875 0 1.585938 0.710938 1.585938 1.585938 v 1.828124 c 0 0.875 -0.710938 1.585938 -1.585938 1.585938 h -0.828124 c -0.875 0 -1.585938 -0.710938 -1.585938 -1.585938 v -1.828124 c 0 -0.875 0.710938 -1.585938 1.585938 -1.585938 z m 0 0" fill="#5e5c64"/>
    <path d="m 26.960938 2.0625 c -0.734376 0 -1.476563 0.472656 -2 1 l -12 14 c -0.5 0.449219 -1 1.207031 -1 1.988281 v 5.949219 h 1.726562 c 0.152344 0 0.273438 0.121094 0.273438 0.269531 v 3.460938 c 0 0.148437 -0.121094 0.269531 -0.273438 0.269531 h -1.726562 v 42.144531 c 0 2.691407 2.164062 4.855469 4.851562 4.855469 h 48.292969 c 2.6875 0 4.855469 -2.164062 4.855469 -4.855469 v -51.082031 h -0.035157 c -1.089843 0 -1.964843 -0.878906 -1.964843 -1.96875 v -4.066406 c 0 -1.089844 0.875 -1.964844 1.964843 -1.964844 h 0.035157 v -5.148438 c 0 -2.6875 -2.167969 -4.851562 -4.855469 -4.851562 z m 0 0" fill="#c0bfbc"/>
    <path d="m 23.078125 17 h 38.289063 c 1.433593 0 2.59375 1.160156 2.59375 2.589844 v 36.820312 c 0 1.429688 -1.160157 2.589844 -2.59375 2.589844 h -38.289063 c -1.433594 0 -2.59375 -1.160156 -2.59375 -2.589844 v -36.820312 c 0 -1.429688 1.160156 -2.589844 2.59375 -2.589844 z m 0 0" fill="#f6f5f4"/>
    <path d="m 41.917969 66 c -10.445313 0 -20.730469 1.042969 -29.957031 3.035156 v 2.109375 c 0 2.691407 2.164062 4.855469 4.851562 4.855469 h 48.292969 c 2.6875 0 4.855469 -2.164062 4.855469 -4.855469 v -2.523437 c -8.726563 -1.726563 -18.300782 -2.621094 -28 -2.621094 z m 0 0" fill="url(#e)"/>
    <path d="m 49.925781 18.0625 h 11.441407 c 1.4375 0 2.59375 1.152344 2.59375 2.589844 v 35.757812 c 0 1.433594 -1.15625 2.589844 -2.59375 2.589844 h -11.441407 z m 0 0" fill="#ed333b"/>
    <path d="m 11.960938 68.035156 v 1.109375 c 0 2.691407 2.164062 4.855469 4.851562 4.855469 h 48.292969 c 2.6875 0 4.855469 -2.164062 4.855469 -4.855469 v -1.523437 c -19.40625 -3.414063 -39.046876 -3.582032 -58 0.414062 z m 0 0" fill="#9a9996"/>
</svg>
