<?xml version="1.0" encoding="UTF-8"?>
<svg height="16px" viewBox="0 0 16 16" width="16px" xmlns="http://www.w3.org/2000/svg">
    <path d="m 7.984375 0.0820312 c -3.324219 0 -6.015625 2.6874998 -6.015625 6.0039068 c 0.003906 0.085937 0.007812 0.171874 0.011719 0.257812 h -0.011719 v 4.375 h 0.003906 c 0.027344 0.640625 0.402344 1.1875 1.027344 1.328125 v 2.914063 l 5.925781 -0.03125 v -2.921876 c 2.921875 -0.460937 5.070313 -2.972656 5.074219 -5.921874 c 0 -3.316407 -2.691406 -6.0039068 -6.015625 -6.0039068 z m 0.992187 1.8789068 c 1.046876 0 2.039063 0.804687 2.039063 1.910156 c 0 0.101562 0 0.207031 -0.015625 0.320312 c -0.03125 0.296875 -0.300781 0.507813 -0.59375 0.464844 c -0.292969 -0.039062 -0.492188 -0.316406 -0.4375 -0.609375 c 0.003906 -0.03125 0.007812 -0.085937 0.007812 -0.175781 c 0 -0.628906 -0.515624 -0.871094 -1 -0.871094 c -0.484374 0 -0.988281 0.410156 -0.988281 0.871094 c 0.007813 0.535156 0 0.566406 0 1.097656 l 0.964844 -0.007812 c 0.703125 -0.015626 0.710937 1.046874 0.007813 1.042968 l -0.972657 0.003906 c 0 0.429688 0.003907 0.851563 0.003907 1.070313 c 0 0 0.007812 0.085937 -0.007813 0.484375 c -0.109375 1.171875 -1.046875 2.105469 -2.242187 2.105469 c -1.269532 0 -2.3125 -0.917969 -2.3125 -2.371094 c 0.042968 -1.546875 1.082031 -2.304687 2.394531 -2.292969 v 1.039063 h -0.003907 c -0.722656 0.019531 -1.351562 0.480469 -1.351562 1.253906 c 0 0.925781 0.566406 1.332031 1.273438 1.332031 c 0.707031 0 1.210937 -0.511718 1.210937 -1.265625 l -0.003906 -3.496093 c 0 -0.074219 0.003906 -0.132813 0.011719 -0.210938 c 0.117187 -0.964844 1.039062 -1.695312 2.015624 -1.695312 z m 0 0"/>
</svg>
