<?xml version="1.0" encoding="UTF-8" standalone="no"?>
<!-- Created with Inkscape (http://www.inkscape.org/) -->

<svg
   xmlns:dc="http://purl.org/dc/elements/1.1/"
   xmlns:cc="http://creativecommons.org/ns#"
   xmlns:rdf="http://www.w3.org/1999/02/22-rdf-syntax-ns#"
   xmlns:svg="http://www.w3.org/2000/svg"
   xmlns="http://www.w3.org/2000/svg"
   xmlns:xlink="http://www.w3.org/1999/xlink"
   xmlns:sodipodi="http://sodipodi.sourceforge.net/DTD/sodipodi-0.dtd"
   xmlns:inkscape="http://www.inkscape.org/namespaces/inkscape"
   width="256"
   height="256"
   viewBox="0 0 256 256"
   id="svg5091"
   version="1.1"
   inkscape:version="0.91 r13725"
   sodipodi:docname="astronomy_icon_grey_pattern.svg"
   inkscape:export-xdpi="90"
   inkscape:export-ydpi="90">
  <defs
     id="defs5093">
    <clipPath
       clipPathUnits="userSpaceOnUse"
       id="clipPath6742">
      <circle
         cy="924.36218"
         cx="128"
         id="circle6744"
         style="opacity:1;fill:none;fill-opacity:1;stroke:#000000;stroke-width:4;stroke-linecap:round;stroke-linejoin:round;stroke-miterlimit:4;stroke-dasharray:none;stroke-opacity:1"
         r="127" />
    </clipPath>
  </defs>
  <sodipodi:namedview
     id="base"
     pagecolor="#ffffff"
     bordercolor="#666666"
     borderopacity="1.0"
     inkscape:pageopacity="0.0"
     inkscape:pageshadow="2"
     inkscape:zoom="1.6129462"
     inkscape:cx="3.2655502"
     inkscape:cy="113.36124"
     inkscape:document-units="px"
     inkscape:current-layer="layer1"
     showgrid="false"
     units="px"
     inkscape:window-width="1920"
     inkscape:window-height="1016"
     inkscape:window-x="0"
     inkscape:window-y="27"
     inkscape:window-maximized="1" />
  <metadata
     id="metadata5096">
    <rdf:RDF>
      <cc:Work
         rdf:about="">
        <dc:format>image/svg+xml</dc:format>
        <dc:type
           rdf:resource="http://purl.org/dc/dcmitype/StillImage" />
        <dc:title></dc:title>
      </cc:Work>
    </rdf:RDF>
  </metadata>
  <g
     inkscape:label="Layer 1"
     inkscape:groupmode="layer"
     id="layer1"
     transform="translate(0,-796.36216)">
    <image
       sodipodi:absref="gray_contrast.png"
       y="611.30359"
       x="-321.9071"
       id="image6739"
       xlink:href="gray_contrast.png"
       preserveAspectRatio="none"
       height="773"
       width="1177"
       clip-path="url(#clipPath6742)" />
    <circle
       style="opacity:1;fill:#ffffff;fill-opacity:1;stroke:none;stroke-width:6;stroke-linecap:round;stroke-linejoin:round;stroke-miterlimit:4;stroke-dasharray:none;stroke-dashoffset:4;stroke-opacity:1"
       id="path4860-0-0"
       cx="121.18414"
       cy="974.62329"
       r="14.056286" />
    <path
       inkscape:connector-curvature="0"
       style="color:#000000;font-style:normal;font-variant:normal;font-weight:normal;font-stretch:normal;font-size:medium;line-height:normal;font-family:sans-serif;text-indent:0;text-align:start;text-decoration:none;text-decoration-line:none;text-decoration-style:solid;text-decoration-color:#000000;letter-spacing:normal;word-spacing:normal;text-transform:none;direction:ltr;block-progression:tb;writing-mode:lr-tb;baseline-shift:baseline;text-anchor:start;white-space:normal;clip-rule:nonzero;display:inline;overflow:visible;visibility:visible;opacity:1;isolation:auto;mix-blend-mode:normal;color-interpolation:sRGB;color-interpolation-filters:linearRGB;solid-color:#000000;solid-opacity:1;fill:#ffffff;fill-opacity:1;fill-rule:evenodd;stroke:none;stroke-width:6.5;stroke-linecap:round;stroke-linejoin:round;stroke-miterlimit:4;stroke-dasharray:none;stroke-dashoffset:0;stroke-opacity:1;color-rendering:auto;image-rendering:auto;shape-rendering:auto;text-rendering:auto;enable-background:accumulate"
       d="m 105.14006,998.23669 a 3.655,3.655 0 0 0 -3.48991,2.56971 l -13.656564,43.9808 a 126.99999,126.99967 0 0 0 7.012771,2.0623 l 12.826363,-41.3036 9.6066,0 -0.33822,45.2723 a 126.99999,126.99967 0 0 0 7.30706,0.3646 l 0.34043,-45.6369 9.70103,0 10.6125,44.5168 a 126.99999,126.99967 0 0 0 7.23679,-1.1575 l -11.40755,-47.8617 a 3.655,3.655 0 0 0 -3.5558,-2.80681 l -32.1955,0 z"
       id="path4862-5-4" />
    <path
       inkscape:connector-curvature="0"
       style="opacity:1;fill:#ffffff;fill-opacity:1;stroke:none;stroke-width:6;stroke-linecap:round;stroke-linejoin:round;stroke-miterlimit:4;stroke-dasharray:none;stroke-dashoffset:4;stroke-opacity:1"
       d="m 182.93722,844.78163 c -0.34383,0.0114 -0.68887,0.0596 -1.03005,0.14707 l -1.69994,0.43495 c -2.63416,0.67192 -4.35456,3.46685 -3.69636,6.71621 a 3.655,3.655 0 0 1 0.1142,0.36246 l 22.80414,89.79983 a 3.655,3.655 0 0 1 0.081,0.44149 c 0.8987,3.32688 3.82095,5.0571 6.52077,4.36846 l 1.69777,-0.43268 c 2.72962,-0.69628 4.48486,-3.67097 3.62169,-7.06989 l -22.8917,-90.14475 c -0.75526,-2.97406 -3.11458,-4.7038 -5.52149,-4.62315 z m -12.40248,13.52471 -94.530727,38.09039 14.513115,57.14974 100.781372,-13.47864 -20.76376,-81.76149 z m -99.272531,49.11794 -26.603715,9.06635 c -6.335382,1.65515 -6.959121,8.63325 -6.654774,11.79187 l 3.883055,15.67721 c 1.279965,5.16824 6.230971,8.09892 11.049556,7.0391 l 27.838037,-6.12326 -9.512159,-37.45127 z"
       id="rect5013-7" />
    <path
       style="color:#000000;font-style:normal;font-variant:normal;font-weight:normal;font-stretch:normal;font-size:medium;line-height:normal;font-family:sans-serif;text-indent:0;text-align:start;text-decoration:none;text-decoration-line:none;text-decoration-style:solid;text-decoration-color:#000000;letter-spacing:normal;word-spacing:normal;text-transform:none;direction:ltr;block-progression:tb;writing-mode:lr-tb;baseline-shift:baseline;text-anchor:start;white-space:normal;clip-rule:nonzero;display:inline;overflow:visible;visibility:visible;opacity:1;isolation:auto;mix-blend-mode:normal;color-interpolation:sRGB;color-interpolation-filters:linearRGB;solid-color:#000000;solid-opacity:1;fill:#ffffff;fill-opacity:1;fill-rule:nonzero;stroke:none;stroke-width:5.77648926;stroke-linecap:round;stroke-linejoin:round;stroke-miterlimit:4;stroke-dasharray:none;stroke-dashoffset:4;stroke-opacity:1;color-rendering:auto;image-rendering:auto;shape-rendering:auto;text-rendering:auto;enable-background:accumulate"
       d="m 96.26354,818.60304 c -1.843217,-0.24603 -3.705956,0.67712 -4.590254,2.36541 a 3.2481643,3.2481643 0 0 0 -0.0022,0.002 l -5.738923,10.99026 -12.571583,1.50227 a 3.2481643,3.2481643 0 0 0 -0.0022,0 c -1.731588,0.20714 -3.191395,1.47345 -3.713929,2.98037 -0.522534,1.50691 -0.155643,3.41832 1.087169,4.64955 l 8.958679,8.87084 -2.290737,12.15649 c -0.659723,3.50148 3.276116,6.40967 6.432955,4.87138 a 3.2481643,3.2481643 0 0 0 0.0045,-0.002 l 11.324105,-5.53905 11.187918,6.05957 a 3.2481643,3.2481643 0 0 0 0.002,0.002 c 3.06177,1.6563 7.16768,-1.13631 6.60205,-4.64077 l -1.97885,-12.23995 9.15196,-8.42938 a 3.2481643,3.2481643 0 0 0 0,-0.002 c 1.30095,-1.19924 1.70981,-3.11989 1.23211,-4.62979 -0.4777,-1.50989 -1.86053,-2.80787 -3.57557,-3.09238 a 3.2481643,3.2481643 0 0 0 -0.002,0 l -12.56281,-2.07983 -5.477552,-11.28896 c -0.431775,-0.88845 -1.181683,-1.49083 -2.024982,-1.93054 a 3.2481643,3.2481643 0 0 0 -1.449552,-0.57543 l -0.0022,0 z m -0.656687,8.86644 4.500207,9.27495 a 3.2481643,3.2481643 0 0 0 2.39177,1.78779 l 10.19081,1.68675 -7.40153,6.8195 a 3.2481643,3.2481643 0 0 0 -1.00369,2.90569 l 1.60329,9.92945 -9.103648,-4.93288 a 3.2481643,3.2481643 0 0 0 -2.973782,-0.0615 l -9.292521,4.54413 1.875637,-9.95141 a 3.2481643,3.2481643 0 0 0 -0.907069,-2.91009 l -7.214833,-7.14455 10.131512,-1.20796 a 3.2481643,3.2481643 0 0 0 2.492799,-1.72189 l 4.711048,-9.01799 z"
       id="path5045-4-6"
       inkscape:connector-curvature="0" />
    <path
       style="color:#000000;font-style:normal;font-variant:normal;font-weight:normal;font-stretch:normal;font-size:medium;line-height:normal;font-family:sans-serif;text-indent:0;text-align:start;text-decoration:none;text-decoration-line:none;text-decoration-style:solid;text-decoration-color:#000000;letter-spacing:normal;word-spacing:normal;text-transform:none;direction:ltr;block-progression:tb;writing-mode:lr-tb;baseline-shift:baseline;text-anchor:start;white-space:normal;clip-rule:nonzero;display:inline;overflow:visible;visibility:visible;opacity:1;isolation:auto;mix-blend-mode:normal;color-interpolation:sRGB;color-interpolation-filters:linearRGB;solid-color:#000000;solid-opacity:1;fill:#ffffff;fill-opacity:1;fill-rule:nonzero;stroke:none;stroke-width:5.77648926;stroke-linecap:round;stroke-linejoin:round;stroke-miterlimit:4;stroke-dasharray:none;stroke-dashoffset:4;stroke-opacity:1;color-rendering:auto;image-rendering:auto;shape-rendering:auto;text-rendering:auto;enable-background:accumulate"
       d="m 192.94005,971.93296 c -1.61029,0.36368 -2.84162,1.72079 -3.04842,3.36033 a 3.2481643,3.2481643 0 0 0 0,0.002 l -0.77973,6.23529 -5.58298,2.89691 c -2.71831,1.41121 -2.62962,5.78359 0.14496,7.08305 l 5.69283,2.66411 1.0278,6.1979 c 0.50344,3.0217 4.68153,4.2871 6.77783,2.0558 a 3.2481643,3.2481643 0 0 0 0,-0 l 4.30032,-4.59023 6.21772,0.93562 c 3.02941,0.45414 5.52592,-3.13226 4.04337,-5.8158 l -3.03526,-5.49732 2.8134,-5.62032 c 1.3711,-2.74072 -1.2708,-6.22488 -4.2784,-5.64667 l -6.176,1.19039 -4.47822,-4.41016 a 3.2481643,3.2481643 0 0 0 0,-0.002 c -0.95515,-0.93919 -2.33356,-1.33085 -3.63922,-1.03665 l 0,0 z m 2.75638,9.28155 2.02275,1.99203 a 3.2481643,3.2481643 0 0 0 2.89256,0.87633 l 2.78483,-0.5359 -1.2672,2.53014 a 3.2481643,3.2481643 0 0 0 0.0618,3.02429 l 1.36829,2.47962 -2.80473,-0.42169 a 3.2481643,3.2481643 0 0 0 -2.85511,0.99053 l -1.94157,2.0733 -0.46341,-2.79808 a 3.2481643,3.2481643 0 0 0 -1.82732,-2.40933 l -2.56308,-1.19919 2.51473,-1.3046 a 3.2481643,3.2481643 0 0 0 1.72634,-2.48181 l 0.3514,-2.81564 z m 12.95371,11.13301 c 0,3.3e-4 0,-3.3e-4 0.0112,0 l 0,0.002 -0.0112,-0.002 z"
       id="path4263"
       inkscape:connector-curvature="0" />
  </g>
</svg>
