<?xml version="1.0" encoding="UTF-8" standalone="no"?>
<!-- Created with Inkscape (http://www.inkscape.org/) -->

<svg
   xmlns:dc="http://purl.org/dc/elements/1.1/"
   xmlns:cc="http://creativecommons.org/ns#"
   xmlns:rdf="http://www.w3.org/1999/02/22-rdf-syntax-ns#"
   xmlns:svg="http://www.w3.org/2000/svg"
   xmlns="http://www.w3.org/2000/svg"
   xmlns:xlink="http://www.w3.org/1999/xlink"
   xmlns:sodipodi="http://sodipodi.sourceforge.net/DTD/sodipodi-0.dtd"
   xmlns:inkscape="http://www.inkscape.org/namespaces/inkscape"
   width="256"
   height="256"
   viewBox="0 0 256 256"
   id="svg5091"
   version="1.1"
   inkscape:version="0.91 r13725"
   sodipodi:docname="jam_icon_grey_pattern.svg"
   inkscape:export-xdpi="90"
   inkscape:export-ydpi="90">
  <defs
     id="defs5093">
    <clipPath
       clipPathUnits="userSpaceOnUse"
       id="clipPath6742">
      <circle
         cy="924.36218"
         cx="128"
         id="circle6744"
         style="opacity:1;fill:none;fill-opacity:1;stroke:#000000;stroke-width:4;stroke-linecap:round;stroke-linejoin:round;stroke-miterlimit:4;stroke-dasharray:none;stroke-opacity:1"
         r="127" />
    </clipPath>
  </defs>
  <sodipodi:namedview
     id="base"
     pagecolor="#ffffff"
     bordercolor="#666666"
     borderopacity="1.0"
     inkscape:pageopacity="0.0"
     inkscape:pageshadow="2"
     inkscape:zoom="1.6129462"
     inkscape:cx="3.2655502"
     inkscape:cy="113.36124"
     inkscape:document-units="px"
     inkscape:current-layer="layer1"
     showgrid="false"
     units="px"
     inkscape:window-width="1920"
     inkscape:window-height="1016"
     inkscape:window-x="0"
     inkscape:window-y="27"
     inkscape:window-maximized="1" />
  <metadata
     id="metadata5096">
    <rdf:RDF>
      <cc:Work
         rdf:about="">
        <dc:format>image/svg+xml</dc:format>
        <dc:type
           rdf:resource="http://purl.org/dc/dcmitype/StillImage" />
        <dc:title></dc:title>
      </cc:Work>
    </rdf:RDF>
  </metadata>
  <g
     inkscape:label="Layer 1"
     inkscape:groupmode="layer"
     id="layer1"
     transform="translate(0,-796.36216)">
    <image
       sodipodi:absref="gray_contrast.png"
       y="611.30359"
       x="-321.9071"
       id="image6739"
       xlink:href="gray_contrast.png"
       preserveAspectRatio="none"
       height="773"
       width="1177"
       clip-path="url(#clipPath6742)" />
    <path
       inkscape:connector-curvature="0"
       style="fill:#ffffff;fill-opacity:1;fill-rule:evenodd;stroke:none;stroke-width:2.85765553;stroke-linecap:round;stroke-linejoin:round;stroke-miterlimit:4;stroke-dasharray:none;stroke-opacity:1"
       d="m 93.49305,859.64756 c -6.432052,-0.33021 -13.56417,2.19791 -19.695075,6.7202 -5.852172,4.31671 -10.808054,10.61248 -12.444979,18.45701 -1.636899,7.84452 0.273231,17.01633 7.21541,26.2667 10.345393,13.78681 52.742374,69.20284 78.745614,103.17503 l 38.88996,-29.4609 a 3.6232241,3.6232241 0 0 1 0.29714,-0.20799 c -3.20764,-4.02933 -4.84289,-8.13622 -5.11567,-11.64768 -0.2837,-3.65228 0.74964,-6.60287 3.0506,-8.85956 2.57444,-2.52489 5.37054,-4.72771 7.78986,-7.50265 2.41932,-2.77494 4.41495,-6.37219 4.59074,-10.85036 0.66867,-17.05516 -11.79449,-30.04854 -26.06367,-38.21151 -7.23688,-4.14019 -14.00702,-6.10248 -20.3537,-8.31977 -6.34671,-2.21728 -12.29381,-4.64465 -18.66501,-9.71135 -2.22779,-1.77158 -7.91256,-9.1291 -14.44074,-15.87193 -6.52815,-6.74284 -14.38132,-13.49222 -23.80048,-13.97523 z m -13.034291,24.06295 c 1.195917,0.0761 2.393533,0.38733 3.52104,0.95579 4.50998,2.27378 6.342599,7.876 4.060833,12.3806 -2.281791,4.5046 -7.890322,6.35444 -12.400429,4.08065 -4.509929,-2.27379 -6.347517,-7.87601 -4.065777,-12.38061 1.711343,-3.37844 5.296608,-5.26468 8.884333,-5.03643 z m 13.113527,17.24867 c 1.195917,0.0761 2.393532,0.38733 3.52104,0.95578 4.509954,2.27379 6.342624,7.87601 4.060834,12.3806 -2.281741,4.50458 -7.890374,6.35444 -12.400405,4.08065 -4.510005,-2.27379 -6.347568,-7.88098 -4.065802,-12.38556 1.711343,-3.37844 5.296583,-5.25972 8.884333,-5.03147 z m -39.944801,3.14962 c -3.587725,-0.22825 -7.172965,1.65799 -8.884308,5.03643 -2.28174,4.5046 -0.444228,10.10682 4.065777,12.38061 4.510031,2.27379 10.118638,0.42395 12.400429,-4.08065 2.281765,-4.50459 0.449147,-10.10682 -4.060833,-12.3806 -1.127508,-0.56846 -2.325149,-0.8797 -3.521065,-0.95579 z m 53.058355,14.09904 c 1.19551,0.0759 2.39353,0.38733 3.52104,0.95578 4.50998,2.27379 6.34262,7.87106 4.06083,12.37566 -2.28176,4.50459 -7.89045,6.35938 -12.4004,4.0856 -4.509983,-2.27379 -6.342601,-7.87602 -4.060861,-12.38061 1.711368,-3.37845 5.292911,-5.26407 8.879391,-5.03643 z m -39.944803,3.14962 c -3.587751,-0.22825 -7.172991,1.65304 -8.884334,5.03148 -2.281765,4.50458 -0.444202,10.11177 4.065803,12.38556 4.510031,2.27379 10.118664,0.42393 12.400404,-4.08065 2.281765,-4.50459 0.449121,-10.10681 -4.060833,-12.3806 -1.127508,-0.56845 -2.325123,-0.8797 -3.52104,-0.95579 z m 53.058323,14.09904 c 1.19549,0.0759 2.39356,0.38733 3.52104,0.95578 4.50998,2.27379 6.33766,7.87106 4.05589,12.37566 -2.28179,4.50459 -7.88545,6.35939 -12.39546,4.0856 -4.50998,-2.27379 -6.34259,-7.87601 -4.06083,-12.38061 1.71134,-3.37845 5.29288,-5.26407 8.87936,-5.03643 z m -39.944797,3.14963 c -3.586482,-0.22765 -7.167995,1.65798 -8.879363,5.03643 -2.28174,4.50459 -0.449147,10.10682 4.060833,12.38061 4.50998,2.27378 10.118663,0.41899 12.400429,-4.0856 2.28179,-4.5046 0.449147,-10.10187 -4.060833,-12.37566 -1.127508,-0.56845 -2.325554,-0.87991 -3.521066,-0.95578 z m 53.058357,14.09903 c 1.19551,0.0759 2.38858,0.38733 3.51607,0.95578 4.51,2.27379 6.34265,7.87106 4.06086,12.37566 -2.2818,4.5046 -7.88546,6.35939 -12.39549,4.0856 -4.50993,-2.27379 -6.3426,-7.87601 -4.06083,-12.38061 1.71132,-3.37844 5.2929,-5.26404 8.87939,-5.03643 z m -39.944804,3.14963 c -3.586483,-0.22764 -7.168021,1.65798 -8.879364,5.03643 -2.281766,4.5046 -0.449147,10.10682 4.060833,12.38061 4.510005,2.27379 10.113668,0.41899 12.395455,-4.0856 2.28177,-4.5046 0.4541,-10.10187 -4.055884,-12.37566 -1.127483,-0.56844 -2.325555,-0.8799 -3.52104,-0.95578 z m 53.058324,14.09903 c 1.19549,0.0759 2.38859,0.38734 3.5161,0.95579 4.51,2.27378 6.3426,7.87105 4.06083,12.37565 -2.28179,4.50461 -7.88545,6.35443 -12.39546,4.08065 -4.51,-2.2738 -6.3426,-7.87106 -4.06083,-12.37566 1.71134,-3.37844 5.29288,-5.26407 8.87936,-5.03643 z m -39.9448,3.14963 c -3.58648,-0.22762 -7.168044,1.65799 -8.879361,5.03643 -2.281766,4.5046 -0.449148,10.10682 4.060831,12.38061 4.51001,2.27379 10.1137,0.41899 12.39549,-4.0856 2.28179,-4.5046 0.44914,-10.10187 -4.06086,-12.37566 -1.12748,-0.56844 -2.32059,-0.87991 -3.5161,-0.95578 z m 84.93593,17.08524 a 3.6232241,3.6232241 0 0 1 -0.44076,0.39123 l -38.86024,29.43608 c 5.62945,7.3538 16.77245,21.9205 18.20445,23.7906 a 127,126.69455 0 0 0 42.7428,-25.2118 3.6232241,3.6232241 0 0 0 -0.65368,-1.4313 c -3.47895,-4.6195 -12.30104,-16.2225 -20.99257,-26.97481 z m -71.82238,0.16341 c -3.58648,-0.22764 -7.16802,1.65799 -8.87936,5.03643 -2.28176,4.50458 -0.44917,10.10187 4.06083,12.37567 4.51001,2.2738 10.11367,0.424 12.39546,-4.0806 2.28177,-4.50465 0.44918,-10.10193 -4.06083,-12.37571 -1.12751,-0.56845 -2.32061,-0.87991 -3.5161,-0.95579 z"
       id="path4463" />
  </g>
</svg>
