<?xml version="1.0" encoding="UTF-8" standalone="no"?>
<!-- Created with Inkscape (http://www.inkscape.org/) -->

<svg
   xmlns:dc="http://purl.org/dc/elements/1.1/"
   xmlns:cc="http://creativecommons.org/ns#"
   xmlns:rdf="http://www.w3.org/1999/02/22-rdf-syntax-ns#"
   xmlns:svg="http://www.w3.org/2000/svg"
   xmlns="http://www.w3.org/2000/svg"
   xmlns:xlink="http://www.w3.org/1999/xlink"
   xmlns:sodipodi="http://sodipodi.sourceforge.net/DTD/sodipodi-0.dtd"
   xmlns:inkscape="http://www.inkscape.org/namespaces/inkscape"
   width="256"
   height="256"
   viewBox="0 0 256 256"
   id="svg5091"
   version="1.1"
   inkscape:version="0.91 r13725"
   sodipodi:docname="lxde_icon_grey_pattern.svg"
   inkscape:export-xdpi="90"
   inkscape:export-ydpi="90">
  <defs
     id="defs5093">
    <clipPath
       clipPathUnits="userSpaceOnUse"
       id="clipPath6742">
      <circle
         cy="924.36218"
         cx="128"
         id="circle6744"
         style="opacity:1;fill:none;fill-opacity:1;stroke:#000000;stroke-width:4;stroke-linecap:round;stroke-linejoin:round;stroke-miterlimit:4;stroke-dasharray:none;stroke-opacity:1"
         r="127" />
    </clipPath>
  </defs>
  <sodipodi:namedview
     id="base"
     pagecolor="#ffffff"
     bordercolor="#666666"
     borderopacity="1.0"
     inkscape:pageopacity="0.0"
     inkscape:pageshadow="2"
     inkscape:zoom="1.6129462"
     inkscape:cx="3.2655502"
     inkscape:cy="113.36124"
     inkscape:document-units="px"
     inkscape:current-layer="layer1"
     showgrid="false"
     units="px"
     inkscape:window-width="1920"
     inkscape:window-height="1016"
     inkscape:window-x="0"
     inkscape:window-y="27"
     inkscape:window-maximized="1" />
  <metadata
     id="metadata5096">
    <rdf:RDF>
      <cc:Work
         rdf:about="">
        <dc:format>image/svg+xml</dc:format>
        <dc:type
           rdf:resource="http://purl.org/dc/dcmitype/StillImage" />
        <dc:title></dc:title>
      </cc:Work>
    </rdf:RDF>
  </metadata>
  <g
     inkscape:label="Layer 1"
     inkscape:groupmode="layer"
     id="layer1"
     transform="translate(0,-796.36216)">
    <image
       sodipodi:absref="gray_contrast.png"
       y="611.30359"
       x="-321.9071"
       id="image6739"
       xlink:href="gray_contrast.png"
       preserveAspectRatio="none"
       height="773"
       width="1177"
       clip-path="url(#clipPath6742)" />
    <path
       d="m 174.46529,902.56623 c -12.52553,-14.14035 -23.81311,-23.2734 -40.5223,0.53954 -9.94269,14.16977 -69.609405,95.34306 -80.557967,108.27283 -3.180333,3.7558 -5.043391,6.366 -7.485224,7.8789 0.0044,-5.1395 41.215357,-70.40285 52.748564,-89.31597 13.853557,-22.71823 13.413707,-21.39153 11.755857,-21.38551 -2.34695,0.009 -7.1205,3.4705 -14.378929,11.2117 -13.254376,14.13587 -52.509296,66.74702 -55.215611,65.93556 0.940192,-3.82177 31.647791,-50.91092 45.590372,-70.3903 12.019102,-16.79207 7.424802,-18.07195 0.535746,-16.43265 -29.352613,7.00055 -64.458471,23.92492 -65.593796,23.31431 0.424542,-0.87634 118.231818,-83.71808 133.969438,-85.30179 1.83206,-0.18434 5.69756,-3.45186 12.58587,-6.17337 7.47784,-2.95443 12.51051,-5.35753 13.75549,-4.59778 -5.45703,7.6498 -8.33039,9.18928 -8.37893,11.65686 -0.0795,4.04061 -1.5176,10.57735 -3.09242,12.66446 30.44283,20.28027 42.3202,89.42931 51.01712,145.04759 2.07547,13.20129 3.99888,23.11489 4.48941,29.00569 -2.56954,-6.6116 -26.91036,-94.48327 -51.22269,-121.93007 z"
       id="path3287"
       style="fill:#ffffff;fill-opacity:1;stroke:none;stroke-width:0.19562718"
       inkscape:connector-curvature="0" />
  </g>
</svg>
