<?xml version="1.0" encoding="UTF-8" standalone="no"?>
<svg
   xmlns:dc="http://purl.org/dc/elements/1.1/"
   xmlns:cc="http://creativecommons.org/ns#"
   xmlns:rdf="http://www.w3.org/1999/02/22-rdf-syntax-ns#"
   xmlns:svg="http://www.w3.org/2000/svg"
   xmlns="http://www.w3.org/2000/svg"
   xmlns:sodipodi="http://sodipodi.sourceforge.net/DTD/sodipodi-0.dtd"
   xmlns:inkscape="http://www.inkscape.org/namespaces/inkscape"
   width="128"
   height="128"
   viewBox="0 0 128 128"
   id="svg5760"
   version="1.1"
   inkscape:version="1.0.2 (e86c870879, 2021-01-15)"
   sodipodi:docname="silverblue-logo_color.svg"
   inkscape:export-filename="/var/mnt/work/Projects/MediaWriter/app/data/assets/logos/png/64x64/silverblue-logo_color.png"
   inkscape:export-xdpi="48"
   inkscape:export-ydpi="48">
  <defs
     id="defs5762">
    <clipPath
       clipPathUnits="userSpaceOnUse"
       id="clipPath12124-3">
      <ellipse
         style="fill:#e59728;fill-opacity:1;stroke:none"
         id="circle12126-7"
         cx="-494.57489"
         cy="312.69321"
         rx="42.605255"
         ry="47.479431"
         transform="matrix(0.8096571,-0.58690322,0.468272,0.88358436,0,0)" />
    </clipPath>
    <clipPath
       clipPathUnits="userSpaceOnUse"
       id="clipPath167">
      <path
         inkscape:connector-curvature="0"
         id="path169"
         d="m -74.10426,268.3751 c -9.375236,0 -16.922607,7.54736 -16.922607,16.92259 0,19.33358 -6.2e-5,54.99877 -6.2e-5,54.99877 h 54.836428 c 9.375219,0 16.92259,-7.54742 16.92259,-16.92259 V 268.3751 Z"
         style="opacity:1;vector-effect:none;fill:#db3279;fill-opacity:1;stroke:none;stroke-width:9.99999;stroke-linecap:round;stroke-linejoin:miter;stroke-miterlimit:4;stroke-dasharray:none;stroke-dashoffset:0;stroke-opacity:0.956863;marker:none;paint-order:normal"
         sodipodi:nodetypes="sscsscs" />
    </clipPath>
  </defs>
  <sodipodi:namedview
     id="base"
     pagecolor="#ffffff"
     bordercolor="#666666"
     borderopacity="1.0"
     inkscape:pageopacity="0.0"
     inkscape:pageshadow="2"
     inkscape:zoom="6.1161616"
     inkscape:cx="86.401999"
     inkscape:cy="25.884374"
     inkscape:document-units="px"
     inkscape:current-layer="layer1"
     showgrid="false"
     fit-margin-top="0"
     fit-margin-left="0"
     fit-margin-right="0"
     fit-margin-bottom="0"
     inkscape:window-width="1920"
     inkscape:window-height="1016"
     inkscape:window-x="1920"
     inkscape:window-y="269"
     inkscape:window-maximized="1"
     inkscape:document-rotation="0"
     units="px">
    <inkscape:grid
       type="xygrid"
       id="grid4326" />
  </sodipodi:namedview>
  <metadata
     id="metadata5765">
    <rdf:RDF>
      <cc:Work
         rdf:about="">
        <dc:format>image/svg+xml</dc:format>
        <dc:type
           rdf:resource="http://purl.org/dc/dcmitype/StillImage" />
        <dc:title></dc:title>
      </cc:Work>
    </rdf:RDF>
  </metadata>
  <g
     inkscape:label="Layer 1"
     inkscape:groupmode="layer"
     id="layer1"
     transform="translate(679.65265,-1173.8454)">
    <g
       transform="matrix(1.7797217,0,0,1.7797217,-517.65005,696.21241)"
       id="g1639"
       clip-path="url(#clipPath167)"
       style="stroke-width:0.362391">
      <g
         id="g1627"
         style="stroke-width:0.362391">
        <rect
           style="opacity:1;fill:#db3279;fill-opacity:1;stroke:none;stroke-width:0.362391;stroke-linejoin:round;stroke-dasharray:0.362391, 0.724782;paint-order:markers fill stroke;stop-color:#000000"
           id="rect1625"
           width="128"
           height="121"
           x="-119.75"
           y="245.25" />
      </g>
      <path
         style="fill:#d5256e;fill-opacity:1;stroke:none;stroke-width:0.362391px;stroke-linecap:butt;stroke-linejoin:miter;stroke-opacity:1"
         d="m -77.428193,253.67456 25.102291,54.09367 -55.507878,37.65343 -2.65165,-71.24101 z"
         id="path1629"
         inkscape:connector-curvature="0" />
      <path
         inkscape:connector-curvature="0"
         id="path1631"
         d="m -77.428193,253.67456 25.102291,54.09367 40.835421,-27.57717 -8.838834,-18.38478 z"
         style="fill:#db2f76;fill-opacity:1;stroke:none;stroke-width:0.362391px;stroke-linecap:butt;stroke-linejoin:miter;stroke-opacity:1"
         sodipodi:nodetypes="ccccc" />
      <path
         sodipodi:nodetypes="ccccc"
         style="fill:#dd3a7d;fill-opacity:1;stroke:none;stroke-width:0.362391px;stroke-linecap:butt;stroke-linejoin:miter;stroke-opacity:1"
         d="m -10.606602,315.01607 -41.7193,-7.24784 40.835421,-27.57717 7.424622,15.9099 z"
         id="path1633"
         inkscape:connector-curvature="0" />
      <path
         inkscape:connector-curvature="0"
         id="path1635"
         d="m -10.606602,315.01607 -41.7193,-7.24784 5.656859,17.50089 29.344932,-6.18719 z"
         style="fill:#d6256e;fill-opacity:1;stroke:none;stroke-width:0.362391px;stroke-linecap:butt;stroke-linejoin:miter;stroke-opacity:1"
         sodipodi:nodetypes="ccccc" />
      <path
         sodipodi:nodetypes="ccccc"
         style="fill:#dd3a7d;fill-opacity:1;stroke:none;stroke-width:0.362391px;stroke-linecap:butt;stroke-linejoin:miter;stroke-opacity:1"
         d="m -16.61701,343.47712 -45.078057,-9.36916 15.026024,-8.83884 29.344932,-6.18719 z"
         id="path1637"
         inkscape:connector-curvature="0" />
    </g>
    <path
       id="path1677"
       style="color:#000000;font-style:normal;font-variant:normal;font-weight:normal;font-stretch:normal;font-size:medium;line-height:normal;font-family:sans-serif;font-variant-ligatures:normal;font-variant-position:normal;font-variant-caps:normal;font-variant-numeric:normal;font-variant-alternates:normal;font-variant-east-asian:normal;font-feature-settings:normal;font-variation-settings:normal;text-indent:0;text-align:start;text-decoration:none;text-decoration-line:none;text-decoration-style:solid;text-decoration-color:#000000;letter-spacing:normal;word-spacing:normal;text-transform:none;writing-mode:lr-tb;direction:ltr;text-orientation:mixed;dominant-baseline:auto;baseline-shift:baseline;text-anchor:start;white-space:normal;shape-padding:0;shape-margin:0;inline-size:0;clip-rule:nonzero;display:inline;overflow:visible;visibility:visible;isolation:auto;mix-blend-mode:normal;color-interpolation:sRGB;color-interpolation-filters:linearRGB;solid-color:#000000;solid-opacity:1;vector-effect:none;fill:#ffffff;fill-opacity:1;fill-rule:nonzero;stroke:none;stroke-width:6.44955;stroke-linecap:butt;stroke-linejoin:miter;stroke-miterlimit:4;stroke-dasharray:none;stroke-dashoffset:0;stroke-opacity:1;color-rendering:auto;image-rendering:auto;shape-rendering:auto;text-rendering:auto;enable-background:accumulate;stop-color:#000000"
       d="m -644.1545,1199.1636 c -7.4568,0 -13.59951,6.1411 -13.59951,13.5978 0,5.9921 3.96936,11.1282 9.39702,12.9176 v 46.0777 h 46.88815 c 1.789,5.4276 6.92389,9.397 12.91583,9.397 7.45672,0 13.59961,-6.1428 13.59961,-13.5995 0,-7.4567 -6.14289,-13.5977 -13.59961,-13.5977 -5.76125,0 -10.72366,3.672 -12.68849,8.7785 h -31.65879 l 38.02858,-37.7626 c 1.7946,0.8798 3.79814,1.3885 5.91526,1.3885 7.45672,1e-4 13.59769,-6.1427 13.59769,-13.5995 0,-7.4567 -6.14097,-13.5978 -13.59769,-13.5978 -7.45671,10e-5 -13.59779,6.1411 -13.59779,13.5978 0,2.073 0.48834,4.0363 1.33385,5.8025 l -38.11491,37.847 v -30.9592 c 5.10638,-1.9653 8.77849,-6.9289 8.77849,-12.6903 0,-7.4567 -6.14108,-13.5977 -13.59769,-13.5978 z m 0,9.0218 c 2.58109,0 4.57599,1.9952 4.57599,4.576 0,2.5808 -1.9949,4.5778 -4.57599,4.5778 -2.5812,0 -4.5778,-1.9969 -4.5778,-4.5778 0,-2.5808 1.9966,-4.576 4.5778,-4.576 z m 55.19805,0 c 2.5812,0 4.57599,1.9952 4.57599,4.576 0,2.5809 -1.99479,4.5778 -4.57599,4.5778 -2.5812,0 -4.57609,-1.997 -4.57609,-4.5778 0,-2.5808 1.99489,-4.576 4.57609,-4.576 z m 0.40344,54.7927 c 2.58121,0 4.57789,1.9953 4.57789,4.5761 0,2.5808 -1.99668,4.5778 -4.57789,4.5778 -2.58111,0 -4.57598,-1.997 -4.57598,-4.5778 0,-2.5808 1.99487,-4.5761 4.57598,-4.5761 z"
       inkscape:connector-curvature="0" />
  </g>
</svg>
