<?xml version="1.0" encoding="UTF-8" standalone="no"?>
<!-- Created with Inkscape (http://www.inkscape.org/) -->

<svg
   xmlns:dc="http://purl.org/dc/elements/1.1/"
   xmlns:cc="http://creativecommons.org/ns#"
   xmlns:rdf="http://www.w3.org/1999/02/22-rdf-syntax-ns#"
   xmlns:svg="http://www.w3.org/2000/svg"
   xmlns="http://www.w3.org/2000/svg"
   xmlns:xlink="http://www.w3.org/1999/xlink"
   xmlns:sodipodi="http://sodipodi.sourceforge.net/DTD/sodipodi-0.dtd"
   xmlns:inkscape="http://www.inkscape.org/namespaces/inkscape"
   width="256"
   height="256"
   viewBox="0 0 256 256"
   id="svg5091"
   version="1.1"
   inkscape:version="0.91 r13725"
   sodipodi:docname="xfce_icon_grey_pattern.svg"
   inkscape:export-xdpi="90"
   inkscape:export-ydpi="90">
  <defs
     id="defs5093">
    <clipPath
       clipPathUnits="userSpaceOnUse"
       id="clipPath6742">
      <circle
         cy="924.36218"
         cx="128"
         id="circle6744"
         style="opacity:1;fill:none;fill-opacity:1;stroke:#000000;stroke-width:4;stroke-linecap:round;stroke-linejoin:round;stroke-miterlimit:4;stroke-dasharray:none;stroke-opacity:1"
         r="127" />
    </clipPath>
  </defs>
  <sodipodi:namedview
     id="base"
     pagecolor="#ffffff"
     bordercolor="#666666"
     borderopacity="1.0"
     inkscape:pageopacity="0.0"
     inkscape:pageshadow="2"
     inkscape:zoom="1.6129462"
     inkscape:cx="3.2655502"
     inkscape:cy="113.36124"
     inkscape:document-units="px"
     inkscape:current-layer="layer1"
     showgrid="false"
     units="px"
     inkscape:window-width="1920"
     inkscape:window-height="1016"
     inkscape:window-x="0"
     inkscape:window-y="27"
     inkscape:window-maximized="1" />
  <metadata
     id="metadata5096">
    <rdf:RDF>
      <cc:Work
         rdf:about="">
        <dc:format>image/svg+xml</dc:format>
        <dc:type
           rdf:resource="http://purl.org/dc/dcmitype/StillImage" />
        <dc:title></dc:title>
      </cc:Work>
    </rdf:RDF>
  </metadata>
  <g
     inkscape:label="Layer 1"
     inkscape:groupmode="layer"
     id="layer1"
     transform="translate(0,-796.36216)">
    <image
       sodipodi:absref="gray_contrast.png"
       y="611.30359"
       x="-321.9071"
       id="image6739"
       xlink:href="gray_contrast.png"
       preserveAspectRatio="none"
       height="773"
       width="1177"
       clip-path="url(#clipPath6742)" />
    <path
       inkscape:connector-curvature="0"
       style="fill:#ffffff;fill-opacity:1;fill-rule:evenodd;stroke:none;stroke-width:0.40396234"
       id="path14"
       d="m 13.208012,874.03536 c -1.229491,0.67318 9.805837,7.90476 30.485745,16.41862 20.681283,8.51382 49.270336,30.06818 47.03035,33.55113 -6.717276,9.46115 -10.670829,20.80385 -7.936353,40.18576 0.493161,3.41172 -10.135349,9.33922 -9.364079,14.48699 0.644978,3.917 11.875837,-3.89142 13.101296,-2.3515 0.7498,2.76404 -6.001708,16.76263 -3.275296,17.76238 1.994092,0.59258 19.515225,-16.66423 20.533765,-16.37664 28.90888,8.73958 66.5419,2.16641 67.27021,1.88963 -0.0685,-0.15178 27.03576,12.75425 29.39395,11.21167 5.94867,-6.44181 -11.26981,-15.52137 -8.39825,-19.14805 1.25905,-1.89871 20.98997,7.12542 21.96149,4.66101 1.41359,-4.26631 -9.16017,-13.2189 -10.74982,-15.87275 -1.38268,-2.4469 -1.65647,-6.38772 1.88963,-8.86015 3.54742,-2.47249 39.81725,-16.34814 38.29614,-27.08446 -2.62966,-19.50821 -46.03634,-20.78137 -46.73643,-22.42339 -0.32933,-0.77134 1.94606,-27.89609 -10.70776,-22.88533 -7.79094,2.89976 -1.46973,20.18878 -0.96583,22.42339 0.46494,2.05726 -3.45873,1.82678 -4.19913,0.92384 -1.6528,-2.01829 -7.08479,-20.05543 -13.52121,-16.83858 -9.02717,4.97719 -0.55095,20.53381 -2.35155,21.03769 -3.34451,1.86911 -3.15607,6.44249 -5.83679,10.16192 -4.42086,6.33567 -37.51275,-2.96358 -48.20609,-3.61126 -7.82856,-0.46221 -15.291917,5.93993 -15.998734,5.12296 -9.53238,-9.54583 -29.245818,-26.18212 -50.851584,-31.7035 -12.116347,-3.28808 -30.140745,-12.80233 -30.86367,-12.68138 z m 220.664738,17.4684 c -0.72179,0.31165 -3.63403,15.31401 -2.22554,15.99871 1.24832,0.93388 3.40702,-15.1263 2.26753,-15.95672 -0.0177,-0.0222 -0.0177,-0.0521 -0.0421,-0.0421 z m 10.70783,2.05757 c -1.63721,-0.0319 -10.36748,13.92169 -8.35631,15.41085 1.2483,0.93388 9.01707,-14.84076 8.48225,-15.36884 -0.0377,-0.0319 -0.0733,-0.041 -0.12607,-0.0421 z m -42.32735,17.0065 c 2.06832,0 3.73724,1.88626 3.73724,4.24115 0,2.35489 -1.66892,4.28311 -3.73724,4.28311 -2.06829,0 -3.73722,-1.92822 -3.73722,-4.28311 0,-2.35489 1.66893,-4.24115 3.73722,-4.24115 z m -8.39827,2.56148 c 1.59097,6.86776 4.05334,9.0372 11.50564,8.81821 -9.48534,8.69792 -15.22912,-6.18583 -11.50564,-8.81821 z m 20.07191,17.97233 c 0.59034,-0.0479 1.04218,0.045 1.3017,0.29397 3.73692,1.35446 -16.03501,8.48092 -16.16666,7.47446 -0.19897,-0.69368 10.73242,-7.43324 14.86496,-7.76841 z m 2.43549,4.53503 c 0.20451,-0.0155 0.39486,0.0481 0.54587,0.12607 3.52729,3.50444 -11.16702,11.27453 -11.00173,11.00174 -1.18418,-0.71552 7.38777,-10.88969 10.45586,-11.12772 z" />
  </g>
</svg>
