<?xml version="1.0" encoding="UTF-8" standalone="no"?>
<!-- Created with Inkscape (http://www.inkscape.org/) -->

<svg
   xmlns:dc="http://purl.org/dc/elements/1.1/"
   xmlns:cc="http://creativecommons.org/ns#"
   xmlns:rdf="http://www.w3.org/1999/02/22-rdf-syntax-ns#"
   xmlns:svg="http://www.w3.org/2000/svg"
   xmlns="http://www.w3.org/2000/svg"
   xmlns:xlink="http://www.w3.org/1999/xlink"
   xmlns:sodipodi="http://sodipodi.sourceforge.net/DTD/sodipodi-0.dtd"
   xmlns:inkscape="http://www.inkscape.org/namespaces/inkscape"
   width="256"
   height="256"
   viewBox="0 0 256 256"
   id="svg5091"
   version="1.1"
   inkscape:version="0.91 r13725"
   sodipodi:docname="cinnamon_icon_grey_pattern.svg"
   inkscape:export-xdpi="90"
   inkscape:export-ydpi="90">
  <defs
     id="defs5093">
    <clipPath
       clipPathUnits="userSpaceOnUse"
       id="clipPath6742">
      <circle
         cy="924.36218"
         cx="128"
         id="circle6744"
         style="opacity:1;fill:none;fill-opacity:1;stroke:#000000;stroke-width:4;stroke-linecap:round;stroke-linejoin:round;stroke-miterlimit:4;stroke-dasharray:none;stroke-opacity:1"
         r="127" />
    </clipPath>
    <clipPath
       clipPathUnits="userSpaceOnUse"
       id="clipPath5905-2">
      <ellipse
         style="opacity:1;fill:#844737;fill-opacity:1;stroke:none;stroke-width:2;stroke-linecap:round;stroke-linejoin:round;stroke-miterlimit:4;stroke-dasharray:none;stroke-dashoffset:0;stroke-opacity:1"
         id="circle5907-9"
         cx="227.09683"
         cy="470.55466"
         rx="17.505932"
         ry="17.675844"
         transform="matrix(0.96880816,-0.24781192,0.24327221,0.96995806,0,0)" />
    </clipPath>
    <clipPath
       clipPathUnits="userSpaceOnUse"
       id="clipPath5905-2-7">
      <ellipse
         style="opacity:1;fill:#844737;fill-opacity:1;stroke:none;stroke-width:2;stroke-linecap:round;stroke-linejoin:round;stroke-miterlimit:4;stroke-dasharray:none;stroke-dashoffset:0;stroke-opacity:1"
         id="circle5907-9-5"
         cx="227.09683"
         cy="470.55466"
         rx="17.505932"
         ry="17.675844"
         transform="matrix(0.96880816,-0.24781192,0.24327221,0.96995806,0,0)" />
    </clipPath>
  </defs>
  <sodipodi:namedview
     id="base"
     pagecolor="#ffffff"
     bordercolor="#666666"
     borderopacity="1.0"
     inkscape:pageopacity="0.0"
     inkscape:pageshadow="2"
     inkscape:zoom="1.5944466"
     inkscape:cx="72.964972"
     inkscape:cy="77.742678"
     inkscape:document-units="px"
     inkscape:current-layer="layer1"
     showgrid="false"
     units="px"
     inkscape:window-width="1920"
     inkscape:window-height="1016"
     inkscape:window-x="0"
     inkscape:window-y="27"
     inkscape:window-maximized="1" />
  <metadata
     id="metadata5096">
    <rdf:RDF>
      <cc:Work
         rdf:about="">
        <dc:format>image/svg+xml</dc:format>
        <dc:type
           rdf:resource="http://purl.org/dc/dcmitype/StillImage" />
        <dc:title />
      </cc:Work>
    </rdf:RDF>
  </metadata>
  <g
     inkscape:label="Layer 1"
     inkscape:groupmode="layer"
     id="layer1"
     transform="translate(0,-796.36216)">
    <g
       id="g7570"
       transform="translate(0,-2.2617187e-5)">
      <image
         clip-path="url(#clipPath6742)"
         width="1177"
         height="773"
         preserveAspectRatio="none"
         xlink:href="gray_contrast.png"
         id="image6739"
         x="-321.9071"
         y="611.30359"
         sodipodi:absref="gray_contrast.png" />
      <path
         id="rect5662-1-7-9"
         transform="translate(0,796.36216)"
         d="m 209.30469,55.146484 a 2.2158831,2.2158831 0 0 0 -0.69336,0.08984 c -1.44168,0.0732 -3.00877,0.459546 -4.37305,1.572266 -1.57964,1.28838 -2.79218,3.291852 -3.63672,6.107422 a 2.2158831,2.2158831 0 0 0 -0.004,0.01563 L 163.19141,190.90234 115.4375,254.37109 a 126.99994,126.99994 0 0 0 5.3457,0.26758 l 46.19336,-61.39453 41.58203,-55.26758 39.13477,-52.011716 a 126.99994,126.99994 0 0 0 -1.78125,-5.003906 l -33.60352,44.660152 16.29883,-55.884762 0.13477,-0.46289 a 2.2158831,2.2158831 0 0 0 0.0742,-0.384766 c 0.79,-2.79229 1.31513,-4.921438 0.49609,-7.048828 -0.42943,-1.11541 -1.29545,-2.03935 -2.27148,-2.644532 -0.97604,-0.60518 -2.06473,-0.989529 -3.34766,-1.349609 a 2.2158831,2.2158831 0 0 0 -0.12891,-0.0332 c -1.96326,-0.42736 -4.63735,-0.505279 -6.99609,0.644531 -0.36017,-0.47588 -0.7219,-0.964189 -1.14453,-1.287109 -1.16304,-0.88863 -2.37668,-1.266561 -3.23047,-1.519531 -0.84875,-0.25148 -1.81916,-0.468177 -2.88867,-0.503907 z m -0.14844,4.429688 c 0.54597,0.0182 1.16185,0.141269 1.7793,0.324219 0.71672,0.21236 1.37653,0.469855 1.79687,0.791015 0.35997,0.275041 0.59055,0.538773 0.73047,1.132813 l -29.97656,102.107421 -1.64063,2.17969 -11.10351,14.75586 34.10547,-116.677737 c 0.67539,-2.25169 1.5039,-3.384582 2.1914,-3.945312 0.6875,-0.56074 1.29827,-0.695309 2.11719,-0.667969 z m 12.02148,2.390625 c 0.47759,0.01823 0.95086,0.08008 1.39454,0.173828 1.02538,0.29427 1.76176,0.590241 2.13281,0.820313 0.38429,0.238269 0.41075,0.309903 0.47265,0.470703 0.12382,0.3216 0.0915,1.806731 -0.70898,4.613281 a 2.2158831,2.2158831 0 0 0 -0.0508,0.234375 l -0.0644,0.21875 -19.58008,67.136723 -13.71289,18.22656 26.70117,-90.945314 c 0.88405,-0.737703 2.16197,-0.997083 3.41601,-0.949219 z M 250.60742,95.078125 130.08398,254.92578 a 126.99994,126.99994 0 0 0 5.70118,-0.20117 L 251.88086,100.75 a 126.99994,126.99994 0 0 0 -1.27344,-5.671875 z m 3.19141,16.660155 -68.42969,90.95117 -38.18555,50.75391 a 126.99994,126.99994 0 0 0 6.44532,-1.19922 l 6.44531,-8.56641 -2.23633,7.6211 a 126.99994,126.99994 0 0 0 4.9707,-1.20508 l 4.83985,-16.48242 13.96679,-18.56445 0,0.004 -9.29882,31.88477 a 126.99994,126.99994 0 0 0 5.24218,-2.15039 l 11.59375,-39.75977 65.41602,-86.94336 a 126.99994,126.99994 0 0 0 -0.76953,-6.34375 z"
         style="color:#000000;font-style:normal;font-variant:normal;font-weight:normal;font-stretch:normal;font-size:medium;line-height:normal;font-family:sans-serif;text-indent:0;text-align:start;text-decoration:none;text-decoration-line:none;text-decoration-style:solid;text-decoration-color:#000000;letter-spacing:normal;word-spacing:normal;text-transform:none;direction:ltr;block-progression:tb;writing-mode:lr-tb;baseline-shift:baseline;text-anchor:start;white-space:normal;clip-rule:nonzero;display:inline;overflow:visible;visibility:visible;opacity:1;isolation:auto;mix-blend-mode:normal;color-interpolation:sRGB;color-interpolation-filters:linearRGB;solid-color:#000000;solid-opacity:1;fill:#ffffff;fill-opacity:1;fill-rule:nonzero;stroke:none;stroke-width:4.43132305;stroke-linecap:round;stroke-linejoin:round;stroke-miterlimit:4;stroke-dasharray:none;stroke-dashoffset:0;stroke-opacity:1;color-rendering:auto;image-rendering:auto;shape-rendering:auto;text-rendering:auto;enable-background:accumulate"
         inkscape:connector-curvature="0" />
      <path
         sodipodi:nodetypes="cscscscscscscscscscscscscscscscsc"
         inkscape:connector-curvature="0"
         id="path5323-5-04-7"
         d="m 87.731239,834.12191 c -6.724178,9.25533 -12.842262,23.46802 -11.317089,40.77643 0.322423,3.65888 1.026626,6.99334 1.984501,10.07783 -2.550005,-3.3174 -5.557964,-6.52989 -9.123229,-9.51004 -13.347876,-11.15767 -27.666654,-11.73457 -38.267375,-11.42929 0,0 4.810954,23.96481 18.159007,35.12253 4.538472,3.79374 9.572787,6.45604 14.637456,8.35967 -5.193754,-1.01232 -10.828336,-1.41727 -16.848332,-0.8868 -17.351731,1.5291 -27.88565,11.21947 -35.16844,18.91271 0,0 20.383464,13.54706 37.735173,12.01795 5.898578,-0.5198 11.352495,-2.18846 16.283848,-4.41475 -4.390687,2.94767 -8.663546,6.63573 -12.54523,11.25604 -11.191062,13.3201 -11.775575,27.60398 -11.474334,38.17855 0,0 24.026366,-4.80464 35.21734,-18.12482 3.805177,-4.52912 6.475846,-9.55727 8.386345,-14.61033 -1.017166,5.18148 -1.420461,10.80188 -0.891317,16.80692 1.525195,17.30839 11.235243,27.81732 18.944147,35.07889 0,0 13.58883,-20.34448 12.06366,-37.65294 -0.60096,-6.81998 -2.74494,-13.04455 -5.52318,-18.54677 2.59064,4.75353 5.86364,9.36474 9.94369,12.77529 13.34798,11.15765 31.00497,12.698 41.00309,13.10998 -1.80396,-11.28468 -7.54667,-25.64549 -20.89461,-36.80323 -2.81755,-2.35516 -5.67821,-4.21452 -8.53794,-5.71811 3.34135,0.5965 6.73237,0.84805 10.01494,0.55877 17.35173,-1.52912 30.93553,-12.89262 38.30046,-19.65385 -9.27518,-6.70355 -23.51546,-12.8059 -40.86706,-11.27683 -3.66193,0.32271 -7.0051,1.02867 -10.09342,1.9832 2.78513,-1.93505 5.36084,-4.15042 7.47715,-6.66945 11.19108,-13.32012 12.74293,-30.9344 13.1604,-40.90814 -11.31323,1.80468 -25.70687,7.53883 -36.89794,20.85906 -2.36134,2.81061 -4.22777,5.66715 -5.73595,8.51955 0.59901,-3.3334 0.85303,-6.71631 0.56449,-9.99071 -1.52517,-17.30846 -12.915667,-30.85341 -19.690251,-38.19731 z"
         style="opacity:0.98999999;fill:none;fill-opacity:1;stroke:#ffffff;stroke-width:4.43132257;stroke-linecap:round;stroke-linejoin:round;stroke-miterlimit:4;stroke-dasharray:none;stroke-opacity:1" />
      <path
         sodipodi:nodetypes="scccs"
         inkscape:connector-curvature="0"
         id="path5323-1-3-8-6"
         d="m 128.32836,888.46134 c -5.29596,6.34067 -15.77542,9.18287 -15.77542,9.18287 -0.14291,-5.03369 0.61631,-11.13536 5.91227,-17.47601 5.29603,-6.34069 11.62719,-9.7673 16.98101,-10.6262 -0.19742,4.74772 -1.82183,12.57869 -7.11786,18.91934 z"
         style="opacity:1;fill:none;fill-opacity:1;stroke:#ffffff;stroke-width:4.43132257;stroke-linecap:round;stroke-linejoin:round;stroke-miterlimit:4;stroke-dasharray:none;stroke-opacity:1" />
      <path
         sodipodi:nodetypes="scccs"
         inkscape:connector-curvature="0"
         id="path5323-1-4-9-6-1"
         d="m 74.079507,953.60194 c -5.0432,6.08932 -15.022339,8.81895 -15.022339,8.81895 -0.136042,-4.8342 0.586884,-10.69407 5.630062,-16.78341 5.043111,-6.0894 11.072015,-9.38021 16.170251,-10.2051 -0.188109,4.55961 -1.734796,12.08019 -6.777974,18.16956 z"
         style="opacity:1;fill:none;fill-opacity:1;stroke:#ffffff;stroke-width:4.43132257;stroke-linecap:round;stroke-linejoin:round;stroke-miterlimit:4;stroke-dasharray:none;stroke-opacity:1" />
      <path
         sodipodi:nodetypes="scccs"
         inkscape:connector-curvature="0"
         id="path5323-1-2-3"
         d="m 98.581332,874.78009 c 0.720312,8.45902 -4.679277,18.15526 -4.679277,18.15526 -3.640797,-3.54891 -7.396232,-8.52943 -8.116544,-16.98842 -0.720334,-8.45898 1.339545,-15.55749 4.515252,-20.08074 3.199482,3.58908 7.560214,10.45484 8.280569,18.9139 z"
         style="opacity:1;fill:none;fill-opacity:1;stroke:#ffffff;stroke-width:4.43132257;stroke-linecap:round;stroke-linejoin:round;stroke-miterlimit:4;stroke-dasharray:none;stroke-opacity:1" />
      <path
         sodipodi:nodetypes="scccs"
         inkscape:connector-curvature="0"
         id="path5323-1-4-25-4"
         d="m 105.36974,963.88358 c 0.63926,7.95872 -4.15255,17.08144 -4.15255,17.08144 -3.230984,-3.33893 -6.563671,-8.02488 -7.202912,-15.98358 -0.639262,-7.95866 1.188747,-14.63728 4.007002,-18.89303 2.83935,3.37682 6.70922,9.83654 7.34846,17.79517 z"
         style="opacity:1;fill:none;fill-opacity:1;stroke:#ffffff;stroke-width:4.43132257;stroke-linecap:round;stroke-linejoin:round;stroke-miterlimit:4;stroke-dasharray:none;stroke-opacity:1" />
      <path
         sodipodi:nodetypes="scccs"
         inkscape:connector-curvature="0"
         id="path5323-1-36-6-1-4"
         d="m 124.19985,949.69061 c -6.1758,-5.09161 -8.94059,-15.17075 -8.94059,-15.17075 4.90468,-0.13914 10.84965,0.58813 17.02541,5.67974 6.1758,5.09159 9.51188,11.18014 10.3464,16.32971 -4.62588,-0.18811 -12.2554,-1.74711 -18.43122,-6.8387 z"
         style="opacity:1;fill:none;fill-opacity:1;stroke:#ffffff;stroke-width:4.43132257;stroke-linecap:round;stroke-linejoin:round;stroke-miterlimit:4;stroke-dasharray:none;stroke-opacity:1" />
      <path
         sodipodi:nodetypes="scccs"
         inkscape:connector-curvature="0"
         id="path5323-1-4-0-9-6-3"
         d="m 57.267645,893.28319 c -5.839553,-4.8363 -8.453856,-14.41004 -8.453856,-14.41004 4.637689,-0.13227 10.258911,0.55863 16.098486,5.39494 5.839553,4.8363 8.993923,10.61953 9.783031,15.51091 -4.374026,-0.17858 -11.588086,-1.65953 -17.427661,-6.49581 z"
         style="opacity:1;fill:none;fill-opacity:1;stroke:#ffffff;stroke-width:4.43132257;stroke-linecap:round;stroke-linejoin:round;stroke-miterlimit:4;stroke-dasharray:none;stroke-opacity:1" />
      <path
         sodipodi:nodetypes="scccs"
         inkscape:connector-curvature="0"
         id="path5323-1-36-1-5"
         d="m 135.60023,920.97406 c -9.00585,0.75355 -19.32593,-4.86262 -19.32593,-4.86262 3.77992,-3.79126 9.08408,-7.70257 18.08992,-8.45614 9.00582,-0.75357 16.56189,1.38745 21.37586,4.69109 -3.8225,3.332 -11.13399,7.8741 -20.13985,8.62767 z"
         style="opacity:1;fill:none;fill-opacity:1;stroke:#ffffff;stroke-width:4.43132257;stroke-linecap:round;stroke-linejoin:round;stroke-miterlimit:4;stroke-dasharray:none;stroke-opacity:1" />
      <path
         sodipodi:nodetypes="scccs"
         inkscape:connector-curvature="0"
         id="path5323-1-4-0-96-9"
         d="m 54.805513,928.51671 c -8.933059,0.73907 -19.169725,-4.76922 -19.169725,-4.76922 3.749364,-3.71841 9.010607,-7.5546 17.943667,-8.2937 8.933081,-0.73908 16.42811,1.36079 21.203148,4.60097 -3.791573,3.26801 -11.043964,7.72285 -19.97709,8.46195 z"
         style="opacity:1;fill:none;fill-opacity:1;stroke:#ffffff;stroke-width:4.43132257;stroke-linecap:round;stroke-linejoin:round;stroke-miterlimit:4;stroke-dasharray:none;stroke-opacity:1" />
      <ellipse
         transform="matrix(0.99613821,-0.08779904,0.08776258,0.99614142,0,0)"
         ry="12.158232"
         rx="12.186456"
         cy="922.79413"
         cx="14.871346"
         id="path5360-5-86-6"
         style="opacity:0.98999999;fill:none;fill-opacity:1;stroke:#ffffff;stroke-width:4.43132305;stroke-linecap:round;stroke-linejoin:round;stroke-miterlimit:4;stroke-dasharray:none;stroke-opacity:1" />
    </g>
  </g>
</svg>
