<?xml version="1.0" encoding="UTF-8" standalone="no"?>
<!-- Created with Inkscape (http://www.inkscape.org/) -->

<svg
   xmlns:dc="http://purl.org/dc/elements/1.1/"
   xmlns:cc="http://creativecommons.org/ns#"
   xmlns:rdf="http://www.w3.org/1999/02/22-rdf-syntax-ns#"
   xmlns:svg="http://www.w3.org/2000/svg"
   xmlns="http://www.w3.org/2000/svg"
   xmlns:xlink="http://www.w3.org/1999/xlink"
   xmlns:sodipodi="http://sodipodi.sourceforge.net/DTD/sodipodi-0.dtd"
   xmlns:inkscape="http://www.inkscape.org/namespaces/inkscape"
   width="256"
   height="256"
   viewBox="0 0 256 256"
   id="svg5091"
   version="1.1"
   inkscape:version="0.91 r13725"
   sodipodi:docname="design-suite_icon_grey_pattern.svg"
   inkscape:export-xdpi="90"
   inkscape:export-ydpi="90">
  <defs
     id="defs5093">
    <clipPath
       clipPathUnits="userSpaceOnUse"
       id="clipPath6742">
      <circle
         cy="924.36218"
         cx="128"
         id="circle6744"
         style="opacity:1;fill:none;fill-opacity:1;stroke:#000000;stroke-width:4;stroke-linecap:round;stroke-linejoin:round;stroke-miterlimit:4;stroke-dasharray:none;stroke-opacity:1"
         r="127" />
    </clipPath>
  </defs>
  <sodipodi:namedview
     id="base"
     pagecolor="#ffffff"
     bordercolor="#666666"
     borderopacity="1.0"
     inkscape:pageopacity="0.0"
     inkscape:pageshadow="2"
     inkscape:zoom="1.6129462"
     inkscape:cx="3.2655502"
     inkscape:cy="113.36124"
     inkscape:document-units="px"
     inkscape:current-layer="layer1"
     showgrid="false"
     units="px"
     inkscape:window-width="1920"
     inkscape:window-height="1016"
     inkscape:window-x="0"
     inkscape:window-y="27"
     inkscape:window-maximized="1" />
  <metadata
     id="metadata5096">
    <rdf:RDF>
      <cc:Work
         rdf:about="">
        <dc:format>image/svg+xml</dc:format>
        <dc:type
           rdf:resource="http://purl.org/dc/dcmitype/StillImage" />
        <dc:title></dc:title>
      </cc:Work>
    </rdf:RDF>
  </metadata>
  <g
     inkscape:label="Layer 1"
     inkscape:groupmode="layer"
     id="layer1"
     transform="translate(0,-796.36216)">
    <image
       sodipodi:absref="gray_contrast.png"
       y="611.30359"
       x="-321.9071"
       id="image6739"
       xlink:href="gray_contrast.png"
       preserveAspectRatio="none"
       height="773"
       width="1177"
       clip-path="url(#clipPath6742)" />
    <path
       inkscape:connector-curvature="0"
       style="fill:#ffffff;fill-opacity:1;stroke:none;stroke-width:2.85765862;stroke-linecap:round;stroke-linejoin:round;stroke-miterlimit:4;stroke-dasharray:none;stroke-opacity:1"
       d="m 141.61362,818.7767 c -2.84618,-0.12393 -5.43345,1.31735 -7.58684,3.18925 -2.46103,2.13931 -4.71516,5.06975 -6.98268,8.62185 -4.53498,7.1042 -9.041,16.74108 -13.25714,27.11353 -5.27825,12.98543 -10.0467,27.03163 -13.45526,38.42446 7.96512,-0.11768 17.14687,1.44997 26.81641,3.80827 6.24034,1.52199 11.97484,3.22746 16.94657,5.18995 1.73299,-12.8399 4.4151,-32.96317 5.53165,-50.25536 0.55848,-8.64901 0.74089,-16.56219 0.16354,-22.71594 -0.2888,-3.07687 -0.73997,-5.70429 -1.60946,-7.96321 -0.86949,-2.25891 -2.4358,-4.67009 -5.32861,-5.25928 -0.41651,-0.0848 -0.83153,-0.13583 -1.23806,-0.15353 z m -46.442146,96.78169 c -1.224873,4.50561 -3.445684,12.52329 -3.114972,20.77961 0.202337,5.05299 1.419755,10.3318 4.719492,14.81711 3.299766,4.48531 8.636666,7.93444 16.114606,9.53307 a 3.6232241,3.6232241 0 0 0 0.3714,0.0594 c 5.08325,0.54746 9.77109,-1.47356 13.32649,-4.83834 3.5554,-3.36477 6.25692,-7.98139 8.51787,-13.32649 2.08136,-4.92049 3.76263,-10.50533 5.16022,-16.3523 a 3.7889762,3.7889762 0 0 1 -1.243,-0.36151 c -4.99587,-2.46606 -12.07601,-4.71585 -20.11106,-6.67563 -8.71267,-2.12492 -16.90227,-3.5263 -23.523141,-3.62009 a 3.7889762,3.7889762 0 0 1 -0.217804,-0.015 z m 80.746316,36.13651 c -5.47291,-0.10613 -10.8573,2.69017 -13.74742,7.74036 -4.20381,7.34573 -1.61755,16.80736 5.73965,20.99751 7.3572,4.19016 16.84322,1.60608 21.04703,-5.73965 4.20384,-7.34572 1.60764,-16.80239 -5.74956,-20.99256 -2.29911,-1.30942 -4.80203,-1.95741 -7.2897,-2.00566 z m -70.72299,13.38592 c -0.65447,-0.003 -1.31316,0.0208 -1.96604,0.0693 -5.222923,0.38897 -10.32219,2.44205 -14.153505,6.14573 -8.771299,8.47934 -14.54208,25.65314 -3.466577,42.72793 2.632026,4.0576 6.795802,7.435 11.409968,9.9342 4.614194,2.4993 9.667644,4.1386 14.505134,3.8925 17.29125,-0.8802 24.75626,-15.6293 24.75626,-15.6293 a 3.6232241,3.6232241 0 0 0 -4.65014,-4.9473 c 0,0 -4.49023,1.3964 -6.51717,0.7924 -0.81166,-0.2419 -1.59895,-0.9095 -1.92641,-1.6045 -0.32744,-0.6951 -0.4601,-1.3502 0.30208,-2.6396 3.08901,-5.22617 4.84845,-11.57408 4.3332,-17.90731 -0.51525,-6.33322 -3.53901,-12.71568 -9.70638,-16.93172 -3.77733,-2.58216 -8.33906,-3.87933 -12.92042,-3.90236 z m 50.97839,14.88644 c -0.46999,-0.0314 -0.93939,-0.0262 -1.40641,0.01 -3.11351,0.24047 -6.07132,1.9565 -7.72057,4.83834 -2.63877,4.61096 -1.00068,10.58372 3.61513,13.21257 4.61582,2.62884 10.60354,1.00079 13.24231,-3.61017 2.63874,-4.61094 1.00068,-10.58373 -3.61514,-13.21259 -1.2982,-0.73936 -2.7053,-1.14398 -4.11532,-1.23806 z"
       id="ellipse4527" />
  </g>
</svg>
