<?xml version="1.0" encoding="UTF-8" standalone="no"?>
<svg
   xmlns:dc="http://purl.org/dc/elements/1.1/"
   xmlns:cc="http://creativecommons.org/ns#"
   xmlns:rdf="http://www.w3.org/1999/02/22-rdf-syntax-ns#"
   xmlns:svg="http://www.w3.org/2000/svg"
   xmlns="http://www.w3.org/2000/svg"
   xmlns:sodipodi="http://sodipodi.sourceforge.net/DTD/sodipodi-0.dtd"
   xmlns:inkscape="http://www.inkscape.org/namespaces/inkscape"
   width="243"
   height="232.5"
   viewBox="0 0 64.293752 61.515625"
   version="1.1"
   id="svg980"
   inkscape:version="1.0.2 (e86c870879, 2021-01-15)"
   sodipodi:docname="fedora_i3_logo.svg"
   inkscape:export-filename="/home/dan/projects/github.com/AOSC-Dev/MediaWriter/src/app/data/assets/logos/png/256x256/fedora_i3_logo.png"
   inkscape:export-xdpi="101.16129"
   inkscape:export-ydpi="101.16129">
  <defs
     id="defs974">
    <clipPath
       clipPathUnits="userSpaceOnUse"
       id="clipPath923">
      <path
         id="path925"
         style="opacity:0.381965;fill:#00ffff;stroke-width:0.301212;stop-color:#000000"
         d="m 245.3971,180.66452 a 30.672749,30.750473 0 0 1 -30.67275,30.75047 30.672749,30.750473 0 0 1 -30.67275,-30.75047 30.672749,30.750473 0 0 1 30.67275,-30.75047 30.672749,30.750473 0 0 1 30.67275,30.75047 z" />
    </clipPath>
    <filter
       style="color-interpolation-filters:sRGB;"
       inkscape:label="Greyscale"
       id="filter967">
      <feColorMatrix
         values="0.21 0.758861 0.072 0 0 0.21 0.758861 0.072 0 0 0.21 0.758861 0.072 0 0 0 0 0 1 0 "
         id="feColorMatrix965" />
    </filter>
  </defs>
  <sodipodi:namedview
     id="base"
     pagecolor="#ffffff"
     bordercolor="#666666"
     borderopacity="1.0"
     inkscape:pageopacity="0.0"
     inkscape:pageshadow="2"
     inkscape:zoom="2.242672"
     inkscape:cx="85.254135"
     inkscape:cy="141.93445"
     inkscape:document-units="mm"
     inkscape:current-layer="layer1"
     inkscape:document-rotation="0"
     showgrid="false"
     fit-margin-top="0"
     fit-margin-left="0"
     fit-margin-right="0"
     fit-margin-bottom="0"
     units="px"
     lock-margins="true"
     inkscape:window-width="1916"
     inkscape:window-height="1041"
     inkscape:window-x="1280"
     inkscape:window-y="18"
     inkscape:window-maximized="0" />
  <metadata
     id="metadata977">
    <rdf:RDF>
      <cc:Work
         rdf:about="">
        <dc:format>image/svg+xml</dc:format>
        <dc:type
           rdf:resource="http://purl.org/dc/dcmitype/StillImage" />
        <dc:title></dc:title>
      </cc:Work>
    </rdf:RDF>
  </metadata>
  <g
     inkscape:label="Layer 1"
     inkscape:groupmode="layer"
     id="layer1"
     transform="translate(-182.5436,-149.91481)">
    <g
       id="g912"
       clip-path="url(#clipPath923)"
       style="filter:url(#filter967)"
       inkscape:export-filename="/home/dan/projects/github.com/AOSC-Dev/MediaWriter/src/app/data/assets/logos/png/256x256/fedora_i3_logo.png"
       inkscape:export-xdpi="106.14147"
       inkscape:export-ydpi="106.14147">
      <path
         id="path850-6-9-3_1_"
         class="st3"
         d="m 198.89485,211.43043 h -12.14437 c -2.32834,0 -4.20688,-1.87854 -4.20688,-4.20687 v -12.17084 c 0,-8.5725 6.95854,-15.53104 15.53104,-15.53104 h 0.84667 c 8.5725,0 15.53104,6.95854 15.53104,15.53104 v 0.84667 c -0.0265,8.5725 -6.985,15.50458 -15.5575,15.53104 z"
         style="fill:#3c6eb4;stroke-width:0.264583" />
      <path
         class="st10"
         d="m 242.41881,211.43043 h -23.57438 c -2.43416,0 -4.41854,-1.98437 -4.41854,-4.41854 v -23.09813 c 0,-2.43416 1.98438,-4.41854 4.41854,-4.41854 h 23.57438 c 2.43417,0 4.41854,1.98438 4.41854,4.41854 v 23.09813 c 0,2.46062 -1.98437,4.41854 -4.41854,4.41854 z"
         id="path1066"
         style="clip-rule:evenodd;fill:#db3279;fill-rule:evenodd;stroke-width:0.264583" />
      <path
         class="st11"
         d="m 220.35256,179.49609 h -33.39042 c -2.43416,0 -4.41854,-1.98266 -4.41854,-4.41472 v -20.75184 c 0,-2.43206 1.98438,-4.41472 4.41854,-4.41472 h 33.39042 c 2.43417,0 4.41854,1.98266 4.41854,4.41472 v 20.75184 c 0,2.4585 -1.98437,4.41472 -4.41854,4.41472 z"
         id="path1068"
         style="clip-rule:evenodd;fill:#79db32;fill-rule:evenodd;stroke-width:0.264469" />
      <path
         class="st12"
         d="m 242.41881,179.52168 h -13.25563 c -2.43416,0 -4.41854,-1.98437 -4.41854,-4.41854 v -20.76979 c 0,-2.43417 1.98438,-4.41854 4.41854,-4.41854 h 13.25563 c 2.43417,0 4.41854,1.98437 4.41854,4.41854 v 20.76979 c 0,2.46062 -1.98437,4.41854 -4.41854,4.41854 z"
         id="path1070"
         style="clip-rule:evenodd;fill:#e59728;fill-rule:evenodd;stroke-width:0.264583" />
      <g
         id="g1080"
         style="opacity:0.08"
         transform="matrix(0.26458333,0,0,0.26458333,-120.93348,-3.2524828)">
        <path
           class="st13"
           d="m 1373.3,690.8 h -50.1 c -9.2,0 -16.7,-7.5 -16.7,-16.7 v -78.5 c 0,-9.2 7.5,-16.7 16.7,-16.7 h 50.1 c 9.2,0 16.7,7.5 16.7,16.7 v 78.5 c 0,9.3 -7.5,16.7 -16.7,16.7 z"
           id="path1074" />
        <path
           class="st13"
           d="m 1263.9,690.8 h 26 c 9.2,0 16.7,-7.5 16.7,-16.7 v -78.5 c 0,-9.2 -7.5,-16.7 -16.7,-16.7 h -126.2 c -4.7,0 -9,2 -12,5.1 z"
           id="path1076" />
        <path
           class="st13"
           d="m 1385.4,806.2 c 2.8,-3 4.6,-7 4.6,-11.5 v -87.3 c 0,-9.2 -7.5,-16.7 -16.7,-16.7 h -89.1 c -5.5,0 -10.3,2.6 -13.3,6.7 z"
           id="path1078" />
      </g>
      <path
         id="path2405-6-9"
         style="clip-rule:evenodd;fill:#ffffff;fill-rule:evenodd;stroke:none;stroke-width:1.32292;stroke-miterlimit:4;stroke-dasharray:none;stroke-opacity:1"
         d="m 215.22227,156.48562 c -1.18082,-0.01 -2.35758,0.47504 -3.18923,1.31338 -1.22617,1.23613 -1.61615,3.22831 -0.9466,4.83555 0.66953,1.60725 2.35847,2.73356 4.09958,2.73356 0.57952,0 1.13668,-0.16179 1.66902,-0.38754 -0.70533,1.65794 -0.41326,3.75999 0.88814,5.03512 0.01,0.01 5.11525,5.09118 11.48984,11.44112 0.44011,0.4401 0.58786,0.74605 0.66347,1.22157 0.0756,0.47551 0.0265,1.18806 -0.27012,2.20492 -0.2999,1.02826 -0.91876,2.25474 -1.7328,3.49172 -0.22343,-0.60776 -0.54251,-1.18086 -1.00219,-1.63762 l -0.002,-0.002 -12.89457,-12.84486 c -0.82536,-0.84438 -1.99876,-1.33753 -3.17952,-1.33658 v 0 c -0.60543,4.9e-4 -1.20754,0.13245 -1.76277,0.37353 0.004,-0.009 0.0121,-0.0163 0.0158,-0.0256 0.6696,-1.6071 0.27979,-3.59932 -0.94615,-4.83555 -0.81441,-0.82099 -1.95987,-1.3038 -3.11625,-1.31339 v 0 c -1.18094,-0.01 -2.35794,0.47495 -3.18967,1.31339 -1.22592,1.23623 -1.61575,3.22845 -0.94613,4.83555 0.66963,1.60709 2.35906,2.73307 4.10008,2.73307 0.64597,0 1.26503,-0.19644 1.8473,-0.47355 -0.71223,1.66006 -0.42175,3.76942 0.88333,5.04768 8e-5,9e-5 -9e-5,4.9e-4 0,4.9e-4 l 12.88875,12.83955 c 0.44927,0.45637 1.0137,0.77333 1.61247,0.99881 -1.20343,0.78671 -2.39038,1.38069 -3.38394,1.67048 -1.02289,0.29835 -1.74062,0.35156 -2.21165,0.27834 -0.47104,-0.0732 -0.76471,-0.21361 -1.20224,-0.65911 a 1.9674853,1.9674988 0 0 0 -0.0178,-0.0179 c -3.18103,-3.15641 -6.02011,-6.04467 -8.07691,-8.12626 a 1.9674853,1.9674988 0 0 0 -0.008,-0.008 l -2.47405,-2.47407 a 1.9674853,1.9674988 0 0 0 -0.057,-0.0546 c -0.29377,-0.27117 -0.48707,-0.46483 -0.68521,-0.66298 a 1.9674853,1.9674988 0 0 0 -0.21067,-0.18265 c 0.0698,0.0523 -0.0487,-0.0549 -0.27304,-0.23436 a 1.9674853,1.9674988 0 0 0 -0.0178,-0.014 c -0.17573,-0.13728 -0.36304,-0.25882 -0.5557,-0.37111 -0.3643,-0.22858 -0.76886,-0.38927 -1.1892,-0.48031 -0.9224,-0.23445 -1.90133,-0.11806 -2.78039,0.24499 0.0176,-0.0387 0.0498,-0.0689 0.0662,-0.10824 0.66956,-1.60725 0.27908,-3.59942 -0.94709,-4.83555 -0.81436,-0.82112 -1.95982,-1.30419 -3.11624,-1.31387 -1.18094,-0.009 -2.35822,0.4757 -3.1897,1.31435 -1.22579,1.23617 -1.6156,3.22803 -0.94613,4.83507 0.66953,1.60724 2.35847,2.73355 4.09958,2.73355 0.60075,0 1.1774,-0.17344 1.72603,-0.41508 -0.34278,0.74482 -0.50761,1.57046 -0.41218,2.38516 0.17024,1.65322 1.25392,2.5399 1.7995,3.05973 0.12202,0.12188 0.28135,0.28048 0.54313,0.51607 l -0.0435,-0.0406 c 0.51705,0.49458 1.34343,1.34392 2.39334,2.39386 2.06722,2.06722 4.91642,4.96571 8.11509,8.16442 a 1.9674853,1.9674988 0 0 0 0.006,0.006 c 3.39687,3.36685 8.20416,3.78142 12.20163,2.61903 3.91922,-1.13964 7.44514,-3.58769 10.36685,-6.50941 2.93002,-2.93004 5.34816,-6.48289 6.48471,-10.39157 1.16481,-4.00583 0.71788,-8.82048 -2.68135,-12.18963 l -11.49949,-11.47494 0.0261,0.0266 c -0.8312,-0.86134 -2.02659,-1.35954 -3.22351,-1.34334 l 0.0831,5e-4 c -0.038,-9.9e-4 -0.076,-0.001 -0.11405,-0.001 v 0 c -0.52734,-0.002 -1.04811,0.11262 -1.54049,0.30105 0.008,-0.0194 0.0247,-0.0342 0.0328,-0.0536 0.66955,-1.60724 0.27907,-3.59942 -0.94709,-4.83555 -0.81453,-0.8211 -1.96019,-1.30392 -3.11671,-1.31338 z m 2.43248,7.24583 c -0.004,0.004 -0.007,0.009 -0.0106,0.0135 -0.004,0.004 -0.008,0.007 -0.0121,0.0106 z m -10.04504,10.19298 c -0.002,0.002 -0.003,0.005 -0.005,0.007 -0.002,0.001 -0.003,0.002 -0.004,0.004 z m -9.99043,9.94121 c -0.002,0.002 -0.003,0.005 -0.005,0.007 -0.002,0.002 -0.005,0.003 -0.008,0.006 z m 30.45839,7.17384 -0.002,0.008 c 0,-0.001 1.3e-4,-0.003 0,-0.004 0,-10e-4 0,-0.002 0.002,-0.003 z"
         class="st14" />
      <path
         id="path2405-6-9-9"
         style="clip-rule:evenodd;fill:#294172;fill-rule:evenodd;stroke-width:1.32292;stroke-miterlimit:4;stroke-dasharray:none"
         d="m 215.14526,158.45069 a 2.4740525,2.4740694 0 0 0 -1.71105,0.73159 2.4740525,2.4740694 0 1 0 3.51295,0 2.4740525,2.4740694 0 0 0 -1.73619,-0.73159 2.4740525,2.4740694 0 0 0 -0.0657,0 z m 5.64732,5.90104 v 4.9e-4 a 2.3379796,2.3379956 0 0 0 -1.71733,0.74319 2.4938449,2.493862 0 0 0 0.0493,3.51298 c 0,0 5.12129,5.09678 11.50434,11.45514 1.36073,1.36074 1.5833,2.99343 0.89056,5.36854 -0.69273,2.3751 -2.44921,5.14606 -4.72534,7.4222 -2.27613,2.27615 -5.04707,4.05777 -7.42216,4.75051 -2.37509,0.69274 -4.00776,0.49491 -5.36849,-0.89057 -3.19153,-3.16681 -6.03699,-6.06157 -8.09045,-8.13979 l -2.47405,-2.47407 c -0.32163,-0.29688 -0.5443,-0.51965 -0.74222,-0.71757 -0.099,-0.0742 -0.19763,-0.17309 -0.32133,-0.27205 a 2.968863,2.9688833 0 0 0 -0.37111,-0.24741 1.7466811,1.746693 0 0 0 -0.61851,-0.24741 2.4468379,2.4468546 0 0 0 -2.37549,0.64316 2.4938449,2.493862 0 0 0 -0.71708,2.07832 c 0.0742,0.76696 0.6676,1.336 1.21189,1.85555 0.12371,0.1237 0.24741,0.2475 0.49481,0.47017 0.56904,0.5443 1.38567,1.38519 2.42477,2.4243 2.07821,2.07822 4.92357,4.97288 8.11509,8.16443 2.79568,2.77096 6.77891,3.14197 10.26732,2.1276 3.48842,-1.01437 6.77891,-3.26548 9.5251,-6.0117 2.7462,-2.74621 4.97265,-6.06137 5.98701,-9.54981 1.01436,-3.48844 0.61832,-7.47178 -2.17736,-10.24274 L 222.6375,165.09541 a 2.4295196,2.4295362 0 0 0 -1.78112,-0.74222 2.3379796,2.3379956 0 0 0 -0.0638,-0.001 z m -15.86486,4.36634 a 2.4740525,2.4740694 0 0 0 -1.71155,0.73159 2.4740525,2.4740694 0 1 0 3.51345,0 2.4740525,2.4740694 0 0 0 -1.73619,-0.73159 2.4740525,2.4740694 0 0 0 -0.0657,0 z m 5.89374,5.80102 a 2.4740525,2.4740694 0 0 0 -1.79126,0.76928 2.4938449,2.493862 0 0 0 0.0498,3.51347 l 12.91436,12.86516 a 2.5111633,2.5111804 0 0 0 2.42477,0.66781 2.4740525,2.4740694 0 0 0 1.75648,-1.78114 2.5260076,2.5260249 0 0 0 -0.6678,-2.42478 l -12.91485,-12.86516 a 2.4740525,2.4740694 0 0 0 -1.77147,-0.74464 z m -15.83973,4.14455 a 2.4740525,2.4740694 0 0 0 -1.71105,0.73208 2.4740525,2.4740694 0 1 0 3.51296,0 2.4740525,2.4740694 0 0 0 -1.73619,-0.73208 2.4740525,2.4740694 0 0 0 -0.0657,0 z"
         class="st9" />
      <path
         id="path1581"
         style="opacity:0.115652;fill:#3c6eb4;fill-opacity:1;stroke:none;stroke-width:0.264583px;stroke-linecap:butt;stroke-linejoin:miter;stroke-opacity:1"
         d="m 203.10617,169.56839 a 2.4740525,2.4740694 0 0 0 3.58376,3.40444 z m 5.97069,5.67252 a 2.4740525,2.4740694 0 0 0 -0.0465,0.0475 2.4938449,2.4938619 0 0 0 0.0496,3.51349 l 12.91446,12.86484 a 2.5111633,2.5111804 0 0 0 2.42466,0.66818 2.4740525,2.4740694 0 0 0 1.47846,-1.11518 l -0.0992,-0.0925 z m -14.09526,3.42253 a 2.4740525,2.4740694 0 0 0 -1.71101,0.73226 2.4740525,2.4740694 0 1 0 3.51297,0 2.4740525,2.4740694 0 0 0 -1.73633,-0.73226 2.4740525,2.4740694 0 0 0 -0.0656,0 z m 5.73505,5.86889 a 2.4468379,2.4468546 0 0 0 -1.70636,0.72657 2.4938449,2.4938619 0 0 0 -0.71726,2.07843 c 0.0742,0.76696 0.66752,1.33615 1.21181,1.8557 0.1237,0.12371 0.24765,0.24759 0.49506,0.47026 0.56903,0.54429 1.38555,1.38503 2.42466,2.42414 2.0782,2.07822 4.92374,4.97281 8.11526,8.16436 2.79568,2.77096 6.77866,3.14189 10.26708,2.12752 3.48841,-1.01437 6.77932,-3.26531 9.52551,-6.01152 0.17345,-0.17345 0.34454,-0.34922 0.51367,-0.5271 l -3.64577,-3.40393 c -0.13345,0.14076 -0.26883,0.2802 -0.40618,0.41755 -2.27613,2.27614 -5.0472,4.05787 -7.42229,4.75061 -2.37509,0.69274 -4.00742,0.49458 -5.36814,-0.8909 -3.19153,-3.16681 -6.037,-6.06134 -8.09047,-8.13956 l -2.47426,-2.47426 c -0.32163,-0.29689 -0.54415,-0.51935 -0.74208,-0.71727 -0.099,-0.0742 -0.19772,-0.17337 -0.32143,-0.27234 a 2.9688631,2.9688832 0 0 0 -0.37103,-0.24753 1.746681,1.746693 0 0 0 -0.61857,-0.24701 2.4468379,2.4468546 0 0 0 -0.66921,-0.0837 z" />
    </g>
  </g>
</svg>
