<?xml version="1.0" encoding="UTF-8" standalone="no"?>
<!-- Created with Inkscape (http://www.inkscape.org/) -->

<svg
   width="128"
   height="128"
   viewBox="0 0 33.866666 33.866666"
   version="1.1"
   id="svg217891"
   inkscape:version="1.2 (dc2aedaf03, 2022-05-15)"
   sodipodi:docname="kinoite_small_logo_only.svg"
   inkscape:export-filename="kinoite_small_logo_only.png"
   inkscape:export-xdpi="96"
   inkscape:export-ydpi="96"
   xmlns:inkscape="http://www.inkscape.org/namespaces/inkscape"
   xmlns:sodipodi="http://sodipodi.sourceforge.net/DTD/sodipodi-0.dtd"
   xmlns="http://www.w3.org/2000/svg"
   xmlns:svg="http://www.w3.org/2000/svg">
  <sodipodi:namedview
     id="namedview217893"
     pagecolor="#ffffff"
     bordercolor="#000000"
     borderopacity="0.25"
     inkscape:pageshadow="2"
     inkscape:pageopacity="0.0"
     inkscape:pagecheckerboard="0"
     inkscape:blackoutopacity="0.0"
     inkscape:document-units="px"
     showgrid="false"
     inkscape:zoom="4.6150755"
     inkscape:cx="39.002612"
     inkscape:cy="77.030158"
     inkscape:window-width="1920"
     inkscape:window-height="1036"
     inkscape:window-x="0"
     inkscape:window-y="0"
     inkscape:window-maximized="1"
     inkscape:current-layer="g180476"
     inkscape:showpageshadow="2"
     inkscape:deskcolor="#d1d1d1" />
  <defs
     id="defs217888">
    <clipPath
       id="clipPath10667-36"
       clipPathUnits="userSpaceOnUse">
      <path
         sodipodi:nodetypes="ssssssssssssssssss"
         style="fill:#7bcf3e;fill-opacity:1;stroke:none"
         d="m 6926.3942,-16.111198 c -6.0323,-2.2e-5 -10.8899,3.303726 -10.8899,7.4061379 V 27.580368 c 0,4.102412 4.8576,7.401908 10.8899,7.401908 h 108.883 c 6.0324,0 10.8903,-3.299496 10.8903,-7.401908 V -8.7050601 c 0,-4.1024119 -4.8579,-7.4061379 -10.8903,-7.4061379 z m 0,57.153809 c -6.0323,0 -10.8899,3.303748 -10.8899,7.40616 v 7.406138 c 0,4.102412 4.8576,7.401886 10.8899,7.401886 h 108.883 c 6.0324,0 10.8903,-3.299474 10.8903,-7.401886 v -7.406138 c 0,-4.102412 -4.8579,-7.40616 -10.8903,-7.40616 z"
         id="path10669-7"
         inkscape:connector-curvature="0" />
    </clipPath>
    <clipPath
       clipPathUnits="userSpaceOnUse"
       id="clipPath5359">
      <path
         style="fill:#e59728;fill-opacity:1;stroke:none;stroke-width:2.19694"
         d="m -138.68491,1041.3942 c -1.47318,0 -2.66046,0.9093 -2.66046,2.039 v 3.7822 h -6.21915 c -3.67283,0 -6.62844,2.8819 -6.62844,6.4657 v 6.469 c 0,3.5834 2.95561,6.4693 6.62844,6.4693 h 66.299726 c 3.672834,0 6.628434,-2.8861 6.628434,-6.4693 v -6.469 c 0,-3.5836 -2.9556,-6.4657 -6.628434,-6.4657 h -5.74921 v -3.7822 c 0,-1.1297 -1.187259,-2.039 -2.660465,-2.039 h -12.142761 c -1.47322,0 -2.66041,0.9093 -2.66041,2.039 v 3.7822 h -19.40409 v -3.7822 c 0,-1.1297 -1.1872,-2.039 -2.66051,-2.039 z m 0,29.1063 c -1.47318,0 -2.66046,0.9093 -2.66046,2.039 v 3.7822 h -6.21915 c -3.67283,0 -6.62844,2.8817 -6.62844,6.4654 v 6.4693 c 0,3.5836 2.95561,6.4693 6.62844,6.4693 h 66.299726 c 3.672834,0 6.628434,-2.8861 6.628434,-6.4693 v -6.4693 c 0,-3.5833 -2.9556,-6.4654 -6.628434,-6.4654 h -5.74921 v -3.7822 c 0,-1.1297 -1.187259,-2.039 -2.660465,-2.039 h -12.142761 c -1.47322,0 -2.66041,0.9093 -2.66041,2.039 v 3.7822 h -19.40409 v -3.7822 c 0,-1.1297 -1.1872,-2.039 -2.66051,-2.039 z m 0,29.1061 c -1.47318,0 -2.66046,0.909 -2.66046,2.0389 v 3.7823 h -6.95438 c -3.67283,0 -6.62843,2.8821 -6.62843,6.4654 v 6.4693 c 0,3.5835 2.9556,6.4693 6.62843,6.4693 h 66.299656 c 3.672909,0 6.628518,-2.8862 6.628518,-6.4693 v -6.4693 c 0,-3.5832 -2.955609,-6.4654 -6.628518,-6.4654 h -5.01391 v -3.7823 c 0,-1.1299 -1.187259,-2.0389 -2.660465,-2.0389 h -12.142761 c -1.47322,0 -2.66041,0.909 -2.66041,2.0389 v 3.7823 h -19.40409 v -3.7823 c 0,-1.1299 -1.1872,-2.0389 -2.66051,-2.0389 z"
         id="path5361"
         inkscape:connector-curvature="0"
         clip-path="none"
         sodipodi:nodetypes="sscsssssssscssssccssssscsssssssscssssccssssscsssssssscssssccsss" />
    </clipPath>
    <clipPath
       id="clipPath730907-6"
       clipPathUnits="userSpaceOnUse">
      <rect
         transform="matrix(0.8512957,-0.52468622,0.42635355,0.9045566,0,0)"
         ry="2.6821809"
         rx="2.1497016"
         y="309.97757"
         x="-523.25262"
         height="66.828056"
         width="108.03775"
         id="rect730909-7"
         style="fill:#ffffff;fill-opacity:1;stroke:none;stroke-width:4.70222;stroke-linecap:round;stroke-linejoin:round;stroke-dashoffset:6" />
    </clipPath>
    <clipPath
       id="clipPath216976"
       clipPathUnits="userSpaceOnUse">
      <rect
         transform="matrix(0.8512957,-0.52468622,0.42635355,0.9045566,0,0)"
         ry="2.6821809"
         rx="2.1497016"
         y="309.97757"
         x="-523.25262"
         height="66.828056"
         width="108.03775"
         id="rect216974"
         style="fill:#ffffff;fill-opacity:1;stroke:none;stroke-width:4.70222;stroke-linecap:round;stroke-linejoin:round;stroke-dashoffset:6" />
    </clipPath>
    <clipPath
       clipPathUnits="userSpaceOnUse"
       id="clipPath26179">
      <path
         inkscape:connector-curvature="0"
         style="opacity:1;fill:#ffffff;fill-opacity:1;stroke:none;stroke-width:7.91055;stroke-miterlimit:4;stroke-dasharray:none;stroke-dashoffset:0;stroke-opacity:1;paint-order:normal"
         d="m 7473.123,4.3457812 c -4.028,-2.9684208 -9.2784,-2.6369058 -11.7708,0.745213 l -4.4986,6.1043488 c -2.4923,3.381816 -1.2545,8.495266 2.7735,11.463586 l 11.6151,8.559874 c 4.0277,2.968262 9.2767,2.635186 11.7689,-0.74663 l 4.4986,-6.104349 c 2.4925,-3.382119 1.2562,-8.494008 -2.7716,-11.462269 z m 30.5445,22.5097588 c -4.028,-2.968412 -9.2784,-2.636897 -11.7709,0.745222 l -4.4986,6.104349 c -2.4924,3.381656 -1.2545,8.495265 2.7735,11.463686 l 11.6151,8.559774 c 4.0279,2.96816 9.2767,2.635185 11.769,-0.746631 l 4.4986,-6.104349 c 2.4924,-3.382118 1.2562,-8.494007 -2.7716,-11.462269 z m 30.5444,22.509776 c -4.0279,-2.968421 -9.2784,-2.636906 -11.7708,0.745213 l -4.4986,6.104349 c -2.4923,3.381816 -1.2545,8.495266 2.7735,11.463687 l 11.6151,8.559672 c 4.0277,2.968363 9.2767,2.635287 11.7689,-0.746538 l 4.4986,-6.10434 c 2.4925,-3.382119 1.2562,-8.494008 -2.7716,-11.462269 z m -78.4478,-21.460494 c -4.028,-2.968412 -9.2803,-2.638314 -11.7728,0.743804 l -4.4986,6.104349 c -2.4925,3.381758 -1.2524,8.496583 2.7755,11.465003 l 11.6132,8.558356 c 4.0278,2.968262 9.2765,2.635489 11.7689,-0.746538 l 4.4986,-6.10434 c 2.4924,-3.382119 1.2562,-8.494008 -2.7716,-11.462269 z m 30.5445,22.509768 c -4.0279,-2.968359 -9.2803,-2.638315 -11.7728,0.743804 l -4.4986,6.104349 c -2.4924,3.382017 -1.2525,8.496582 2.7754,11.465095 l 11.6133,8.558264 c 4.0277,2.968362 9.2764,2.635479 11.7688,-0.74653 l 4.4986,-6.104349 c 2.4925,-3.382118 1.2562,-8.494007 -2.7715,-11.462269 z m 30.5425,22.50835 c -4.028,-2.968412 -9.2784,-2.636906 -11.7709,0.745221 l -4.4986,6.104349 c -2.4923,3.382018 -1.2544,8.495165 2.7735,11.463687 l 11.6152,8.559672 c 4.0278,2.968261 9.2765,2.635491 11.7689,-0.746529 l 4.4986,-6.104358 c 2.4924,-3.38211 1.2562,-8.493999 -2.7716,-11.46226 z m -78.451,-21.460178 c -4.0277,-2.968262 -9.2765,-2.635388 -11.7688,0.746529 l -4.4987,6.10445 c -2.4923,3.381917 -1.2562,8.493999 2.7716,11.462159 l 11.6151,8.559884 c 4.0277,2.968261 9.2786,2.636757 11.7708,-0.745213 l 4.4987,-6.10445 c 2.4923,-3.381917 1.2542,-8.495324 -2.7736,-11.463586 z m 30.5445,22.509758 c -4.0278,-2.968252 -9.2766,-2.635378 -11.7689,0.746539 l -4.4987,6.10445 c -2.4923,3.381916 -1.2562,8.494007 2.7716,11.462269 l 11.6151,8.559772 c 4.028,2.96842 9.2786,2.6367 11.7709,-0.74521 l 4.4986,-6.104452 c 2.4924,-3.381917 1.2545,-8.495164 -2.7735,-11.463585 z m 30.5444,22.509768 c -4.0278,-2.968262 -9.2765,-2.635379 -11.7688,0.746538 l -4.4987,6.104454 c -2.4923,3.3819 -1.2561,8.49389 2.7715,11.46226 l 11.6152,8.55978 c 4.028,2.96831 9.2785,2.6367 11.7709,-0.74517 l 4.4986,-6.10449 c 2.4924,-3.38187 1.2544,-8.49518 -2.7736,-11.46359 z"
         id="path26181" />
    </clipPath>
  </defs>
  <g
     inkscape:label="Layer 1"
     inkscape:groupmode="layer"
     id="layer1"
     transform="translate(238.50027,74.138828)">
    <g
       id="g180476"
       transform="matrix(0.26458333,0,0,0.26458333,-981.59144,-1720.4207)">
      <g
         id="g703"
         transform="matrix(0.3869845,0,0,0.3869845,1684.3042,3788.6824)">
        <path
           id="path180472"
           style="fill:#4ba1cb;fill-opacity:1;stroke:none;stroke-width:1.65113"
           d="m 2951.7617,6301.1016 c -13.2805,0 -23.9746,11.1892 -23.9746,25.0839 v 250.795 c 0,13.8944 10.6941,25.082 23.9746,25.082 h 23.9766 c 13.2808,0 23.9609,-11.1876 23.9609,-25.082 v -122.6563 c -0.2047,-0.8552 -0.365,-1.7322 -0.4648,-2.6328 -0.033,-0.3045 -0.04,-0.4752 -0.043,-0.5273 l -0.012,0.4082 c 0.012,-0.3662 0.01,-0.4674 0.012,-0.4082 l 0.01,-0.1661 -0.029,-0.5742 c -0.1053,-2.0508 0.082,-4.0454 0.5312,-5.9414 v -118.2969 c 0,-13.8947 -10.6801,-25.0839 -23.9609,-25.0839 z" />
        <path
           id="path180474"
           style="fill:#3c6eb4;fill-opacity:0.988235;stroke:none;stroke-width:26.4322;stroke-miterlimit:4;stroke-dasharray:none;stroke-opacity:1"
           d="m 3113.5762,6298.6641 c -30.2454,0 -50.0663,16.4643 -57.752,45.7441 l -16.0254,61.0606 c -6.288,-2.8956 -13.2302,-4.5102 -20.455,-4.4532 -1.6277,0.013 -3.2682,0.1084 -4.918,0.291 -25.2996,2.8012 -44.0369,24.9525 -43.0098,50.0528 0.01,1.527 0.1128,2.8227 0.1758,3.3886 2.9206,26.3764 27.0304,45.6341 53.4394,42.7344 0.5752,-0.061 1.7682,-0.2655 2.9571,-0.4961 l -0.035,0.053 c 0.1501,-0.02 0.282,-0.088 0.4297,-0.1153 0.2716,-0.058 0.3289,-0.025 0.6289,-0.1054 l 1.7988,-0.4532 52.9278,52.1192 c -1.4171,5.4677 -1.8965,11.2646 -1.2403,17.1914 2.9254,26.4203 27.0442,45.708 53.4415,42.7851 25.3033,-2.8019 44.044,-24.961 43.0097,-50.0664 -0.01,-1.5163 -0.1128,-2.8101 -0.1758,-3.3769 -2.739,-24.7331 -24.11,-43.2053 -48.5371,-43.0196 -1.6284,0.012 -3.2708,0.1072 -4.9218,0.2891 -0.5733,0.061 -1.7536,0.2626 -2.9317,0.4902 l 0.027,-0.049 c -0.15,0.02 -0.2801,0.088 -0.4278,0.1153 -0.2718,0.058 -0.3287,0.023 -0.6289,0.1035 l -1.9453,0.4902 -52.8437,-52.0371 c 1.4528,-5.4982 1.9646,-11.3322 1.3027,-17.3106 0,-0.026 -0.01,-0.052 -0.012,-0.078 h 61.4297 c 21.3167,0 47.0589,-5.0059 57.7519,-45.7441 l 26.1426,-99.6035 z m -93.9571,130.1582 c 0.8908,-0.011 1.7679,0.039 2.6309,0.1367 0.06,0.01 0.1198,0.014 0.1797,0.021 0.8535,0.1042 1.691,0.2579 2.5098,0.4629 0.027,0.01 0.053,0.015 0.08,0.021 1.6926,0.4311 3.3024,1.0729 4.7989,1.8985 1.3914,0.7677 2.6833,1.6965 3.8535,2.7637 0.01,0.01 0.021,0.016 0.031,0.025 0,0 0,0.01 0.01,0.01 0.5304,0.4861 1.0287,1.0088 1.5058,1.5507 0.1105,0.1256 0.2168,0.2544 0.3243,0.3829 0.4261,0.509 0.8325,1.0355 1.2089,1.5878 0.034,0.051 0.073,0.097 0.1075,0.1485 0.3996,0.598 0.7621,1.2247 1.0996,1.8691 0.082,0.1573 0.1598,0.3186 0.2383,0.4785 0.2847,0.5801 0.5455,1.176 0.7773,1.7891 0.035,0.092 0.076,0.1792 0.1094,0.2715 0.5598,1.5465 0.9516,3.1897 1.1426,4.914 1.0683,9.6493 -4.4852,18.2133 -13.0899,21.4336 v -0.01 c -1.2303,0.4559 -2.5218,0.8056 -3.8652,1.0351 l -1.2266,0.211 h -0.01 l -0.017,0.01 c -9.8233,1.0876 -18.5124,-4.5571 -21.6582,-13.3066 -0.015,-0.042 -0.028,-0.085 -0.043,-0.127 -0.2484,-0.705 -0.4625,-1.4288 -0.6367,-2.1718 -0.012,-0.05 -0.024,-0.1001 -0.035,-0.1504 -0.1765,-0.778 -0.3159,-1.5738 -0.4062,-2.3887 -0.033,-0.3045 -0.04,-0.4752 -0.043,-0.5273 l 0.01,-0.1661 -0.029,-0.5742 c -0.035,-0.6817 -0.038,-1.3575 -0.01,-2.0254 0.029,-0.6678 0.09,-1.3278 0.1797,-1.9785 0.09,-0.6507 0.2087,-1.2914 0.3574,-1.9219 0.1487,-0.6304 0.3261,-1.2504 0.5313,-1.8574 0.2051,-0.6069 0.438,-1.2009 0.6972,-1.7812 0.5183,-1.1602 1.1433,-2.2643 1.8633,-3.2989 0,0 0,0 0,0 0.3602,-0.5175 0.7452,-1.0168 1.1524,-1.4981 0.4071,-0.4812 0.8374,-0.9428 1.289,-1.3847 0.4517,-0.4419 0.9242,-0.8644 1.418,-1.2637 0.9875,-0.7987 2.0574,-1.5079 3.1992,-2.1172 0.5709,-0.3046 1.1598,-0.5853 1.7656,-0.8379 1.2118,-0.5051 2.4908,-0.9021 3.8282,-1.1797 0.6686,-0.1387 1.3523,-0.2471 2.0488,-0.3242 0.7168,-0.079 1.4273,-0.1224 2.1308,-0.1308 z m 110.7989,111.0039 c 0.6675,-5e-4 1.3429,0.029 2.0215,0.092 l 1.2382,0.1152 h 0.01 0.021 c 0.7984,0.122 1.5733,0.2957 2.332,0.4981 0.2336,0.062 0.4579,0.1413 0.6875,0.2109 0.5265,0.1597 1.0462,0.3305 1.5508,0.5274 0.25,0.097 0.4939,0.2043 0.7383,0.3105 0.469,0.2041 0.9275,0.4229 1.375,0.6582 0.2283,0.12 0.4572,0.2395 0.6797,0.3672 0.4698,0.2701 0.9223,0.5615 1.3652,0.8653 0.1742,0.1192 0.3555,0.2293 0.5254,0.3535 0.6015,0.4402 1.1815,0.9051 1.7266,1.4043 0.5528,0.5063 1.0695,1.0478 1.5605,1.6093 0.108,0.1235 0.2057,0.255 0.3105,0.3809 0.3644,0.4378 0.7133,0.8869 1.0391,1.3535 0.1307,0.1872 0.2546,0.3788 0.3789,0.5703 0.2827,0.4357 0.5482,0.8829 0.7969,1.3399 2.0678,3.8006 2.953,8.2932 2.2383,12.9746 -0.046,0.2982 -0.077,0.4447 -0.09,0.5058 l -0.055,0.1778 -0.1191,0.5605 c -2.2821,10.6801 -12.1709,17.6922 -23.2539,16 -2.8048,-0.4283 -5.3738,-1.3798 -7.6348,-2.7324 -0.1555,-0.093 -0.3045,-0.1942 -0.457,-0.291 -0.377,-0.2394 -0.7473,-0.4881 -1.1055,-0.75 -0.1627,-0.119 -0.3217,-0.2417 -0.4804,-0.3653 -0.3317,-0.258 -0.6532,-0.5258 -0.9668,-0.8027 -0.1501,-0.1325 -0.3015,-0.2637 -0.4473,-0.4004 -0.334,-0.3131 -0.6537,-0.6405 -0.9648,-0.9746 -0.1058,-0.1135 -0.2173,-0.222 -0.3204,-0.3379 -0.3901,-0.4387 -0.7613,-0.8928 -1.1113,-1.3633 -0.1143,-0.1535 -0.2163,-0.3158 -0.3262,-0.4726 -0.2368,-0.3381 -0.4677,-0.6809 -0.6836,-1.0332 -0.1168,-0.1907 -0.2273,-0.3854 -0.3378,-0.5801 -0.1934,-0.3406 -0.3772,-0.6869 -0.5508,-1.0391 -0.1008,-0.2044 -0.2009,-0.409 -0.2949,-0.6171 -0.1672,-0.3702 -0.3197,-0.7479 -0.4649,-1.129 -0.071,-0.1865 -0.1492,-0.3695 -0.2148,-0.5585 -0.1986,-0.5716 -0.3756,-1.1519 -0.5235,-1.7442 -0.02,-0.079 -0.032,-0.1608 -0.051,-0.2402 -0.1228,-0.5186 -0.2258,-1.0441 -0.3085,-1.5762 -0.032,-0.2029 -0.053,-0.4086 -0.078,-0.6133 -0.053,-0.4219 -0.094,-0.8465 -0.1211,-1.2754 -0.014,-0.2231 -0.024,-0.447 -0.031,-0.6718 -0.013,-0.4415 -0.011,-0.8868 0,-1.334 0.01,-0.2037 0.01,-0.4066 0.019,-0.6114 0.04,-0.6461 0.1012,-1.2962 0.2012,-1.9511 1.4654,-9.5971 9.0459,-16.4309 18.1914,-17.3145 v 0 c 0.6533,-0.061 1.3129,-0.091 1.9805,-0.092 z" />
      </g>
    </g>
  </g>
</svg>
