<svg xmlns="http://www.w3.org/2000/svg" xmlns:xlink="http://www.w3.org/1999/xlink" width="128" height="128" version="1.0"><defs><linearGradient id="h"><stop offset="0" stop-color="#294172"/><stop offset=".024" stop-color="#9fb9df"/><stop offset=".082" stop-color="#294172"/><stop offset=".752" stop-color="#1f375b"/><stop offset=".908" stop-color="#3c6eb4"/><stop offset="1" stop-color="#294172"/></linearGradient><linearGradient id="e"><stop offset="0" stop-color="#6a6966"/><stop offset=".471" stop-color="#a09f9d"/><stop offset="1" stop-color="#a2a09e"/></linearGradient><linearGradient id="d"><stop offset="0" stop-color="#c0bfbc"/><stop offset=".028" stop-color="#dedddc"/><stop offset=".075" stop-color="#bdbdb9"/><stop offset=".655" stop-color="#c4c3c0"/><stop offset=".939" stop-color="#b8b7b3"/><stop offset="1" stop-color="#9f9d99"/></linearGradient><linearGradient id="f"><stop offset="0" stop-color="#f6f5f4"/><stop offset="1" stop-color="#cbc6c0"/></linearGradient><linearGradient id="g"><stop offset="0" stop-color="#1657a7"/><stop offset=".024" stop-color="#5799e8" stop-opacity=".996"/><stop offset=".082" stop-color="#1c63b7" stop-opacity=".996"/><stop offset=".853" stop-color="#1d74dc" stop-opacity=".961"/><stop offset="1" stop-color="#134c92" stop-opacity=".957"/></linearGradient><linearGradient id="a"><stop offset="0" stop-color="#d5d3cf"/><stop offset="1" stop-color="#f6f5f4"/></linearGradient><linearGradient id="b"><stop offset="0" stop-color="#d5d3cf"/><stop offset="1" stop-color="#949390"/></linearGradient><linearGradient id="c"><stop offset="0" stop-color="#9a9996"/><stop offset="1" stop-color="#77767b"/></linearGradient><linearGradient xlink:href="#d" id="j" x1="26" y1="281" x2="66.088" y2="281" gradientUnits="userSpaceOnUse"/><linearGradient xlink:href="#e" id="l" x1="27" y1="291.5" x2="65" y2="291.5" gradientUnits="userSpaceOnUse" gradientTransform="translate(0 -4)"/><linearGradient xlink:href="#f" id="k" x1="40.279" y1="287.079" x2="46.643" y2="304.634" gradientUnits="userSpaceOnUse" gradientTransform="translate(0 -4)"/><linearGradient xlink:href="#h" id="i" gradientUnits="userSpaceOnUse" gradientTransform="translate(-347)" x1="366.5" y1="228.099" x2="454.129" y2="228.099"/></defs><g transform="translate(0 -172)"><path d="M64 178.197c-24.3 0-44 19.656-44 43.903.008.633.03 1.267.066 1.9H20v38h.016A10.43 10.43 0 0 0 30 271.979V272h34c24.3 0 44-17.358 44-49.9 0-24.247-19.7-43.903-44-43.903z" style="marker:none;font-variant-east_asian:normal" fill="url(#i)"/><rect style="marker:none" width="40.088" height="25.207" x="26" y="266" rx="3.977" ry="3.977" fill="url(#j)"/><rect style="marker:none" width="40" height="8.842" x="26" y="283.079" rx="4.421" ry="4.421" fill="url(#k)"/><rect ry="3.5" rx="3.5" y="284" x="27" height="7" width="38" style="marker:none" fill="url(#l)"/><path style="marker:none" d="M29.977 266A3.967 3.967 0 0 0 26 269.977v2A3.967 3.967 0 0 1 29.977 268H62.11a3.967 3.967 0 0 1 3.977 3.977v-2A3.967 3.967 0 0 0 62.11 266H29.977z" fill-opacity=".177"/><g stroke-width="5.186"><path d="M107.404 220.11c0-24.23-19.642-43.873-43.872-43.873-24.219 0-43.853 19.627-43.87 43.842l-.002-.001v33.95l.002.001c.013 5.498 4.472 9.95 9.974 9.95l.047-.002.003.002H63.55c24.221-.01 43.854-19.646 43.854-43.87z" fill="#294172"/><path d="M71.985 196.344c-8.554 0-15.488 6.934-15.488 15.488v8.209h-8.175c-8.555 0-15.488 6.9-15.488 15.454s6.933 15.488 15.488 15.488c8.553 0 15.488-6.935 15.488-15.488v-8.243h8.175c8.553 0 15.488-6.866 15.488-15.42s-6.935-15.488-15.488-15.488zm-15.488 39.164a8.176 8.176 0 0 1-8.175 8.162c-4.514 0-8.208-3.66-8.208-8.175 0-4.515 3.694-8.243 8.208-8.243h7.021c.637 0 1.154.515 1.154 1.153v.003zm15.487-15.467H64.967h-.002a1.154 1.154 0 0 1-1.155-1.154V211.819a8.175 8.175 0 0 1 8.174-8.162c4.516 0 8.21 3.66 8.21 8.175 0 4.515-3.694 8.209-8.21 8.209z" fill="#3c6eb4" stroke-width="6.894"/><path d="M56.497 220.04v-8.197-.01c0-8.555 6.934-15.49 15.488-15.49 1.298 0 2.22.146 3.422.461 1.751.46 3.182 1.894 3.183 3.565 0 2.02-1.466 3.487-3.656 3.487-1.044 0-1.421-.2-2.95-.2a8.175 8.175 0 0 0-8.174 8.163V218.887c0 .638.516 1.154 1.155 1.154h5.371c2 0 3.615 1.601 3.617 3.607a3.599 3.599 0 0 1-3.617 3.604H63.81v8.243c0 8.554-6.934 15.489-15.488 15.489-1.297 0-2.22-.147-3.421-.46-1.752-.46-3.183-1.895-3.184-3.566 0-2.019 1.466-3.488 3.657-3.488 1.042 0 1.42.2 2.948.2a8.176 8.176 0 0 0 8.175-8.161v-7.104c0-.636-.517-1.152-1.154-1.152h-.004l-5.367-.001c-2 0-3.617-1.596-3.617-3.603-.002-2.019 1.633-3.608 3.655-3.608h6.487z" fill="#fff"/></g></g></svg>