<?xml version="1.0" encoding="UTF-8" standalone="no"?>
<!-- Created with Inkscape (http://www.inkscape.org/) -->

<svg
   xmlns:dc="http://purl.org/dc/elements/1.1/"
   xmlns:cc="http://creativecommons.org/ns#"
   xmlns:rdf="http://www.w3.org/1999/02/22-rdf-syntax-ns#"
   xmlns:svg="http://www.w3.org/2000/svg"
   xmlns="http://www.w3.org/2000/svg"
   xmlns:xlink="http://www.w3.org/1999/xlink"
   xmlns:sodipodi="http://sodipodi.sourceforge.net/DTD/sodipodi-0.dtd"
   xmlns:inkscape="http://www.inkscape.org/namespaces/inkscape"
   width="256"
   height="256"
   viewBox="0 0 256 256"
   id="svg5091"
   version="1.1"
   inkscape:version="0.91 r13725"
   sodipodi:docname="games_icon_grey_pattern.svg"
   inkscape:export-xdpi="90"
   inkscape:export-ydpi="90">
  <defs
     id="defs5093">
    <clipPath
       clipPathUnits="userSpaceOnUse"
       id="clipPath6742">
      <circle
         cy="924.36218"
         cx="128"
         id="circle6744"
         style="opacity:1;fill:none;fill-opacity:1;stroke:#000000;stroke-width:4;stroke-linecap:round;stroke-linejoin:round;stroke-miterlimit:4;stroke-dasharray:none;stroke-opacity:1"
         r="127" />
    </clipPath>
  </defs>
  <sodipodi:namedview
     id="base"
     pagecolor="#ffffff"
     bordercolor="#666666"
     borderopacity="1.0"
     inkscape:pageopacity="0.0"
     inkscape:pageshadow="2"
     inkscape:zoom="1.6129462"
     inkscape:cx="-150.80034"
     inkscape:cy="112.12127"
     inkscape:document-units="px"
     inkscape:current-layer="layer1"
     showgrid="false"
     units="px"
     inkscape:window-width="1920"
     inkscape:window-height="1016"
     inkscape:window-x="0"
     inkscape:window-y="27"
     inkscape:window-maximized="1" />
  <metadata
     id="metadata5096">
    <rdf:RDF>
      <cc:Work
         rdf:about="">
        <dc:format>image/svg+xml</dc:format>
        <dc:type
           rdf:resource="http://purl.org/dc/dcmitype/StillImage" />
        <dc:title />
      </cc:Work>
    </rdf:RDF>
  </metadata>
  <g
     inkscape:label="Layer 1"
     inkscape:groupmode="layer"
     id="layer1"
     transform="translate(0,-796.36216)">
    <image
       sodipodi:absref="gray_contrast.png"
       xlink:href="/home/mleonova/Pictures/fedora/360/bckgrd/gray_contrast.png"
       clip-path="url(#clipPath6742)"
       width="1177"
       height="773"
       preserveAspectRatio="none"
       id="image6739"
       x="-321.9071"
       y="611.30359" />
    <path
       inkscape:connector-curvature="0"
       style="fill:#ffffff;fill-opacity:1;fill-rule:evenodd;stroke:none;stroke-width:2.85765553;stroke-linecap:round;stroke-linejoin:round;stroke-miterlimit:4;stroke-dasharray:none;stroke-opacity:1"
       d="m 142.77803,798.61611 c 7.65961,37.68618 -25.59814,66.96422 -25.59814,66.96422 -0.43603,0.33354 -0.77934,0.69644 -1.07959,1.06969 -5.31266,0.32825 -11.25249,0.79177 -18.407486,1.46091 -18.391897,1.72001 -30.834218,8.34192 -39.350522,16.83763 -8.516306,8.4957 -13.119064,18.66789 -16.748486,27.30171 -3.670995,8.73286 -9.45453,24.38465 -11.825955,40.15774 -1.185714,7.88654 -1.53462,15.81403 -0.183244,23.03288 1.351397,7.21886 4.516801,13.85182 10.374949,18.34311 3.460418,2.65296 7.794339,3.29417 11.994333,2.77326 4.199992,-0.52092 8.461993,-2.11206 12.692598,-4.21932 8.461211,-4.21451 16.825458,-10.57838 22.993263,-15.75803 11.705618,-9.83042 19.50414,-16.33512 29.13405,-17.05553 a 3.6232241,3.6232241 0 0 0 0.005,-0.005 c -0.21253,0.0165 0.7928,-0.0389 1.84223,-0.0842 1.04944,-0.0453 2.40261,-0.10061 3.75875,-0.15847 1.35616,-0.0579 2.71269,-0.11887 3.78352,-0.16839 0.89277,-0.0413 1.29192,-0.0545 1.86204,-0.104 1.4051,0.1447 4.53566,0.32114 10.88503,0.51998 4.94145,0.36968 8.79917,1.79701 13.29182,4.57092 4.49265,2.77391 9.52657,6.94837 16.16412,12.48956 6.17597,5.15575 14.54236,11.5247 22.99822,15.74318 4.22793,2.10924 8.48463,3.70001 12.68269,4.22426 4.19806,0.52425 8.5286,-0.11506 11.98937,-2.7683 5.85816,-4.49129 9.02851,-11.12426 10.3799,-18.34311 1.3514,-7.21885 1.00256,-15.14634 -0.18332,-23.03288 -2.37139,-15.77295 -8.15511,-31.42479 -11.82597,-40.15761 -3.62941,-8.63372 -8.23711,-18.80602 -16.75343,-27.30171 -8.51633,-8.4957 -20.95875,-15.11762 -39.35052,-16.83763 -10.90794,-1.0201 -19.11784,-1.59424 -26.2568,-1.85709 10.58193,-11.60578 27.08926,-35.34337 21.17084,-66.06292 a 127,126.69455 0 0 0 -10.43933,-1.57481 z m 29.55004,98.69324 c 6.0366,0 11.01379,4.96272 11.01379,10.99893 0,2.52389 -0.90335,4.83121 -2.35727,6.69544 1.8702,-1.4565 4.18584,-2.36222 6.71524,-2.36222 6.0366,0 11.01379,4.96272 11.01379,10.99893 0,6.03621 -4.97719,10.99893 -11.01379,10.99893 -2.5294,0 -4.84504,-0.90572 -6.71524,-2.36222 1.45391,1.86423 2.35727,4.17155 2.35727,6.69543 0,6.03622 -4.97719,10.99894 -11.01379,10.99894 -6.0366,0 -11.01874,-4.96272 -11.01874,-10.99894 0,-2.52179 0.90452,-4.82701 2.35726,-6.69047 -1.86928,1.45392 -4.18336,2.35726 -6.71028,2.35726 -6.0366,0 -11.01379,-4.96272 -11.01379,-10.99893 0,-6.03621 4.97719,-10.99893 11.01379,-10.99893 2.52692,0 4.841,0.90334 6.71028,2.35727 -1.45274,-1.86347 -2.35726,-4.16869 -2.35726,-6.69049 0,-6.03621 4.98214,-10.99893 11.01874,-10.99893 z m -8.66148,17.68942 c 0.56897,0.72983 1.22052,1.38287 1.95119,1.95118 -0.56897,-0.72983 -1.22051,-1.38287 -1.95119,-1.95118 z m 1.95119,1.95118 c 1.45274,1.86347 2.35727,4.16869 2.35727,6.69048 0,2.52179 -0.90453,4.82701 -2.35727,6.69048 1.86929,-1.45392 4.18337,-2.35727 6.71029,-2.35727 2.53325,0 4.84961,0.90668 6.72019,2.36717 -1.4579,-1.86527 -2.36717,-4.17362 -2.36717,-6.70038 0,-2.52676 0.90927,-4.83511 2.36717,-6.70039 -1.87058,1.4605 -4.18694,2.36718 -6.72019,2.36718 -2.52692,0 -4.841,-0.90335 -6.71029,-2.35727 z m 13.43048,-0.01 c 0.72313,-0.5646 1.37223,-1.21303 1.93633,-1.93633 -0.7248,0.56447 -1.37076,1.21273 -1.93633,1.93633 z m 0,13.40077 c 0.56557,0.7236 1.21153,1.37186 1.93633,1.93633 -0.5641,-0.7233 -1.2132,-1.37173 -1.93633,-1.93633 z m -13.43048,-0.01 c -0.73067,0.56831 -1.38222,1.22136 -1.95119,1.95119 0.73068,-0.56832 1.38222,-1.22136 1.95119,-1.95119 z m -86.386927,-30.51575 5.937739,0 c 3.711549,0 6.814287,3.10274 6.814287,6.81429 l 0,7.23027 7.230273,0 c 3.711548,0 6.814288,3.10274 6.814288,6.81429 l 0,5.93773 c 0,3.71156 -3.10273,6.80934 -6.814288,6.80934 l -7.230273,0 0,7.22532 c 0,3.71155 -3.102738,6.81429 -6.814287,6.81429 l -5.937739,0 c -3.711549,0 -6.809335,-3.10273 -6.809335,-6.81429 l 0,-7.22532 -7.225321,0 c -3.711554,0 -6.814287,-3.09778 -6.814287,-6.80934 l 0,-5.93773 c 0,-3.71155 3.102736,-6.81429 6.814287,-6.81429 l 7.225321,0 0,-7.23027 c 0,-3.71156 3.097786,-6.81429 6.809335,-6.81429 z m 93.097217,4.7393 c -2.12967,0 -3.76866,1.64338 -3.76866,3.75379 0,2.11043 1.63899,3.75381 3.76866,3.75381 2.12967,0 3.76866,-1.64338 3.76866,-3.75381 0,-2.11041 -1.63899,-3.75379 -3.76866,-3.75379 z m -15.37176,15.33709 c -2.12967,0 -3.76866,1.63843 -3.76866,3.74885 0,2.11042 1.63899,3.7538 3.76866,3.7538 2.12966,0 3.76865,-1.64338 3.76865,-3.7538 0,-2.11042 -1.63899,-3.74885 -3.76865,-3.74885 z m 30.74352,0 c -2.12967,0 -3.77361,1.63843 -3.77361,3.74885 0,2.11042 1.64394,3.7538 3.77361,3.7538 2.12967,0 3.76866,-1.64338 3.76866,-3.7538 0,-2.11042 -1.63899,-3.74885 -3.76866,-3.74885 z m -15.37176,15.33215 c -2.12967,0 -3.76866,1.63843 -3.76866,3.74884 0,2.11042 1.63899,3.7538 3.76866,3.7538 2.12967,0 3.76866,-1.64338 3.76866,-3.7538 0,-2.11041 -1.63899,-3.74884 -3.76866,-3.74884 z"
       id="path4491" />
  </g>
</svg>
