<?xml version="1.0" encoding="UTF-8" standalone="no"?>
<!-- Created with Inkscape (http://www.inkscape.org/) -->

<svg
   xmlns:dc="http://purl.org/dc/elements/1.1/"
   xmlns:cc="http://creativecommons.org/ns#"
   xmlns:rdf="http://www.w3.org/1999/02/22-rdf-syntax-ns#"
   xmlns:svg="http://www.w3.org/2000/svg"
   xmlns="http://www.w3.org/2000/svg"
   xmlns:xlink="http://www.w3.org/1999/xlink"
   xmlns:sodipodi="http://sodipodi.sourceforge.net/DTD/sodipodi-0.dtd"
   xmlns:inkscape="http://www.inkscape.org/namespaces/inkscape"
   width="256"
   height="256"
   viewBox="0 0 256 256"
   id="svg5091"
   version="1.1"
   inkscape:version="0.91 r13725"
   sodipodi:docname="kde_icon_grey_pattern.svg"
   inkscape:export-xdpi="90"
   inkscape:export-ydpi="90">
  <defs
     id="defs5093">
    <clipPath
       clipPathUnits="userSpaceOnUse"
       id="clipPath6742">
      <circle
         cy="924.36218"
         cx="128"
         id="circle6744"
         style="opacity:1;fill:none;fill-opacity:1;stroke:#000000;stroke-width:4;stroke-linecap:round;stroke-linejoin:round;stroke-miterlimit:4;stroke-dasharray:none;stroke-opacity:1"
         r="127" />
    </clipPath>
  </defs>
  <sodipodi:namedview
     id="base"
     pagecolor="#ffffff"
     bordercolor="#666666"
     borderopacity="1.0"
     inkscape:pageopacity="0.0"
     inkscape:pageshadow="2"
     inkscape:zoom="1.6129462"
     inkscape:cx="3.2655502"
     inkscape:cy="113.36124"
     inkscape:document-units="px"
     inkscape:current-layer="layer1"
     showgrid="false"
     units="px"
     inkscape:window-width="1920"
     inkscape:window-height="1016"
     inkscape:window-x="0"
     inkscape:window-y="27"
     inkscape:window-maximized="1" />
  <metadata
     id="metadata5096">
    <rdf:RDF>
      <cc:Work
         rdf:about="">
        <dc:format>image/svg+xml</dc:format>
        <dc:type
           rdf:resource="http://purl.org/dc/dcmitype/StillImage" />
        <dc:title></dc:title>
      </cc:Work>
    </rdf:RDF>
  </metadata>
  <g
     inkscape:label="Layer 1"
     inkscape:groupmode="layer"
     id="layer1"
     transform="translate(0,-796.36216)">
    <image
       sodipodi:absref="gray_contrast.png"
       y="611.30359"
       x="-321.9071"
       id="image6739"
       xlink:href="gray_contrast.png"
       preserveAspectRatio="none"
       height="773"
       width="1177"
       clip-path="url(#clipPath6742)" />
    <g
       id="g4528"
       transform="matrix(3.1875463,0,0,3.1875463,-252.22137,1207.6257)">
      <polygon
         transform="matrix(0.29158921,0,0,0.29158921,86.258499,-121.12642)"
         id="path5692_2_"
         style="fill:#ffffff"
         points="95.64209,148.22705 95.64209,148.22705 95.64209,30.5293 124.22656,27.79297 123.92383,79.49414 161.63672,29.01074 192.04688,36.00293 152.81445,86.48779 191.74219,140.01514 161.93945,149.44482 123.92383,93.78662 123.92383,143.96826 " />
      <path
         id="path79"
         style="fill:#ffffff"
         d="m 134.02674,-75.394614 -0.72015,0.2278 c -0.10507,0.033 -0.21955,-0.006 -0.28134,-0.0977 0,0 -1.42064,-2.07899 -3.25503,-4.76366 -2.1929,4.29183 -6.65445,7.23164 -11.80652,7.23164 -7.31977,0 -13.25421,-5.93458 -13.25421,-13.25478 0,-5.385 3.21204,-10.01612 7.82293,-12.0907 l 0,-3.419196 c -0.83917,0.29358 -1.65029,0.64739 -2.42084,1.06712 -5.9e-4,-5.9e-4 -0.002,-0.002 -0.004,-0.003 l -6.24354,-4.09478 c -0.16829,-0.10992 -0.38983,-0.0871 -0.53121,0.0552 l -3.27126,3.27069 c -0.137541,0.13796 -0.163451,0.35224 -0.0621,0.51925 l 3.82982,6.307456 c -0.67929,1.14201 -1.22331,2.37344 -1.61243,3.67235 l -7.03131,1.4625 c -0.19563,0.0406 -0.33659,0.21385 -0.33659,0.41461 l 0,4.62542 c 0,0.19562 0.13355,0.36505 0.32206,0.41061 l 6.82444,1.6681 c 0.36392,1.50436 0.92802,2.9307 1.67337,4.24142 l -3.94999,6.02371 c -0.1102,0.16829 -0.0871,0.39012 0.0553,0.53193 l 3.27027,3.27069 c 0.13753,0.13725 0.35224,0.16374 0.51996,0.0629 l 6.18986,-3.75933 c 1.21591,0.70163 2.5272,1.25377 3.91311,1.62822 l 1.44413,6.94404 c 0.0407,0.19677 0.21485,0.33687 0.41432,0.33687 l 4.62613,0 c 0.19449,0 0.36392,-0.1327 0.41033,-0.32349 l 1.70142,-6.95856 c 1.42861,-0.38556 2.77977,-0.96019 4.02529,-1.69372 l 6.10003,3.99996 c 0.16772,0.11048 0.38926,0.0883 0.53164,-0.0541 l 3.27126,-3.2707 c 0.1384,-0.13839 0.16345,-0.35224 0.0618,-0.51882 l -2.22706,-3.66992 z"
         inkscape:connector-curvature="0" />
    </g>
    <path
       style="color:#000000;font-style:normal;font-variant:normal;font-weight:normal;font-stretch:normal;font-size:medium;line-height:normal;font-family:sans-serif;text-indent:0;text-align:start;text-decoration:none;text-decoration-line:none;text-decoration-style:solid;text-decoration-color:#000000;letter-spacing:normal;word-spacing:normal;text-transform:none;direction:ltr;block-progression:tb;writing-mode:lr-tb;baseline-shift:baseline;text-anchor:start;white-space:normal;clip-rule:nonzero;display:inline;overflow:visible;visibility:visible;opacity:1;isolation:auto;mix-blend-mode:normal;color-interpolation:sRGB;color-interpolation-filters:linearRGB;solid-color:#000000;solid-opacity:1;fill:#ffffff;fill-opacity:1;fill-rule:nonzero;stroke:none;stroke-width:1.85170019;stroke-linecap:round;stroke-linejoin:round;stroke-miterlimit:4;stroke-dasharray:none;stroke-dashoffset:0;stroke-opacity:1;color-rendering:auto;image-rendering:auto;shape-rendering:auto;text-rendering:auto;enable-background:accumulate"
       d="m 128.00007,809.57098 c -63.364004,0 -114.791482,51.42747 -114.791482,114.7915 0,63.36402 51.427478,114.78582 114.791482,114.78582 63.364,0 114.78578,-51.4218 114.78578,-114.78582 0,-63.36403 -51.42178,-114.7915 -114.78578,-114.7915 z m 0,5.40713 c 60.44465,0 109.38439,48.93969 109.38439,109.38437 0,60.44465 -48.93974,109.38442 -109.38439,109.38442 -60.444653,0 -109.384368,-48.93977 -109.384368,-109.38442 0,-60.44468 48.939715,-109.38437 109.384368,-109.38437 z"
       id="path4136-7-9"
       inkscape:connector-curvature="0" />
  </g>
</svg>
