<?xml version="1.0" encoding="UTF-8" standalone="no"?>
<!-- Created with Inkscape (http://www.inkscape.org/) -->

<svg
   xmlns:dc="http://purl.org/dc/elements/1.1/"
   xmlns:cc="http://creativecommons.org/ns#"
   xmlns:rdf="http://www.w3.org/1999/02/22-rdf-syntax-ns#"
   xmlns:svg="http://www.w3.org/2000/svg"
   xmlns="http://www.w3.org/2000/svg"
   xmlns:xlink="http://www.w3.org/1999/xlink"
   xmlns:sodipodi="http://sodipodi.sourceforge.net/DTD/sodipodi-0.dtd"
   xmlns:inkscape="http://www.inkscape.org/namespaces/inkscape"
   width="256"
   height="256"
   viewBox="0 0 256 256"
   id="svg5091"
   version="1.1"
   inkscape:version="0.92+devel unknown"
   sodipodi:docname="lxqt_icon_grey_pattern.svg"
   inkscape:export-xdpi="90"
   inkscape:export-ydpi="90">
  <defs
     id="defs5093">
    <clipPath
       clipPathUnits="userSpaceOnUse"
       id="clipPath6742">
      <circle
         cy="924.36218"
         cx="128"
         id="circle6744"
         style="opacity:1;fill:none;fill-opacity:1;stroke:#000000;stroke-width:4;stroke-linecap:round;stroke-linejoin:round;stroke-miterlimit:4;stroke-dasharray:none;stroke-opacity:1"
         r="127" />
    </clipPath>
    <clipPath
       id="clip1">
      <rect
         id="rect85"
         height="48"
         width="48" />
    </clipPath>
    <g
       clip-path="url(#clip1)"
       id="surface6">
      <path
         id="path88"
         d="M 21.070312 14.476562 C 19.847656 13.324219 18.988281 11.792969 18.632812 10.152344 C 18.277344 8.507812 18.433594 6.761719 19.070312 5.203125 C 19.707031 3.648438 20.824219 2.296875 22.226562 1.375 C 23.632812 0.449219 25.320312 -0.0351562 27 0 C 28.585938 0.03125 30.160156 0.527344 31.480469 1.40625 C 32.796875 2.285156 33.859375 3.546875 34.5 5 L 48 8 L 31.757812 8 C 30.851562 6.507812 29.296875 5.425781 27.582031 5.101562 C 26.402344 4.875 25.160156 5 24.050781 5.453125 C 22.941406 5.90625 21.964844 6.6875 21.28125 7.671875 C 20.597656 8.660156 20.203125 9.84375 20.167969 11.042969 C 20.128906 12.242188 20.449219 13.453125 21.070312 14.476562 "
         style=" stroke:none;fill-rule:nonzero;fill:rgb(87.058824%,87.058824%,87.058824%);fill-opacity:1;" />
      <path
         id="path90"
         d="M 22.5 19.5 L 3 3 C 1.078125 4.984375 -0.0234375 7.738281 0 10.5 C 0.0234375 13.300781 1.207031 16.074219 3.210938 18.03125 C 5.214844 19.988281 8.015625 21.105469 10.816406 21.066406 C 9.277344 20.855469 7.816406 20.101562 6.75 18.96875 C 5.683594 17.839844 5.019531 16.335938 4.898438 14.789062 C 4.785156 13.289062 5.179688 11.757812 6 10.5 L 22.5 19.5 "
         style=" stroke:none;fill-rule:nonzero;fill:rgb(87.058824%,87.058824%,87.058824%);fill-opacity:1;" />
      <path
         id="path92"
         d="M 21 24 L 1.5 18 C 0.980469 19.984375 1.140625 22.136719 1.945312 24.023438 C 2.753906 25.90625 4.203125 27.507812 6 28.5 C 7.371094 29.257812 8.933594 29.660156 10.5 29.660156 C 12.066406 29.660156 13.628906 29.257812 15 28.5 C 13.738281 28.613281 12.453125 28.40625 11.292969 27.898438 C 10.132812 27.394531 9.101562 26.589844 8.328125 25.589844 C 7.4375 24.433594 6.886719 23.015625 6.773438 21.5625 L 21 24 "
         style=" stroke:none;fill-rule:nonzero;fill:rgb(87.058824%,87.058824%,87.058824%);fill-opacity:1;" />
      <path
         id="path94"
         d="M 30.058594 13 C 29.222656 13.988281 28.675781 15.21875 28.5 16.5 C 28.335938 17.710938 28.5 18.949219 28.820312 20.128906 C 29.140625 21.304688 29.617188 22.4375 30.085938 23.566406 C 30.554688 24.695312 31.019531 25.828125 31.324219 27.011719 C 31.625 28.195312 31.761719 29.441406 31.558594 30.644531 C 31.21875 32.660156 29.933594 34.453125 28.257812 35.621094 C 26.582031 36.789062 24.539062 37.367188 22.5 37.5 C 19.925781 37.667969 17.3125 37.144531 15 36 L 15.058594 48 L 18.058594 42.03125 C 22.023438 43.191406 26.457031 42.621094 30 40.5 C 31.789062 39.429688 33.359375 37.972656 34.453125 36.199219 C 35.550781 34.425781 36.15625 32.335938 36.058594 30.257812 C 35.917969 27.292969 34.40625 24.589844 32.960938 22 C 31.511719 19.410156 30.054688 16.664062 30.035156 13.695312 C 30.035156 13.464844 30.042969 13.230469 30.058594 13 "
         style=" stroke:none;fill-rule:nonzero;fill:rgb(87.058824%,87.058824%,87.058824%);fill-opacity:1;" />
    </g>
    <clipPath
       id="clip1-3">
      <rect
         id="rect117"
         height="48"
         width="48" />
    </clipPath>
    <g
       clip-path="url(#clip1-3)"
       id="surface6-6">
      <path
         id="path120"
         d="M 21.070312 14.476562 C 19.847656 13.324219 18.988281 11.792969 18.632812 10.152344 C 18.277344 8.507812 18.433594 6.761719 19.070312 5.203125 C 19.707031 3.648438 20.824219 2.296875 22.226562 1.375 C 23.632812 0.449219 25.320312 -0.0351562 27 0 C 28.585938 0.03125 30.160156 0.527344 31.480469 1.40625 C 32.796875 2.285156 33.859375 3.546875 34.5 5 L 48 8 L 31.757812 8 C 30.851562 6.507812 29.296875 5.425781 27.582031 5.101562 C 26.402344 4.875 25.160156 5 24.050781 5.453125 C 22.941406 5.90625 21.964844 6.6875 21.28125 7.671875 C 20.597656 8.660156 20.203125 9.84375 20.167969 11.042969 C 20.128906 12.242188 20.449219 13.453125 21.070312 14.476562 "
         style=" stroke:none;fill-rule:nonzero;fill:rgb(100.0%,100.0%,100.0%);fill-opacity:1;" />
      <path
         id="path122"
         d="M 22.5 19.5 L 3 3 C 1.078125 4.984375 -0.0234375 7.738281 0 10.5 C 0.0234375 13.300781 1.207031 16.074219 3.210938 18.03125 C 5.214844 19.988281 8.015625 21.105469 10.816406 21.066406 C 9.277344 20.855469 7.816406 20.101562 6.75 18.96875 C 5.683594 17.839844 5.019531 16.335938 4.898438 14.789062 C 4.785156 13.289062 5.179688 11.757812 6 10.5 L 22.5 19.5 "
         style=" stroke:none;fill-rule:nonzero;fill:rgb(87.058824%,87.058824%,87.058824%);fill-opacity:1;" />
      <path
         id="path124"
         d="M 21 24 L 1.5 18 C 0.980469 19.984375 1.140625 22.136719 1.945312 24.023438 C 2.753906 25.90625 4.203125 27.507812 6 28.5 C 7.371094 29.257812 8.933594 29.660156 10.5 29.660156 C 12.066406 29.660156 13.628906 29.257812 15 28.5 C 13.738281 28.613281 12.453125 28.40625 11.292969 27.898438 C 10.132812 27.394531 9.101562 26.589844 8.328125 25.589844 C 7.4375 24.433594 6.886719 23.015625 6.773438 21.5625 L 21 24 "
         style=" stroke:none;fill-rule:nonzero;fill:rgb(100.0%,100.0%,100.0%);fill-opacity:1;" />
      <path
         id="path126"
         d="M 30.058594 13 C 29.222656 13.988281 28.675781 15.21875 28.5 16.5 C 28.335938 17.710938 28.5 18.949219 28.820312 20.128906 C 29.140625 21.304688 29.617188 22.4375 30.085938 23.566406 C 30.554688 24.695312 31.019531 25.828125 31.324219 27.011719 C 31.625 28.195312 31.761719 29.441406 31.558594 30.644531 C 31.21875 32.660156 29.933594 34.453125 28.257812 35.621094 C 26.582031 36.789062 24.539062 37.367188 22.5 37.5 C 19.925781 37.667969 17.3125 37.144531 15 36 L 15.058594 48 L 18.058594 42.03125 C 22.023438 43.191406 26.457031 42.621094 30 40.5 C 31.789062 39.429688 33.359375 37.972656 34.453125 36.199219 C 35.550781 34.425781 36.15625 32.335938 36.058594 30.257812 C 35.917969 27.292969 34.40625 24.589844 32.960938 22 C 31.511719 19.410156 30.054688 16.664062 30.035156 13.695312 C 30.035156 13.464844 30.042969 13.230469 30.058594 13 "
         style=" stroke:none;fill-rule:nonzero;fill:rgb(100.0%,100.0%,100.0%);fill-opacity:1;" />
    </g>
    <clipPath
       id="clip1-7">
      <rect
         id="rect149"
         height="48"
         width="48" />
    </clipPath>
    <g
       clip-path="url(#clip1-7)"
       id="surface6-5">
      <path
         id="path152"
         d="M 21.070312 14.476562 C 19.847656 13.324219 18.988281 11.792969 18.632812 10.152344 C 18.277344 8.507812 18.433594 6.761719 19.070312 5.203125 C 19.707031 3.648438 20.824219 2.296875 22.226562 1.375 C 23.632812 0.449219 25.320312 -0.0351562 27 0 C 28.585938 0.03125 30.160156 0.527344 31.480469 1.40625 C 32.796875 2.285156 33.859375 3.546875 34.5 5 L 48 8 L 31.757812 8 C 30.851562 6.507812 29.296875 5.425781 27.582031 5.101562 C 26.402344 4.875 25.160156 5 24.050781 5.453125 C 22.941406 5.90625 21.964844 6.6875 21.28125 7.671875 C 20.597656 8.660156 20.203125 9.84375 20.167969 11.042969 C 20.128906 12.242188 20.449219 13.453125 21.070312 14.476562 "
         style=" stroke:none;fill-rule:nonzero;fill:rgb(100.0%,100.0%,100.0%);fill-opacity:1;" />
      <path
         id="path154"
         d="M 22.5 19.5 L 3 3 C 1.078125 4.984375 -0.0234375 7.738281 0 10.5 C 0.0234375 13.300781 1.207031 16.074219 3.210938 18.03125 C 5.214844 19.988281 8.015625 21.105469 10.816406 21.066406 C 9.277344 20.855469 7.816406 20.101562 6.75 18.96875 C 5.683594 17.839844 5.019531 16.335938 4.898438 14.789062 C 4.785156 13.289062 5.179688 11.757812 6 10.5 L 22.5 19.5 "
         style=" stroke:none;fill-rule:nonzero;fill:rgb(100.0%,100.0%,100.0%);fill-opacity:1;" />
      <path
         id="path156"
         d="M 21 24 L 1.5 18 C 0.980469 19.984375 1.140625 22.136719 1.945312 24.023438 C 2.753906 25.90625 4.203125 27.507812 6 28.5 C 7.371094 29.257812 8.933594 29.660156 10.5 29.660156 C 12.066406 29.660156 13.628906 29.257812 15 28.5 C 13.738281 28.613281 12.453125 28.40625 11.292969 27.898438 C 10.132812 27.394531 9.101562 26.589844 8.328125 25.589844 C 7.4375 24.433594 6.886719 23.015625 6.773438 21.5625 L 21 24 "
         style=" stroke:none;fill-rule:nonzero;fill:rgb(100.0%,100.0%,100.0%);fill-opacity:1;" />
      <path
         id="path158"
         d="M 30.058594 13 C 29.222656 13.988281 28.675781 15.21875 28.5 16.5 C 28.335938 17.710938 28.5 18.949219 28.820312 20.128906 C 29.140625 21.304688 29.617188 22.4375 30.085938 23.566406 C 30.554688 24.695312 31.019531 25.828125 31.324219 27.011719 C 31.625 28.195312 31.761719 29.441406 31.558594 30.644531 C 31.21875 32.660156 29.933594 34.453125 28.257812 35.621094 C 26.582031 36.789062 24.539062 37.367188 22.5 37.5 C 19.925781 37.667969 17.3125 37.144531 15 36 L 15.058594 48 L 18.058594 42.03125 C 22.023438 43.191406 26.457031 42.621094 30 40.5 C 31.789062 39.429688 33.359375 37.972656 34.453125 36.199219 C 35.550781 34.425781 36.15625 32.335938 36.058594 30.257812 C 35.917969 27.292969 34.40625 24.589844 32.960938 22 C 31.511719 19.410156 30.054688 16.664062 30.035156 13.695312 C 30.035156 13.464844 30.042969 13.230469 30.058594 13 "
         style=" stroke:none;fill-rule:nonzero;fill:rgb(100.0%,100.0%,100.0%);fill-opacity:1;" />
    </g>
  </defs>
  <sodipodi:namedview
     id="base"
     pagecolor="#ffffff"
     bordercolor="#666666"
     borderopacity="1.0"
     inkscape:pageopacity="0.0"
     inkscape:pageshadow="2"
     inkscape:zoom="0.55864198"
     inkscape:cx="-120.17814"
     inkscape:cy="-83.706787"
     inkscape:document-units="px"
     inkscape:current-layer="layer1"
     showgrid="false"
     units="px"
     inkscape:window-width="1920"
     inkscape:window-height="1016"
     inkscape:window-x="0"
     inkscape:window-y="0"
     inkscape:window-maximized="1"
     inkscape:document-rotation="0" />
  <metadata
     id="metadata5096">
    <rdf:RDF>
      <cc:Work
         rdf:about="">
        <dc:format>image/svg+xml</dc:format>
        <dc:type
           rdf:resource="http://purl.org/dc/dcmitype/StillImage" />
        <dc:title></dc:title>
      </cc:Work>
    </rdf:RDF>
  </metadata>
  <g
     inkscape:label="Layer 1"
     inkscape:groupmode="layer"
     id="layer1"
     transform="translate(0,-796.36216)">
    <image
       sodipodi:absref="/home/mbriza/Downloads/gray_contrast.png"
       xlink:href="gray_contrast.png"
       clip-path="url(#clipPath6742)"
       width="1177"
       height="773"
       preserveAspectRatio="none"
       id="image6739"
       x="-321.9071"
       y="611.30359" />
    <use
       xlink:href="#surface6-5"
       id="use163"
       x="0"
       y="0"
       width="100%"
       height="100%"
       transform="matrix(3.8312694,0,0,3.8312694,39.772375,840.17636)"
       inkscape:export-xdpi="90"
       inkscape:export-ydpi="90" />
  </g>
</svg>
