<?xml version="1.0" encoding="UTF-8" standalone="no"?>
<!-- Created with Inkscape (http://www.inkscape.org/) -->

<svg
   xmlns:dc="http://purl.org/dc/elements/1.1/"
   xmlns:cc="http://creativecommons.org/ns#"
   xmlns:rdf="http://www.w3.org/1999/02/22-rdf-syntax-ns#"
   xmlns:svg="http://www.w3.org/2000/svg"
   xmlns="http://www.w3.org/2000/svg"
   xmlns:xlink="http://www.w3.org/1999/xlink"
   xmlns:sodipodi="http://sodipodi.sourceforge.net/DTD/sodipodi-0.dtd"
   xmlns:inkscape="http://www.inkscape.org/namespaces/inkscape"
   width="256"
   height="256"
   viewBox="0 0 256 256"
   id="svg5091"
   version="1.1"
   inkscape:version="0.91 r13725"
   sodipodi:docname="mate-compiz_icon_grey_pattern.svg"
   inkscape:export-xdpi="90"
   inkscape:export-ydpi="90">
  <defs
     id="defs5093">
    <clipPath
       clipPathUnits="userSpaceOnUse"
       id="clipPath6742">
      <circle
         cy="924.36218"
         cx="128"
         id="circle6744"
         style="opacity:1;fill:none;fill-opacity:1;stroke:#000000;stroke-width:4;stroke-linecap:round;stroke-linejoin:round;stroke-miterlimit:4;stroke-dasharray:none;stroke-opacity:1"
         r="127" />
    </clipPath>
  </defs>
  <sodipodi:namedview
     id="base"
     pagecolor="#ffffff"
     bordercolor="#666666"
     borderopacity="1.0"
     inkscape:pageopacity="0.0"
     inkscape:pageshadow="2"
     inkscape:zoom="1.6129462"
     inkscape:cx="-150.80034"
     inkscape:cy="112.12127"
     inkscape:document-units="px"
     inkscape:current-layer="layer1"
     showgrid="false"
     units="px"
     inkscape:window-width="1920"
     inkscape:window-height="1016"
     inkscape:window-x="0"
     inkscape:window-y="27"
     inkscape:window-maximized="1" />
  <metadata
     id="metadata5096">
    <rdf:RDF>
      <cc:Work
         rdf:about="">
        <dc:format>image/svg+xml</dc:format>
        <dc:type
           rdf:resource="http://purl.org/dc/dcmitype/StillImage" />
        <dc:title />
      </cc:Work>
    </rdf:RDF>
  </metadata>
  <g
     inkscape:label="Layer 1"
     inkscape:groupmode="layer"
     id="layer1"
     transform="translate(0,-796.36216)">
    <image
       sodipodi:absref="gray_contrast.png"
       y="611.30359"
       x="-321.9071"
       id="image6739"
       xlink:href="gray_contrast.png"
       preserveAspectRatio="none"
       height="773"
       width="1177"
       clip-path="url(#clipPath6742)" />
    <path
       inkscape:connector-curvature="0"
       style="color:#000000;font-style:normal;font-variant:normal;font-weight:normal;font-stretch:normal;font-size:medium;line-height:normal;font-family:sans-serif;text-indent:0;text-align:start;text-decoration:none;text-decoration-line:none;text-decoration-style:solid;text-decoration-color:#000000;letter-spacing:normal;word-spacing:normal;text-transform:none;direction:ltr;block-progression:tb;writing-mode:lr-tb;baseline-shift:baseline;text-anchor:start;white-space:normal;clip-rule:nonzero;display:inline;overflow:visible;visibility:visible;opacity:1;isolation:auto;mix-blend-mode:normal;color-interpolation:sRGB;color-interpolation-filters:linearRGB;solid-color:#000000;solid-opacity:1;fill:#ffffff;fill-opacity:1;fill-rule:nonzero;stroke:none;stroke-width:0.89499998;stroke-linecap:round;stroke-linejoin:round;stroke-miterlimit:4;stroke-dasharray:none;stroke-dashoffset:0;stroke-opacity:1;color-rendering:auto;image-rendering:auto;shape-rendering:auto;text-rendering:auto;enable-background:accumulate"
       d="m 130.13328,838.10967 c -27.44553,0 -51.815925,12.95049 -67.586069,33.00107 a 1.3055866,1.3055866 0 0 0 0.324771,1.90872 l 10.62049,6.73467 a 1.3055866,1.3055866 0 0 0 1.709314,-0.27917 c 13.013422,-15.92761 32.888914,-26.06695 55.056834,-26.06695 39.17981,0 70.95341,31.77357 70.95341,70.9534 0,39.17979 -31.77355,70.95339 -70.95341,70.95339 -22.1036,0 -41.9161,-10.09246 -54.931472,-25.94159 a 1.3055866,1.3055866 0 0 0 -1.70362,-0.27334 l -10.620512,6.73466 a 1.3055866,1.3055866 0 0 0 -0.324771,1.90875 c 15.773423,19.96693 40.075355,32.86992 67.455035,32.86992 47.52717,0 86.12067,-38.65516 86.12067,-86.25165 0,-47.59652 -38.5935,-86.25173 -86.12067,-86.25173 z M 41.032709,869.61224 A 1.3055866,1.3055866 0 0 0 39.81341,870.917 l -0.06846,105.87459 a 1.3055866,1.3055866 0 0 0 1.96571,1.12245 l 89.733104,-52.95438 a 1.3055866,1.3055866 0 0 0 0,-2.25059 l -89.658946,-52.9145 a 1.3055866,1.3055866 0 0 0 -0.752105,-0.18235 z m 89.100571,1.64664 c -15.63705,0 -29.68857,6.76748 -39.428049,17.5204 a 1.3055866,1.3055866 0 0 0 0.273478,1.98851 l 11.007941,6.86003 a 1.3055866,1.3055866 0 0 0 1.61247,-0.17681 c 6.84565,-6.76108 16.18768,-10.8883 26.53416,-10.8883 20.94761,0 37.92956,17.08609 37.92956,38.18596 0,21.09984 -16.98195,38.19167 -37.92956,38.19167 -10.53964,2e-5 -20.0336,-4.27932 -26.91023,-11.26436 a 1.3055866,1.3055866 0 0 0 -1.62952,-0.18789 l -10.620515,6.73467 a 1.3055866,1.3055866 0 0 0 -0.267806,1.9771 c 9.739481,10.75292 23.791021,17.52612 39.428051,17.52612 29.37005,0 53.23357,-23.86353 53.23357,-53.23358 0,-29.37005 -23.86352,-53.23357 -53.23357,-53.23357 z"
       id="path4-7-9" />
  </g>
</svg>
