<?xml version="1.0" encoding="UTF-8" standalone="no"?>
<!-- Created with Inkscape (http://www.inkscape.org/) -->

<svg
   xmlns:dc="http://purl.org/dc/elements/1.1/"
   xmlns:cc="http://creativecommons.org/ns#"
   xmlns:rdf="http://www.w3.org/1999/02/22-rdf-syntax-ns#"
   xmlns:svg="http://www.w3.org/2000/svg"
   xmlns="http://www.w3.org/2000/svg"
   xmlns:xlink="http://www.w3.org/1999/xlink"
   xmlns:sodipodi="http://sodipodi.sourceforge.net/DTD/sodipodi-0.dtd"
   xmlns:inkscape="http://www.inkscape.org/namespaces/inkscape"
   width="256"
   height="256"
   viewBox="0 0 256 256"
   id="svg5091"
   version="1.1"
   inkscape:version="0.91 r13725"
   sodipodi:docname="robotics_icon_grey_pattern.svg">
  <defs
     id="defs5093">
    <clipPath
       clipPathUnits="userSpaceOnUse"
       id="clipPath6742">
      <circle
         cy="924.36218"
         cx="128"
         id="circle6744"
         style="opacity:1;fill:none;fill-opacity:1;stroke:#000000;stroke-width:4;stroke-linecap:round;stroke-linejoin:round;stroke-miterlimit:4;stroke-dasharray:none;stroke-opacity:1"
         r="127" />
    </clipPath>
  </defs>
  <sodipodi:namedview
     id="base"
     pagecolor="#ffffff"
     bordercolor="#666666"
     borderopacity="1.0"
     inkscape:pageopacity="0.0"
     inkscape:pageshadow="2"
     inkscape:zoom="1.6129462"
     inkscape:cx="3.2655502"
     inkscape:cy="113.36124"
     inkscape:document-units="px"
     inkscape:current-layer="layer1"
     showgrid="false"
     units="px"
     inkscape:window-width="1920"
     inkscape:window-height="1016"
     inkscape:window-x="0"
     inkscape:window-y="27"
     inkscape:window-maximized="1" />
  <metadata
     id="metadata5096">
    <rdf:RDF>
      <cc:Work
         rdf:about="">
        <dc:format>image/svg+xml</dc:format>
        <dc:type
           rdf:resource="http://purl.org/dc/dcmitype/StillImage" />
        <dc:title></dc:title>
      </cc:Work>
    </rdf:RDF>
  </metadata>
  <g
     inkscape:label="Layer 1"
     inkscape:groupmode="layer"
     id="layer1"
     transform="translate(0,-796.36216)">
    <image
       sodipodi:absref="gray_contrast.png"
       y="611.30359"
       x="-321.9071"
       id="image6739"
       xlink:href="gray_contrast.png"
       preserveAspectRatio="none"
       height="773"
       width="1177"
       clip-path="url(#clipPath6742)" />
    <path
       inkscape:connector-curvature="0"
       style="fill:#ffffff;fill-opacity:1;stroke:none;stroke-width:2.85765553;stroke-linecap:round;stroke-linejoin:round;stroke-miterlimit:4;stroke-dasharray:none;stroke-opacity:1"
       d="m 99.018271,819.77096 a 3.6232239,3.6232239 0 0 0 -2.535548,0.97559 c -14.12336,12.86217 -14.026426,34.27596 0.212986,47.0265 a 3.6232239,3.6232239 0 1 0 4.833391,-5.39794 C 90.189543,852.22118 90.120145,836.34167 101.36074,826.10488 a 3.6232239,3.6232239 0 0 0 -2.342418,-6.33392 z m 57.852109,0 a 3.6232239,3.6232239 0 0 0 -2.22852,6.33392 c 11.24055,10.23679 11.16631,26.11631 -0.17343,36.27023 a 3.6232239,3.6232239 0 1 0 4.83339,5.39794 c 14.23934,-12.75054 14.34134,-34.16433 0.21781,-47.0265 a 3.6232239,3.6232239 0 0 0 -2.64945,-0.97559 z m -47.37314,4.30846 a 3.6232239,3.6232239 0 0 0 -2.48603,1.09939 c -10.515683,10.54406 -10.446082,27.70681 0.15847,38.16199 a 3.6232239,3.6232239 0 1 0 5.08595,-5.16024 c -7.81608,-7.70598 -7.8642,-20.11495 -0.11384,-27.88608 a 3.6232239,3.6232239 0 0 0 -2.64448,-6.21506 z m 36.8942,0 a 3.6232239,3.6232239 0 0 0 -2.5306,6.21506 c 7.75021,7.77113 7.69727,20.1801 -0.11892,27.88608 a 3.6232239,3.6232239 0 1 0 5.08596,5.16024 c 10.60455,-10.45518 10.67902,-27.61793 0.16354,-38.16199 a 3.6232239,3.6232239 0 0 0 -2.59993,-1.09939 z m -18.32331,4.51644 c -4.04159,-0.017 -8.09183,1.48877 -11.1673,4.5214 -6.15096,6.06529 -6.19393,16.05474 -0.0941,22.17119 2.07892,2.08454 4.61964,3.44379 7.30456,4.11531 l 0,23.02793 -57.797627,0 c -15.733154,0 -28.515031,12.78188 -28.515031,28.51502 l 0,58.85741 c 0,15.73313 12.781877,28.51005 28.515031,28.51005 l 123.375217,0 c 15.73313,0 28.51007,-12.77692 28.51007,-28.51005 l 0,-58.85741 c 0,-15.73314 -12.77694,-28.51502 -28.51007,-28.51502 l -58.33247,0 0,-22.89917 c 2.83982,-0.60824 5.54365,-1.98394 7.74532,-4.15493 6.15096,-6.06527 6.18897,-16.04983 0.089,-22.16624 -3.04993,-3.05822 -7.08112,-4.59857 -11.12274,-4.61549 z m -45.109971,79.61721 c 16.103724,0 29.233101,13.13858 29.233101,29.24795 0,16.10936 -13.129377,29.24795 -29.233101,29.24795 -16.103725,0 -29.233099,-13.13859 -29.233099,-29.24795 0,-16.10937 13.129374,-29.24795 29.233099,-29.24795 z m 90.081291,0 c 16.10372,0 29.2331,13.13858 29.2331,29.24795 0,16.10936 -13.12938,29.24795 -29.2331,29.24795 -16.10373,0 -29.23307,-13.13859 -29.23307,-29.24795 0,-16.10937 13.12934,-29.24795 29.23307,-29.24795 z m -90.081291,7.24513 c -12.185694,0 -21.987972,9.80717 -21.987972,22.00282 0,12.19564 9.802278,22.00281 21.987972,22.00281 12.185693,0 21.987941,-9.80717 21.987941,-22.00281 0,-12.19565 -9.802248,-22.00282 -21.987941,-22.00282 z m 90.081291,0 c -12.18569,0 -21.98795,9.80717 -21.98795,22.00282 0,12.19564 9.80226,22.00281 21.98795,22.00281 12.18569,0 21.98797,-9.80717 21.98797,-22.00281 0,-12.19565 -9.80228,-22.00282 -21.98797,-22.00282 z m -90.081291,4.36788 c 9.693807,0 17.629971,7.93976 17.629971,17.63494 0,9.69518 -7.936164,17.63495 -17.629971,17.63493 -9.693808,10e-6 -17.629998,-7.93975 -17.629998,-17.63493 0,-9.69518 7.93619,-17.63494 17.629998,-17.63494 z m 90.081291,0 c 9.69381,0 17.63,7.93976 17.63,17.63494 0,9.69518 -7.93619,17.63494 -17.63,17.63493 -9.69381,10e-6 -17.62997,-7.93975 -17.62997,-17.63493 0,-9.69518 7.93616,-17.63494 17.62997,-17.63494 z m -67.29602,49.94832 44.51074,0 a 3.6232241,3.6232241 0 0 1 3.62505,3.62009 l 0,6.49239 a 3.6232241,3.6232241 0 0 1 -3.62505,3.62505 l -44.51074,0 a 3.6232241,3.6232241 0 0 1 -3.6201,-3.62505 l 0,-6.49239 a 3.6232241,3.6232241 0 0 1 3.6201,-3.62009 z"
       id="rect4545" />
  </g>
</svg>
