<?xml version="1.0" encoding="UTF-8" standalone="no"?>
<!-- Created with Inkscape (http://www.inkscape.org/) -->

<svg
   xmlns:dc="http://purl.org/dc/elements/1.1/"
   xmlns:cc="http://creativecommons.org/ns#"
   xmlns:rdf="http://www.w3.org/1999/02/22-rdf-syntax-ns#"
   xmlns:svg="http://www.w3.org/2000/svg"
   xmlns="http://www.w3.org/2000/svg"
   xmlns:xlink="http://www.w3.org/1999/xlink"
   xmlns:sodipodi="http://sodipodi.sourceforge.net/DTD/sodipodi-0.dtd"
   xmlns:inkscape="http://www.inkscape.org/namespaces/inkscape"
   width="256"
   height="256"
   viewBox="0 0 256 256"
   id="svg5091"
   version="1.1"
   inkscape:version="0.91 r13725"
   sodipodi:docname="security-lab_icon_grey_pattern.svg"
   inkscape:export-xdpi="90"
   inkscape:export-ydpi="90">
  <defs
     id="defs5093">
    <clipPath
       clipPathUnits="userSpaceOnUse"
       id="clipPath6742">
      <circle
         cy="924.36218"
         cx="128"
         id="circle6744"
         style="opacity:1;fill:none;fill-opacity:1;stroke:#000000;stroke-width:4;stroke-linecap:round;stroke-linejoin:round;stroke-miterlimit:4;stroke-dasharray:none;stroke-opacity:1"
         r="127" />
    </clipPath>
  </defs>
  <sodipodi:namedview
     id="base"
     pagecolor="#ffffff"
     bordercolor="#666666"
     borderopacity="1.0"
     inkscape:pageopacity="0.0"
     inkscape:pageshadow="2"
     inkscape:zoom="1.6129462"
     inkscape:cx="3.2655502"
     inkscape:cy="113.36124"
     inkscape:document-units="px"
     inkscape:current-layer="layer1"
     showgrid="false"
     units="px"
     inkscape:window-width="1920"
     inkscape:window-height="1016"
     inkscape:window-x="0"
     inkscape:window-y="27"
     inkscape:window-maximized="1" />
  <metadata
     id="metadata5096">
    <rdf:RDF>
      <cc:Work
         rdf:about="">
        <dc:format>image/svg+xml</dc:format>
        <dc:type
           rdf:resource="http://purl.org/dc/dcmitype/StillImage" />
        <dc:title></dc:title>
      </cc:Work>
    </rdf:RDF>
  </metadata>
  <g
     inkscape:label="Layer 1"
     inkscape:groupmode="layer"
     id="layer1"
     transform="translate(0,-796.36216)">
    <image
       sodipodi:absref="gray_contrast.png"
       y="611.30359"
       x="-321.9071"
       id="image6739"
       xlink:href="gray_contrast.png"
       preserveAspectRatio="none"
       height="773"
       width="1177"
       clip-path="url(#clipPath6742)" />
    <path
       inkscape:connector-curvature="0"
       style="fill:#ffffff;fill-opacity:1;stroke:none;stroke-width:2.85765553;stroke-linecap:round;stroke-linejoin:round;stroke-miterlimit:4;stroke-dasharray:none;stroke-opacity:1"
       d="m 128.00496,829.3745 c -28.604206,0 -51.874759,23.21624 -51.874759,51.7658 0,0.98557 -0.0355,2.30253 -0.05933,3.46657 l -0.401149,0 c -15.886986,0 -28.787374,12.90533 -28.787374,28.79234 l 0,59.51606 c 0,15.887 12.900388,28.79233 28.787374,28.79233 l 104.6508,0 c 15.88702,0 28.79235,-12.90533 28.79235,-28.79233 l 0,-59.51606 c 0,-15.887 -12.90533,-28.79234 -28.79235,-28.79234 l -0.38132,0 c -0.0228,-1.1641 -0.0545,-2.49303 -0.0545,-3.46657 0,-28.54954 -23.27524,-51.7658 -51.87968,-51.7658 z m -0.005,25.61796 0.005,0 c 15.84079,0.003 28.59919,12.73077 28.59919,28.51996 0,0.33248 0.0152,0.74478 0.0203,1.09445 l -57.238027,0 c 0.0051,-0.35113 0.02028,-0.75946 0.02028,-1.09445 0,-15.78921 12.753203,-28.51728 28.594243,-28.51996 z m 0,64.28011 a 15.841186,15.803087 0 0 1 15.84223,15.80756 15.841186,15.803087 0 0 1 -8.28511,13.86628 c 0.0634,0.39478 0.10396,0.80077 0.10396,1.2133 l 0,16.99115 c 0,4.23563 -3.42005,7.64131 -7.66608,7.64131 -4.24603,-1e-5 -7.6611,-3.40568 -7.6611,-7.64131 l 0,-16.99115 c 0,-0.40797 0.0431,-0.80822 0.10395,-1.19844 a 15.841186,15.803087 0 0 1 -8.28013,-13.88114 15.841186,15.803087 0 0 1 15.8422,-15.80756 z"
       id="path4521" />
  </g>
</svg>
