<?xml version="1.0" encoding="UTF-8" standalone="no"?>
<svg
   height="600"
   width="800"
   version="1.1"
   id="svg46"
   sodipodi:docname="1-source.svg"
   xml:space="preserve"
   inkscape:version="1.3.2 (091e20ef0f, 2023-11-25)"
   xmlns:inkscape="http://www.inkscape.org/namespaces/inkscape"
   xmlns:sodipodi="http://sodipodi.sourceforge.net/DTD/sodipodi-0.dtd"
   xmlns:xlink="http://www.w3.org/1999/xlink"
   xmlns="http://www.w3.org/2000/svg"
   xmlns:svg="http://www.w3.org/2000/svg"><sodipodi:namedview
     id="namedview46"
     pagecolor="#ffffff"
     bordercolor="#000000"
     borderopacity="0.25"
     inkscape:showpageshadow="2"
     inkscape:pageopacity="0.0"
     inkscape:pagecheckerboard="0"
     inkscape:deskcolor="#d1d1d1"
     inkscape:zoom="0.68583333"
     inkscape:cx="126.85298"
     inkscape:cy="88.213852"
     inkscape:window-width="1920"
     inkscape:window-height="1021"
     inkscape:window-x="0"
     inkscape:window-y="0"
     inkscape:window-maximized="1"
     inkscape:current-layer="svg46" /><defs
     id="defs20"><linearGradient
       xlink:href="#a"
       id="f"
       x1="79.665"
       y1="149.906"
       x2="593.983"
       y2="149.906"
       gradientUnits="userSpaceOnUse"
       gradientTransform="matrix(.5686 0 0 .5686 1420.086 -2224.426)" /><linearGradient
       id="a"><stop
         offset="0"
         style="stop-color:#f9f06b;stop-opacity:1"
         id="stop1" /><stop
         offset=".378"
         style="stop-color:#57e389;stop-opacity:1"
         id="stop2" /><stop
         offset="1"
         style="stop-color:#3584e4;stop-opacity:1"
         id="stop3" /></linearGradient><linearGradient
       xlink:href="#b"
       id="i"
       gradientUnits="userSpaceOnUse"
       x1="20"
       y1="238"
       x2="108"
       y2="238" /><linearGradient
       id="b"><stop
         offset="0"
         style="stop-color:#deddda;stop-opacity:1"
         id="stop4" /><stop
         style="stop-color:#eeeeec;stop-opacity:1"
         offset=".045"
         id="stop5" /><stop
         offset=".091"
         style="stop-color:#deddda;stop-opacity:1"
         id="stop6" /><stop
         style="stop-color:#deddda;stop-opacity:1"
         offset=".909"
         id="stop7" /><stop
         offset=".955"
         style="stop-color:#eeeeec;stop-opacity:1"
         id="stop8" /><stop
         offset="1"
         style="stop-color:#c0bfbc;stop-opacity:1"
         id="stop9" /></linearGradient><linearGradient
       xlink:href="#b"
       id="n"
       gradientUnits="userSpaceOnUse"
       gradientTransform="translate(2 -22)"
       x1="50"
       y1="238"
       x2="74"
       y2="238" /><linearGradient
       xlink:href="#c"
       id="o"
       gradientUnits="userSpaceOnUse"
       x1="65"
       y1="204"
       x2="65"
       y2="200" /><linearGradient
       id="c"><stop
         style="stop-color:#9a9996;stop-opacity:1"
         offset="0"
         id="stop10" /><stop
         style="stop-color:#c0bfbc;stop-opacity:1"
         offset="1"
         id="stop11" /></linearGradient><linearGradient
       xlink:href="#b"
       id="j"
       gradientUnits="userSpaceOnUse"
       gradientTransform="translate(2 -22)"
       x1="50"
       y1="238"
       x2="74"
       y2="238" /><linearGradient
       xlink:href="#c"
       id="k"
       gradientUnits="userSpaceOnUse"
       x1="65"
       y1="204"
       x2="65"
       y2="200" /><linearGradient
       xlink:href="#b"
       id="l"
       gradientUnits="userSpaceOnUse"
       gradientTransform="translate(2 -22)"
       x1="50"
       y1="238"
       x2="74"
       y2="238" /><linearGradient
       xlink:href="#c"
       id="m"
       gradientUnits="userSpaceOnUse"
       x1="65"
       y1="204"
       x2="65"
       y2="200" /><linearGradient
       id="d"><stop
         offset="0"
         stop-color="#eae9e7"
         id="stop12" /><stop
         offset=".208"
         stop-color="#cac8c4"
         stop-opacity=".953"
         id="stop13" /><stop
         offset=".745"
         stop-color="#ebeae9"
         stop-opacity=".972"
         id="stop14" /><stop
         offset="1"
         stop-color="#d5d3cf"
         stop-opacity=".925"
         id="stop15" /></linearGradient><linearGradient
       id="e"><stop
         style="stop-color:#1a5fb4;stop-opacity:1"
         offset="0"
         id="stop16" /><stop
         offset=".739"
         style="stop-color:#9a9996;stop-opacity:1"
         id="stop17" /><stop
         style="stop-color:#deddda;stop-opacity:1"
         offset=".896"
         id="stop18" /><stop
         style="stop-color:#9a9996;stop-opacity:1"
         offset="1"
         id="stop19" /></linearGradient><radialGradient
       r="60"
       fy="229.123"
       fx="-81.054"
       cy="229.123"
       cx="-81.054"
       gradientUnits="userSpaceOnUse"
       id="h"
       xlink:href="#e" /><filter
       id="g"
       color-interpolation-filters="sRGB"
       x="0"
       y="0"
       width="1"
       height="1.004918"><feFlood
         flood-opacity=".2"
         flood-color="#000"
         result="flood"
         id="feFlood19" /><feComposite
         in="flood"
         in2="SourceGraphic"
         operator="in"
         result="composite1"
         id="feComposite19" /><feGaussianBlur
         in="composite1"
         result="blur"
         id="feGaussianBlur19" /><feOffset
         dy="3"
         result="offset"
         id="feOffset19" /><feComposite
         in="SourceGraphic"
         in2="offset"
         result="composite2"
         id="feComposite20" /></filter><linearGradient
       id="e-2"
       gradientUnits="userSpaceOnUse"
       x1="11.959304"
       x2="69.959305"
       y1="70.5"
       y2="70.5"
       gradientTransform="matrix(3.9640173,0,0,3.9640173,168.18002,101.06611)"><stop
         offset="0"
         stop-color="#5e5c64"
         id="stop18-9" /><stop
         offset="0.0496858"
         stop-color="#898790"
         id="stop19-1" /><stop
         offset="0.0993507"
         stop-color="#5e5c64"
         id="stop20" /><stop
         offset="0.898941"
         stop-color="#5e5c64"
         id="stop21" /><stop
         offset="0.947088"
         stop-color="#4a484e"
         id="stop22" /><stop
         offset="1"
         stop-color="#5e5c64"
         id="stop23" /></linearGradient><linearGradient
       id="d-2"
       gradientUnits="userSpaceOnUse"
       x1="68.939423"
       x2="106.93942"
       y1="115.56251"
       y2="115.56251"
       gradientTransform="matrix(3.9640173,0,0,3.9640173,168.18002,101.06611)"><stop
         offset="0"
         stop-color="#6a6966"
         id="stop15-7" /><stop
         offset="0.471382"
         stop-color="#a09f9d"
         id="stop16-0" /><stop
         offset="1"
         stop-color="#a2a09e"
         id="stop17-9" /></linearGradient><linearGradient
       id="c-3"
       gradientUnits="userSpaceOnUse"
       x1="82.218414"
       x2="88.582375"
       y1="111.14143"
       y2="128.69684"
       gradientTransform="matrix(3.9640173,0,0,3.9640173,168.18002,101.06611)"><stop
         offset="0"
         stop-color="#f6f5f4"
         id="stop13-6" /><stop
         offset="1"
         stop-color="#cbc6c0"
         id="stop14-0" /></linearGradient><linearGradient
       id="b-6"
       gradientUnits="userSpaceOnUse"
       x1="67.939423"
       x2="108.02781"
       y1="109.06252"
       y2="109.06252"
       gradientTransform="matrix(3.9640173,0,0,3.9640173,168.18002,101.06611)"><stop
         offset="0"
         stop-color="#c0bfbc"
         id="stop7-2" /><stop
         offset="0.028318"
         stop-color="#dedddc"
         id="stop8-6" /><stop
         offset="0.0746196"
         stop-color="#bdbdb9"
         id="stop9-1" /><stop
         offset="0.654803"
         stop-color="#c4c3c0"
         id="stop10-8" /><stop
         offset="0.938916"
         stop-color="#b8b7b3"
         id="stop11-7" /><stop
         offset="1"
         stop-color="#9f9d99"
         id="stop12-9" /></linearGradient><linearGradient
       id="a-2"
       gradientTransform="matrix(3.4897781,0,0,3.9640173,838.00821,-1634.9257)"
       gradientUnits="userSpaceOnUse"
       x1="-126"
       x2="-58"
       y1="497"
       y2="497"><stop
         offset="0"
         stop-color="#ff6918"
         id="stop1-0" /><stop
         offset="0.0501698"
         stop-color="#ffa06d"
         id="stop2-2" /><stop
         offset="0.119985"
         stop-color="#c64600"
         id="stop3-3" /><stop
         offset="0.865315"
         stop-color="#c64600"
         id="stop4-7" /><stop
         offset="0.94231"
         stop-color="#8f3200"
         id="stop5-5" /><stop
         offset="1"
         stop-color="#c64600"
         id="stop6-9" /></linearGradient><filter
       id="c-8"
       height="1"
       width="1"
       x="0"
       y="0"><feColorMatrix
         in="SourceGraphic"
         type="matrix"
         values="0 0 0 0 1 0 0 0 0 1 0 0 0 0 1 0 0 0 1 0"
         id="feColorMatrix4" /></filter><filter
       id="filter1"
       height="1"
       width="1"
       x="0"
       y="0"><feColorMatrix
         in="SourceGraphic"
         type="matrix"
         values="0 0 0 0 1 0 0 0 0 1 0 0 0 0 1 0 0 0 1 0"
         id="feColorMatrix1" /></filter><filter
       id="filter2"
       height="1"
       width="1"
       x="0"
       y="0"><feColorMatrix
         in="SourceGraphic"
         type="matrix"
         values="0 0 0 0 1 0 0 0 0 1 0 0 0 0 1 0 0 0 1 0"
         id="feColorMatrix2" /></filter><linearGradient
       id="b-1"
       gradientTransform="matrix(0,-2,2,0,-271.70157,275.99)"
       gradientUnits="userSpaceOnUse"
       x1="0.99999899"
       x2="0.99999899"
       y1="215"
       y2="171"><stop
         offset="0"
         stop-color="#2166bb"
         id="stop3-2" /><stop
         offset="1"
         stop-color="#89eda9"
         id="stop4-9" /></linearGradient><linearGradient
       id="a-3"
       gradientUnits="userSpaceOnUse"
       x1="98"
       x2="108"
       y1="112"
       y2="112"
       gradientTransform="matrix(2,0,0,2,42.29843,33.99)"><stop
         offset="0"
         stop-color="#16529c"
         id="stop1-1" /><stop
         offset="1"
         stop-color="#236ac0"
         id="stop2-9" /></linearGradient><mask
       maskUnits="userSpaceOnUse"
       id="mask15"><g
         id="g17"
         transform="matrix(0.5,0,0,0.5,-13.149215,-0.995)"><g
           filter="url(#c)"
           id="g16"
           style="filter:url(#c-8)"
           transform="matrix(2,0,0,2,26.29843,1.99)"><rect
             fill-opacity="0.5"
             height="128"
             width="128"
             id="rect15"
             x="0"
             y="0" /></g></g></mask><mask
       maskUnits="userSpaceOnUse"
       id="mask19"><g
         id="g21"
         transform="matrix(0.5,0,0,0.5,-13.149215,-0.995)"><g
           filter="url(#c)"
           id="g20"
           style="filter:url(#c-8)"
           transform="matrix(2,0,0,2,26.29843,1.99)"><rect
             fill-opacity="0.5"
             height="128"
             width="128"
             id="rect19"
             x="0"
             y="0" /></g></g></mask><mask
       maskUnits="userSpaceOnUse"
       id="mask23"><g
         id="g25"
         transform="matrix(0.5,0,0,0.5,-13.149215,-0.995)"><g
           filter="url(#c)"
           id="g24"
           style="filter:url(#c-8)"
           transform="matrix(2,0,0,2,26.29843,1.99)"><rect
             fill-opacity="0.5"
             height="128"
             width="128"
             id="rect23"
             x="0"
             y="0" /></g></g></mask></defs><path
     d="m 170.29843,43.99 c 66.27344,0 120,53.72656 120,120 0,66.27344 -53.72656,120 -120,120 -66.27344,0 -120,-53.72656 -120,-120 0,-66.27344 53.72656,-120 120,-120 z m 0,0"
     fill="url(#a)"
     id="path9"
     style="fill:url(#a-3);stroke-width:2" /><path
     d="m 170.29843,43.99 c -66.27344,0 -120,53.72656 -120,120 0,66.27344 53.72656,120 120,120 z m 0,0"
     fill="url(#b)"
     id="path10"
     style="fill:url(#b-1);stroke-width:2" /><path
     d="m 290.29843,159.99 c 0,66.27344 -53.72656,120 -120,120 -66.27344,0 -120,-53.72656 -120,-120 0,-66.27344 53.72656,-120 120,-120 66.27344,0 120,53.72656 120,120 z m 0,0"
     fill="#40a1c8"
     id="path11"
     style="stroke-width:2" /><path
     d="m 98.30625,161.99 c 0.25,27.82812 5.76562,54.73438 15.67186,76.5 -7.8828,4.03126 -14.5625,8.88282 -19.72656,14.32032 C 66.97031,230.46656 50.89999,197.24782 50.31405,161.99 Z m 0,0"
     fill="#49bbb0"
     id="path12"
     style="stroke-width:2" /><path
     d="m 170.29843,225.99 v 54 c -9,0 -17.97656,-1.01562 -26.75,-3.02344 -11.60156,-8.11718 -21.78906,-21.3828 -29.5625,-38.47656 15.80468,-8.07812 35.73438,-12.5 56.3125,-12.5 z m 0,0"
     fill="#378bde"
     id="path13"
     style="stroke-width:2" /><path
     d="m 242.29061,161.99 c -0.25,27.82812 -5.76562,54.73438 -15.67968,76.5 7.89062,4.03126 14.5625,8.88282 19.72656,14.32032 27.28126,-22.34376 43.35156,-55.5625 43.94532,-90.82032 z m 0,0"
     fill="#266ec6"
     id="path14"
     style="stroke-width:2" /><path
     d="m 170.29843,161.99 v 118 c 9,0 17.97656,-1.01562 26.75,-3.02344 26.94532,-18.86718 44.78124,-64.19532 45.24218,-114.97656 z m 0,0"
     fill="#378bde"
     id="path15"
     style="stroke-width:2" /><path
     d="m 170.29843,225.99 v 54 c 9,0 17.97656,-1.01562 26.75,-3.02344 11.60156,-8.11718 21.78906,-21.3828 29.5625,-38.47656 -15.80468,-8.07812 -35.73438,-12.5 -56.3125,-12.5 z m 0,0"
     fill="#266ec6"
     id="path16"
     style="stroke-width:2" /><path
     d="m 226.61875,238.49 c -7.78126,17.09376 -17.96876,30.35156 -29.5625,38.47656 18.0703,-4.1328 34.9453,-12.40624 49.28906,-24.15624 -5.16406,-5.4375 -11.84376,-10.28906 -19.72656,-14.32032 z m 0,0"
     fill="#1e62b5"
     id="path17"
     style="stroke-width:2" /><path
     d="m 170.29843,39.99 c -66.27344,0 -120,53.72656 -120,120 0,0.66406 0.008,1.33594 0.016,2 h 119.984 z m 0,0"
     fill="#53d795"
     id="path18"
     style="stroke-width:2" /><path
     d="m 143.54843,43.00562 c -18.07812,4.14062 -34.95312,12.40626 -49.29688,24.15626 5.16406,5.4453 11.84376,10.28906 19.73438,14.32812 7.78124,-17.10156 17.96874,-30.35938 29.5625,-38.48438 z m 0,0"
     fill="#72e99a"
     id="path19"
     style="stroke-width:2" /><path
     d="m 170.29843,39.99 c -9,0 -17.96876,1.01562 -26.75,3.01562 -27.32812,19.14062 -45.25,65.46876 -45.25,116.98438 0,0.66406 0,1.33594 0.008,2 h 71.992 z m 0,0"
     fill="#49bbb0"
     id="path20"
     style="stroke-width:2" /><path
     d="m 170.29843,39.99 c -9,0 -17.96876,1.01562 -26.75,3.01562 -11.59376,8.125 -21.78126,21.38282 -29.5625,38.48438 15.8125,8.07812 35.73438,12.5 56.3125,12.5 z m 0,0"
     fill="#53d795"
     id="path21"
     style="stroke-width:2" /><path
     d="m 170.29843,39.99 c 66.27344,0 120,53.72656 120,120 0,0.66406 -0.008,1.33594 -0.016,2 h -119.984 z m 0,0"
     fill="#378bde"
     id="path22"
     style="stroke-width:2" /><path
     d="m 197.04843,43.00562 c 18.07812,4.14062 34.95312,12.40626 49.29688,24.15626 -5.16406,5.4453 -11.84376,10.28906 -19.72656,14.3203 -7.78908,-17.09374 -17.97658,-30.35156 -29.57032,-38.47656 z m 0,0"
     fill="#40a1c8"
     id="path23-4"
     style="stroke-width:2" /><path
     d="m 170.29843,39.99 c 9,0 17.97656,1.01562 26.75,3.01562 27.32812,19.14062 45.25,65.46876 45.25,116.98438 0,0.66406 0,1.33594 -0.008,2 h -71.992 z m 0,0"
     fill="#40a1c8"
     id="path24-7"
     style="stroke-width:2" /><path
     d="m 170.29843,39.99 c 9,0 17.97656,1.01562 26.75,3.01562 11.59374,8.125 21.78124,21.38282 29.5625,38.47656 C 210.79843,89.56812 190.87655,93.99 170.29843,93.99 Z m 0,0"
     fill="#49bbb0"
     id="path25-8"
     style="stroke-width:2" /><path
     style="fill:none;fill-opacity:1;stroke:#c0bfbc;stroke-width:16;stroke-linejoin:round;stroke-dasharray:16, 16;stroke-dashoffset:0;stroke-opacity:1;paint-order:stroke fill markers"
     d="M 170.78615,283.98996 V 457.36139 H 482.29843"
     id="path52" /><rect
     style="fill:#c0bfbc;fill-opacity:1;stroke:none;stroke-width:16;stroke-linejoin:round;stroke-dasharray:16, 16;stroke-dashoffset:0;stroke-opacity:1;paint-order:stroke fill markers"
     id="rect52"
     width="9.9557714"
     height="5.7672591"
     x="455.40564"
     y="-178.78455"
     transform="rotate(90)"
     inkscape:transform-center-x="7.108141"
     inkscape:transform-center-y="-7.654921" /><rect
     style="fill:#af1515;fill-opacity:1;stroke-width:9.41677;stroke-linecap:round;paint-order:stroke fill markers;stop-color:#000000"
     id="rect844-8-5-5-4-1"
     width="170.96407"
     height="271.58554"
     x="960.08234"
     y="466.06613"
     transform="matrix(0.98802429,0.15429844,-0.85036973,0.52618563,0,0)"
     rx="20.104107" /><rect
     style="fill:#d11010;fill-opacity:1;stroke-width:8.21017;stroke-linecap:round;paint-order:stroke fill markers;stop-color:#000000"
     id="rect844-8-5-5-4-3-1"
     width="149.05792"
     height="236.78644"
     x="961.22241"
     y="466.37726"
     transform="matrix(0.98802429,0.15429844,-0.85036973,0.52618563,0,0)"
     rx="17.528105" /><rect
     style="fill:#e1a100;fill-opacity:1;stroke-width:9.41677;stroke-linecap:round;paint-order:stroke fill markers;stop-color:#000000"
     id="rect844-3-58-04-3-2-5"
     width="151.96808"
     height="271.58554"
     x="780.88391"
     y="268.23926"
     transform="matrix(0.98802429,0.15429844,-0.85036973,0.52618563,0,0)"
     rx="20.104107" /><rect
     style="fill:#ffb908;fill-opacity:1;stroke-width:8.07621;stroke-linecap:round;paint-order:stroke fill markers;stop-color:#000000"
     id="rect844-3-58-04-3-2-7-9"
     width="130.33415"
     height="232.92308"
     x="781.49963"
     y="268.77576"
     transform="matrix(0.98802429,0.15429844,-0.85036973,0.52618563,0,0)"
     rx="17.242119" /><rect
     style="fill:#007ed1;fill-opacity:1;stroke-width:9.41677;stroke-linecap:round;paint-order:stroke fill markers;stop-color:#000000"
     id="rect844-3-5-43-8-8-2-8"
     width="75.984039"
     height="130.13474"
     x="960.74762"
     y="310.31949"
     transform="matrix(0.98802429,0.15429844,-0.85036973,0.52618563,0,0)"
     rx="20.104107"
     inkscape:export-filename="aosc-os.png"
     inkscape:export-xdpi="90.311111"
     inkscape:export-ydpi="90.311111" /><rect
     style="fill:#0099fe;fill-opacity:1;stroke-width:7.61669;stroke-linecap:round;paint-order:stroke fill markers;stop-color:#000000"
     id="rect844-3-5-43-8-8-2-6-4"
     width="61.459171"
     height="105.25861"
     x="961.13275"
     y="311.16953"
     transform="matrix(0.98802429,0.15429844,-0.85036973,0.52618563,0,0)"
     rx="16.261072"
     inkscape:export-filename="aosc-os.png"
     inkscape:export-xdpi="90.311111"
     inkscape:export-ydpi="90.311111" /><rect
     style="fill:#b4b4b4;fill-opacity:1;stroke-width:9.41677;stroke-linecap:round;paint-order:stroke fill markers;stop-color:#000000"
     id="rect844-3-6-71-7-8-7-8"
     width="94.980042"
     height="169.74094"
     x="660.31024"
     y="143.43758"
     transform="matrix(0.98802429,0.15429844,-0.85036973,0.52618563,0,0)"
     inkscape:transform-center-x="5.6372972"
     inkscape:transform-center-y="33.13425"
     rx="20.104107"
     inkscape:export-filename="test3"
     inkscape:export-xdpi="90.311111"
     inkscape:export-ydpi="90.311111" /><rect
     style="fill:#c8c8c8;fill-opacity:1;stroke-width:7.63497;stroke-linecap:round;paint-order:stroke fill markers;stop-color:#000000"
     id="rect844-3-6-71-7-8-7-5-1"
     width="77.008438"
     height="137.6235"
     x="660.45032"
     y="144.34966"
     transform="matrix(0.98802429,0.15429844,-0.85036973,0.52618563,0,0)"
     inkscape:transform-center-x="4.5706457"
     inkscape:transform-center-y="26.864777"
     rx="16.300117"
     inkscape:export-filename="test3"
     inkscape:export-xdpi="90.311111"
     inkscape:export-ydpi="90.311111" /></svg>
