<svg height="600" width="800" xmlns:xlink="http://www.w3.org/1999/xlink" xmlns="http://www.w3.org/2000/svg"><defs><linearGradient xlink:href="#a" id="f" x1="79.665" y1="149.906" x2="593.983" y2="149.906" gradientUnits="userSpaceOnUse" gradientTransform="matrix(.5686 0 0 .5686 1420.086 -2224.426)"/><linearGradient id="a"><stop offset="0" style="stop-color:#f9f06b;stop-opacity:1"/><stop offset=".378" style="stop-color:#57e389;stop-opacity:1"/><stop offset="1" style="stop-color:#3584e4;stop-opacity:1"/></linearGradient><linearGradient xlink:href="#b" id="i" gradientUnits="userSpaceOnUse" x1="20" y1="238" x2="108" y2="238"/><linearGradient id="b"><stop offset="0" style="stop-color:#deddda;stop-opacity:1"/><stop style="stop-color:#eeeeec;stop-opacity:1" offset=".045"/><stop offset=".091" style="stop-color:#deddda;stop-opacity:1"/><stop style="stop-color:#deddda;stop-opacity:1" offset=".909"/><stop offset=".955" style="stop-color:#eeeeec;stop-opacity:1"/><stop offset="1" style="stop-color:#c0bfbc;stop-opacity:1"/></linearGradient><linearGradient xlink:href="#b" id="n" gradientUnits="userSpaceOnUse" gradientTransform="translate(2 -22)" x1="50" y1="238" x2="74" y2="238"/><linearGradient xlink:href="#c" id="o" gradientUnits="userSpaceOnUse" x1="65" y1="204" x2="65" y2="200"/><linearGradient id="c"><stop style="stop-color:#9a9996;stop-opacity:1" offset="0"/><stop style="stop-color:#c0bfbc;stop-opacity:1" offset="1"/></linearGradient><linearGradient xlink:href="#b" id="j" gradientUnits="userSpaceOnUse" gradientTransform="translate(2 -22)" x1="50" y1="238" x2="74" y2="238"/><linearGradient xlink:href="#c" id="k" gradientUnits="userSpaceOnUse" x1="65" y1="204" x2="65" y2="200"/><linearGradient xlink:href="#b" id="l" gradientUnits="userSpaceOnUse" gradientTransform="translate(2 -22)" x1="50" y1="238" x2="74" y2="238"/><linearGradient xlink:href="#c" id="m" gradientUnits="userSpaceOnUse" x1="65" y1="204" x2="65" y2="200"/><linearGradient id="d"><stop offset="0" stop-color="#eae9e7"/><stop offset=".208" stop-color="#cac8c4" stop-opacity=".953"/><stop offset=".745" stop-color="#ebeae9" stop-opacity=".972"/><stop offset="1" stop-color="#d5d3cf" stop-opacity=".925"/></linearGradient><linearGradient id="e"><stop style="stop-color:#1a5fb4;stop-opacity:1" offset="0"/><stop offset=".739" style="stop-color:#9a9996;stop-opacity:1"/><stop style="stop-color:#deddda;stop-opacity:1" offset=".896"/><stop style="stop-color:#9a9996;stop-opacity:1" offset="1"/></linearGradient><radialGradient r="60" fy="229.123" fx="-81.054" cy="229.123" cx="-81.054" gradientUnits="userSpaceOnUse" id="h" xlink:href="#e"/><filter id="g" color-interpolation-filters="sRGB" x="0" y="0" width="1" height="1.008"><feFlood flood-opacity=".2" flood-color="#000" result="flood"/><feComposite in="flood" in2="SourceGraphic" operator="in" result="composite1"/><feGaussianBlur in="composite1" result="blur"/><feOffset dy="3" result="offset"/><feComposite in="SourceGraphic" in2="offset" result="composite2"/></filter></defs><path style="font-variation-settings:normal;display:inline;fill:url(#f);fill-opacity:1;stroke:none;stroke-width:3.34167;stroke-linecap:butt;stroke-linejoin:miter;stroke-miterlimit:4;stroke-dasharray:none;stroke-dashoffset:0;stroke-opacity:.85098;marker:none;stop-color:#000" d="M1475.785-2222.679c-6.587-.105-12.012 5.15-12.117 11.736-.105 6.587 5.148 12.013 11.735 12.118.438-.01 18.374.011 18.8.05 5.988.55 10.722 5.537 10.82 11.685.106 6.588-5.149 12.013-11.736 12.119h-59.248a11.901 11.901 0 0 0-11.927 11.927c0 6.607 5.32 11.927 11.927 11.927h24.75c6.588-.105 12.013 5.149 12.119 11.736.105 6.587-5.15 12.013-11.737 12.118-6.587-.105-12.011 5.149-12.117 11.735 0 6.693 5.425 12.12 12.117 12.12h30.935c6.588-.106 12.012 5.147 12.118 11.734 0 6.693-5.425 12.119-12.118 12.119h-17.442c-6.587-.106-12.012 5.15-12.118 11.736 0 6.693 5.426 12.117 12.118 12.117h202.588c6.587.105 12.012-5.148 12.118-11.735.105-6.587-5.15-12.013-11.736-12.118-.24.01-42.776 0-43.013-.011-6.26-.27-11.302-5.38-11.404-11.726 0-6.693 5.426-12.118 12.119-12.118h112.367c6.587.105 12.012-5.15 12.118-11.737 0-6.692-5.426-12.117-12.118-12.117h-35.82c-6.586.106-12.011-5.149-12.116-11.736-.106-6.587 5.148-12.012 11.735-12.118h4.435a11.9 11.9 0 0 0 11.926-11.927 11.9 11.9 0 0 0-11.926-11.927h-95.028c-6.587.105-12.012-5.148-12.117-11.735 0-6.693 5.425-12.12 12.118-12.12h47.756c6.587.106 12.013-5.147 12.118-11.735 0-6.692-5.426-12.118-12.118-12.118z" transform="matrix(1.85197 0 0 1.85197 -2541.073 4267.785)"/><g transform="matrix(1.9805 0 0 1.9805 84.71 -307.27)" style="display:inline;filter:url(#g);enable-background:new"><g style="display:inline;enable-background:new" transform="translate(145.59 4.877)"><path style="display:inline;opacity:1;fill:#5e5c64;fill-opacity:1;stroke:none;stroke-width:.0112982px;stroke-linecap:butt;stroke-linejoin:miter;stroke-miterlimit:4;stroke-dasharray:none;stroke-dashoffset:0;stroke-opacity:1;marker:none;marker-start:none;marker-mid:none;marker-end:none;paint-order:normal;enable-background:new" d="M-21.59 232.123a60 60 0 0 1-60 60 60 60 0 0 1-60-60 60 60 0 0 1 60-60 60 60 0 0 1 60 60z"/><path d="M-21.59 230.123a60 60 0 0 1-60 60 60 60 0 0 1-60-60 60 60 0 0 1 60-60 60 60 0 0 1 60 60z" style="display:inline;opacity:1;fill:url(#h);fill-opacity:1;stroke:none;stroke-width:.0112982px;stroke-linecap:butt;stroke-linejoin:miter;stroke-miterlimit:4;stroke-dasharray:none;stroke-dashoffset:0;stroke-opacity:1;marker:none;marker-start:none;marker-mid:none;marker-end:none;paint-order:normal;enable-background:new"/><circle transform="rotate(-90)" r="49" style="display:inline;opacity:1;fill:#f6f5f4;fill-opacity:1;stroke:none;stroke-width:.010252px;stroke-linecap:butt;stroke-linejoin:miter;stroke-miterlimit:4;stroke-dasharray:none;stroke-dashoffset:0;stroke-opacity:1;marker:none;marker-start:none;marker-mid:none;marker-end:none;paint-order:normal;enable-background:new" cx="-230.123" cy="-81.59"/></g><circle style="fill:#f6f5f4;fill-opacity:1;stroke:#c0bfbc;stroke-width:4;stroke-linecap:round;stroke-linejoin:round;stroke-opacity:1" cx="64" cy="235" r="23"/><g style="display:inline;fill:#c0bfbc;fill-opacity:1;enable-background:new"><path d="m61 212 3-20 3 20zM41.037 236.848l-20-3 20-3zM86.987 237.335l20-3-20-3zM61.609 257.99l3 20 3-20z" style="fill:#c0bfbc;fill-opacity:1;stroke:none;stroke-width:1px;stroke-linecap:butt;stroke-linejoin:miter;stroke-opacity:1"/></g><g transform="translate(0 -1)"><g style="display:inline;enable-background:new"><path style="fill:#ed333b;fill-opacity:1;stroke:none;stroke-width:.13337px;stroke-linecap:butt;stroke-linejoin:miter;stroke-opacity:1" d="m71.071 229.38-14.142 14.142-24.87-39.013Z" transform="matrix(0 1 1 0 -172.338 172.113)"/><path d="m71.071 229.38-14.142 14.142 38.786 24.644Z" style="fill:#3584e4;fill-opacity:1;stroke:none;stroke-width:.13337px;stroke-linecap:butt;stroke-linejoin:miter;stroke-opacity:1" transform="matrix(0 1 1 0 -172.338 172.113)"/><path d="M71.071 229.38 64 236.45l-31.942-31.94Z" style="fill:#a51d2d;fill-opacity:1;stroke:none;stroke-width:.13337px;stroke-linecap:butt;stroke-linejoin:miter;stroke-opacity:1" transform="matrix(0 1 1 0 -172.338 172.113)"/><path style="fill:#1755a1;fill-opacity:1;stroke:none;stroke-width:.13337px;stroke-linecap:butt;stroke-linejoin:miter;stroke-opacity:1" d="M71.071 229.38 64 236.45l31.715 31.716z" transform="matrix(0 1 1 0 -172.338 172.113)"/></g><circle style="opacity:1;fill:#f6f5f4;fill-opacity:1;stroke:none;stroke-width:4;stroke-linecap:round;stroke-linejoin:round;stroke-opacity:1" cx="64" cy="236" r="3.5"/></g></g><g transform="matrix(1.4964 0 0 1.4964 -2173.992 184.798)" style="display:inline;stroke-width:2.03271;filter:url(#g)"><path style="opacity:1;fill:#77767b;fill-opacity:1;stroke:none;stroke-width:2.03271px;stroke-linecap:butt;stroke-linejoin:miter;stroke-opacity:1" d="M1579.08 24.74a15 15 45 0 1 15 15v72a3 3 45 0 0 3 3h1a3 3 135 0 0 3-3v-8a14 14 135 0 1 14-14 14 14 45 0 1 14 14v8a3 3 45 0 0 3 3h1a3 3 135 0 0 3-3v-8a14 14 135 0 1 14-14 14 14 45 0 1 14 14v8a3 3 45 0 0 3 3h1a3 3 135 0 0 3-3v-1a14 14 135 0 1 14-14 14 14 45 0 1 14 14v74a30 30 135 0 1-30 30h-80a48.284 48.284 22.5 0 1-34.141-14.142l-47.511-47.51a13.61 13.61 85.935 0 1-1.265-17.791l.835-1.113a12.198 12.198 170.931 0 1 16.753-2.674l28.041 19.628a7.81 7.81 152.496 0 0 12.289-6.398v-105a15 15 135 0 1 15-15z"/><path style="opacity:1;fill:#5e5c64;fill-opacity:1;stroke:none;stroke-width:4.98724px;stroke-linecap:butt;stroke-linejoin:miter;stroke-opacity:1" d="M64.248 349.285a33.393 33.393 0 0 0 5.533 39.45l116.567 116.568A118.465 118.465 0 0 0 270.115 540h196.28A73.605 73.605 0 0 0 540 466.395v-31.836a73.605 73.605 0 0 1-73.605 73.605h-196.28a118.465 118.465 0 0 1-83.767-34.697L69.78 356.898a33.393 33.393 0 0 1-5.533-7.613z" transform="translate(1478.986 -5.354) scale(.40758)"/></g><g transform="matrix(2.1516 0 0 2.14907 -421.7 -5550.978)" style="filter:url(#g)"><path style="display:inline;overflow:visible;visibility:visible;fill:#000;fill-opacity:0;fill-rule:nonzero;stroke:none;stroke-width:.5;marker:none;enable-background:accumulate" fill="none" d="M435 2729h128v128H435z"/><g transform="translate(435 2557)" style="display:inline;enable-background:new"><rect style="opacity:1;fill:url(#i);fill-opacity:1;stroke:none;stroke-width:.0118497px;stroke-linecap:butt;stroke-linejoin:miter;stroke-miterlimit:4;stroke-dasharray:none;stroke-dashoffset:0;stroke-opacity:1;marker:none;marker-start:none;marker-mid:none;marker-end:none;paint-order:normal" width="88" height="58" x="20" y="234" rx="8" ry="8"/><rect ry="8" rx="8" y="180" x="20" height="108" width="88" style="opacity:1;fill:#f6f5f4;fill-opacity:1;stroke:none;stroke-width:.0118497px;stroke-linecap:butt;stroke-linejoin:miter;stroke-miterlimit:4;stroke-dasharray:none;stroke-dashoffset:0;stroke-opacity:1;marker:none;marker-start:none;marker-mid:none;marker-end:none;paint-order:normal"/><rect style="display:inline;opacity:1;fill:#1a5fb4;fill-opacity:1;stroke:none;stroke-width:.0119126px;stroke-linecap:butt;stroke-linejoin:miter;stroke-miterlimit:4;stroke-dasharray:none;stroke-dashoffset:0;stroke-opacity:1;marker:none;marker-start:none;marker-mid:none;marker-end:none;paint-order:normal;enable-background:new" width="80" height="98" x="24" y="186" rx="4" ry="4"/><rect ry="4" rx="4" y="184" x="24" height="98" width="80" style="display:inline;opacity:1;fill:#3584e4;fill-opacity:1;stroke:none;stroke-width:.0119126px;stroke-linecap:butt;stroke-linejoin:miter;stroke-miterlimit:4;stroke-dasharray:none;stroke-dashoffset:0;stroke-opacity:1;marker:none;marker-start:none;marker-mid:none;marker-end:none;paint-order:normal;enable-background:new"/><rect ry="0" rx="0" y="216" x="24" height="2" width="80" style="display:inline;opacity:1;fill:#1c71d8;fill-opacity:1;stroke:none;stroke-width:.0119094px;stroke-linecap:butt;stroke-linejoin:miter;stroke-miterlimit:4;stroke-dasharray:none;stroke-dashoffset:0;stroke-opacity:1;marker:none;marker-start:none;marker-mid:none;marker-end:none;paint-order:normal;enable-background:new"/><rect ry="0" rx="0" y="248" x="24" height="2" width="80" style="display:inline;opacity:1;fill:#1c71d8;fill-opacity:1;stroke:none;stroke-width:.0119094px;stroke-linecap:butt;stroke-linejoin:miter;stroke-miterlimit:4;stroke-dasharray:none;stroke-dashoffset:0;stroke-opacity:1;marker:none;marker-start:none;marker-mid:none;marker-end:none;paint-order:normal;enable-background:new"/><path style="opacity:1;fill:url(#j);fill-opacity:1;stroke:none;stroke-width:.0118497px;stroke-linecap:butt;stroke-linejoin:miter;stroke-miterlimit:4;stroke-dasharray:none;stroke-dashoffset:0;stroke-opacity:1;marker:none;marker-start:none;marker-mid:none;marker-end:none;paint-order:normal" d="M55 196h18c1.662 0 3 1 3 3v5h-3.969L72 200H56l.031 4H52v-5c0-1.662 1.338-3 3-3z"/><rect rx="1.5" ry="1.5" y="202" x="52" height="4" width="24" style="opacity:.1;fill:#000;fill-opacity:1;stroke:none;stroke-width:4;stroke-linecap:butt;stroke-linejoin:miter;stroke-miterlimit:4;stroke-dasharray:none;stroke-dashoffset:0;stroke-opacity:1"/><path d="M55 200c-1.662 0-3 1.338-3 3v1h4v-2h16v2h4v-1c0-1.662-1.338-3-3-3z" style="opacity:1;fill:url(#k);fill-opacity:1;stroke:none;stroke-width:4;stroke-linecap:butt;stroke-linejoin:miter;stroke-miterlimit:4;stroke-dasharray:none;stroke-dashoffset:0;stroke-opacity:1"/><path style="opacity:.1;fill:#000;fill-opacity:1;stroke:none;stroke-width:4;stroke-linecap:butt;stroke-linejoin:miter;stroke-miterlimit:4;stroke-dasharray:none;stroke-dashoffset:0;stroke-opacity:1" d="M56 202h16v2H56z"/><g style="stroke-width:1.18619" transform="translate(0 32)"><path style="opacity:1;fill:url(#l);fill-opacity:1;stroke:none;stroke-width:.014056px;stroke-linecap:butt;stroke-linejoin:miter;stroke-miterlimit:4;stroke-dasharray:none;stroke-dashoffset:0;stroke-opacity:1;marker:none;marker-start:none;marker-mid:none;marker-end:none;paint-order:normal" d="M55 196h18c1.662 0 3 1 3 3v5h-3.969L72 200H56l.031 4H52v-5c0-1.662 1.338-3 3-3z"/><rect rx="1.779" ry="1.779" y="202" x="52" height="4" width="24" style="opacity:.1;fill:#000;fill-opacity:1;stroke:none;stroke-width:4.74477;stroke-linecap:butt;stroke-linejoin:miter;stroke-miterlimit:4;stroke-dasharray:none;stroke-dashoffset:0;stroke-opacity:1"/><path d="M55 200c-1.662 0-3 1.338-3 3v1h4v-2h16v2h4v-1c0-1.662-1.338-3-3-3z" style="opacity:1;fill:url(#m);fill-opacity:1;stroke:none;stroke-width:4.74477;stroke-linecap:butt;stroke-linejoin:miter;stroke-miterlimit:4;stroke-dasharray:none;stroke-dashoffset:0;stroke-opacity:1"/><path style="opacity:.1;fill:#000;fill-opacity:1;stroke:none;stroke-width:4.74477;stroke-linecap:butt;stroke-linejoin:miter;stroke-miterlimit:4;stroke-dasharray:none;stroke-dashoffset:0;stroke-opacity:1" d="M56 202h16v2H56z"/></g><g style="stroke-width:1.18619" transform="translate(0 64)"><path style="opacity:1;fill:url(#n);fill-opacity:1;stroke:none;stroke-width:.014056px;stroke-linecap:butt;stroke-linejoin:miter;stroke-miterlimit:4;stroke-dasharray:none;stroke-dashoffset:0;stroke-opacity:1;marker:none;marker-start:none;marker-mid:none;marker-end:none;paint-order:normal" d="M55 196h18c1.662 0 3 1 3 3v5h-3.969L72 200H56l.031 4H52v-5c0-1.662 1.338-3 3-3z"/><rect rx="1.779" ry="1.779" y="202" x="52" height="4" width="24" style="opacity:.1;fill:#000;fill-opacity:1;stroke:none;stroke-width:4.74477;stroke-linecap:butt;stroke-linejoin:miter;stroke-miterlimit:4;stroke-dasharray:none;stroke-dashoffset:0;stroke-opacity:1"/><path d="M55 200c-1.662 0-3 1.338-3 3v1h4v-2h16v2h4v-1c0-1.662-1.338-3-3-3z" style="opacity:1;fill:url(#o);fill-opacity:1;stroke:none;stroke-width:4.74477;stroke-linecap:butt;stroke-linejoin:miter;stroke-miterlimit:4;stroke-dasharray:none;stroke-dashoffset:0;stroke-opacity:1"/><path style="opacity:.1;fill:#000;fill-opacity:1;stroke:none;stroke-width:4.74477;stroke-linecap:butt;stroke-linejoin:miter;stroke-miterlimit:4;stroke-dasharray:none;stroke-dashoffset:0;stroke-opacity:1" d="M56 202h16v2H56z"/></g></g></g></svg>