<svg height="600" width="800" xmlns:xlink="http://www.w3.org/1999/xlink" xmlns="http://www.w3.org/2000/svg"><defs><linearGradient id="f"><stop style="stop-color:#1a5fb4;stop-opacity:1" offset="0"/><stop style="stop-color:#99c1f1;stop-opacity:1" offset=".093"/><stop style="stop-color:#1756a2;stop-opacity:1" offset=".207"/><stop style="stop-color:#1754a0;stop-opacity:1" offset=".815"/><stop style="stop-color:#154d92;stop-opacity:1" offset=".924"/><stop style="stop-color:#1a5fb4;stop-opacity:1" offset="1"/></linearGradient><linearGradient id="b"><stop style="stop-color:#986a44;stop-opacity:1" offset="0"/><stop style="stop-color:#33d17a;stop-opacity:0" offset="1"/></linearGradient><linearGradient xlink:href="#a" id="k" x1="1480" y1="-2143.216" x2="1719.727" y2="-2143.216" gradientUnits="userSpaceOnUse" gradientTransform="translate(0 -64.796)"/><linearGradient id="a"><stop style="stop-color:#9141ac;stop-opacity:1" offset="0"/><stop style="stop-color:#33d17a;stop-opacity:1" offset=".228"/><stop style="stop-color:#f5c211;stop-opacity:1" offset=".511"/><stop style="stop-color:#e66100;stop-opacity:1" offset=".789"/><stop style="stop-color:#26a269;stop-opacity:1" offset="1"/></linearGradient><linearGradient xlink:href="#b" id="l" gradientUnits="userSpaceOnUse" gradientTransform="translate(0 -64.796)" x1="1485.487" y1="-2061.475" x2="1485.487" y2="-2142.47"/><linearGradient gradientTransform="matrix(1.51652 0 0 1.51652 1644.085 -2438.92)" y2="281" x2="66.088" y1="281" x1="26" gradientUnits="userSpaceOnUse" id="n" xlink:href="#c"/><linearGradient id="c"><stop offset="0" style="stop-color:#c0bfbc;stop-opacity:1"/><stop style="stop-color:#dedddc;stop-opacity:1" offset=".028"/><stop style="stop-color:#bdbdb9;stop-opacity:1" offset=".075"/><stop offset=".655" style="stop-color:#c4c3c0;stop-opacity:1"/><stop style="stop-color:#b8b7b3;stop-opacity:1" offset=".939"/><stop offset="1" style="stop-color:#9f9d99;stop-opacity:1"/></linearGradient><linearGradient y2="304.634" x2="46.643" y1="287.079" x1="40.279" gradientTransform="matrix(1.51652 0 0 1.51652 1644.085 -2444.986)" gradientUnits="userSpaceOnUse" id="o" xlink:href="#d"/><linearGradient id="d"><stop style="stop-color:#f6f5f4;stop-opacity:1" offset="0"/><stop style="stop-color:#cbc6c0;stop-opacity:1" offset="1"/></linearGradient><linearGradient y2="291.5" x2="65" y1="291.5" x1="27" gradientTransform="matrix(1.51652 0 0 1.51652 1644.085 -2444.986)" gradientUnits="userSpaceOnUse" id="p" xlink:href="#e"/><linearGradient id="e"><stop offset="0" style="stop-color:#6a6966;stop-opacity:1"/><stop style="stop-color:#a09f9d;stop-opacity:1" offset=".471"/><stop offset="1" style="stop-color:#a2a09e;stop-opacity:1"/></linearGradient><linearGradient xlink:href="#f" id="m" x1="1666.955" y1="-2041.591" x2="1760.87" y2="-2041.591" gradientUnits="userSpaceOnUse"/><linearGradient xlink:href="#g" id="h" x1="460" y1="550" x2="460" y2="250" gradientUnits="userSpaceOnUse" gradientTransform="matrix(.53997 0 0 .53997 1371.258 -2306.458)"/><linearGradient id="g"><stop style="stop-color:#1c71d8;stop-opacity:1" offset="0"/><stop style="stop-color:#113d73;stop-opacity:1" offset="1"/></linearGradient><clipPath clipPathUnits="userSpaceOnUse" id="i"><rect style="fill:#9141ac;fill-opacity:1;stroke:none;stroke-width:30;stroke-linecap:round;stroke-linejoin:round;stroke-miterlimit:4;stroke-dasharray:none;stroke-opacity:.482318;stop-color:#000" width="443.742" height="423.922" x="2.836" y="361.125" rx="0" ry="0"/></clipPath><clipPath clipPathUnits="userSpaceOnUse" id="j"><circle style="display:inline;fill:#9141ac;fill-opacity:1;stroke:none;stroke-width:30;stroke-linecap:round;stroke-linejoin:round;stroke-miterlimit:4;stroke-dasharray:none;stroke-opacity:.482318;stop-color:#000" cx="60.445" cy="758.586" r="252.859"/></clipPath></defs><g transform="matrix(1.85197 0 0 1.85197 -2541.073 4267.785)"><path style="fill:url(#h);fill-opacity:1;stroke-width:4.49921;-inkscape-stroke:none;stop-color:#000" d="M1511.65-2175.688a16.235 16.235 0 0 0 17.278 15.12h30.238a17.279 17.279 0 0 1 17.28 17.278 16.25 16.25 0 0 1-17.28 15.153h-77.377a17.279 17.279 0 0 0-17.279 17.279 16.235 16.235 0 0 0 17.279 15.12h1.782a17.279 17.279 0 0 1 17.28 17.279 16.219 16.219 0 0 0 17.278 15.084h8.64a17.279 17.279 0 0 1 17.278 17.28 13.138 13.138 0 0 1-10.799 15.118v32.398h79.915a17.279 17.279 0 0 0 17.28-17.279 16.235 16.235 0 0 1 17.278-15.119h84.235a17.279 17.279 0 0 0 17.279-17.279 16.235 16.235 0 0 0-17.28-15.119h-8.639a17.279 17.279 0 0 1-17.279-17.279 16.219 16.219 0 0 1 17.28-15.084h16.738a17.279 17.279 0 0 0 17.28-17.279 16.235 16.235 0 0 0-17.28-15.12h-54.536a17.279 17.279 0 0 1-17.28-17.279 16.25 16.25 0 0 1 17.28-15.153h97.734a17.279 17.279 0 0 0 17.279-17.279 16.235 16.235 0 0 0-17.28-15.119h-254.324a17.279 17.279 0 0 0-17.278 17.28z"/><g clip-path="url(#i)" transform="matrix(.58269 0 0 .58269 1386.942 -2456.06)" style="display:inline"><circle style="fill:#99c1f1;fill-opacity:.581362;stroke:none;stroke-width:30;stroke-linecap:round;stroke-linejoin:round;stroke-miterlimit:4;stroke-dasharray:none;stroke-opacity:.482318;stop-color:#000" cx="60.445" cy="758.586" r="277.127"/><g clip-path="url(#j)"><circle style="fill:#1a5fb4;fill-opacity:1;stroke:none;stroke-width:30;stroke-linecap:round;stroke-linejoin:round;stroke-miterlimit:4;stroke-dasharray:none;stroke-opacity:.482318;stop-color:#000" cx="60.445" cy="758.586" r="252.859"/><path style="fill:#26a269;fill-opacity:1;stroke:none;stroke-width:30;stroke-linecap:round;stroke-linejoin:round;stroke-miterlimit:4;stroke-dasharray:none;stroke-opacity:.482318;stop-color:#000" d="M143.604 635.834v12.787a30 30 135 0 1-30 30h-3.381a30 30 135 0 0-30 30v21.38a30 30 45 0 0 30 30h49.771a30 30 45 0 1 30 30 22.292 22.292 17.9 0 0 30 9.69h74.567a30 30 135 0 0 30-30V635.834a30 30 45 0 0-30-30H173.604a30 30 135 0 0-30 30z"/><rect style="fill:#26a269;fill-opacity:1;stroke:none;stroke-width:30;stroke-linecap:round;stroke-linejoin:round;stroke-miterlimit:4;stroke-dasharray:none;stroke-opacity:.482318;stop-color:#000" width="48.962" height="84.074" x="52.351" y="577.554" rx="24.481" ry="24.481"/><rect style="fill:#26a269;fill-opacity:1;stroke:none;stroke-width:30;stroke-linecap:round;stroke-linejoin:round;stroke-miterlimit:4;stroke-dasharray:none;stroke-opacity:.482318;stop-color:#000" width="119.844" height="44.28" x="141.501" y="540.627" rx="22.14" ry="22.14"/></g><path style="fill:#fff;fill-opacity:1;stroke:none;stroke-width:30;stroke-linecap:round;stroke-linejoin:round;stroke-miterlimit:4;stroke-dasharray:none;stroke-opacity:.482318;stop-color:#000" d="M314.623 601.228a40.625 40.625 0 0 0-36.363 22.576 32.599 32.599 0 0 0-3.09-.148 32.599 32.599 0 0 0-32.6 32.6 32.599 32.599 0 0 0 .9 7.61h136.434a27.262 27.262 0 0 0-24.814-25.949 40.625 40.625 0 0 0-40.434-36.69 40.625 40.625 0 0 0-.033 0zM191.617 667.906a20.492 20.492 0 0 0-19.428 13.979 17.222 17.222 0 0 0-6.513-1.281 17.222 17.222 0 0 0-17.223 17.222 17.222 17.222 0 0 0 2.192 8.408h30.058a17.222 17.222 0 0 0 .201-.367 20.492 20.492 0 0 0 .623.367h20.176a20.492 20.492 0 0 0 10.406-17.836 20.492 20.492 0 0 0-20.492-20.492z"/></g><path style="fill:none;fill-opacity:1;stroke:url(#k);stroke-width:15;stroke-linecap:butt;stroke-linejoin:miter;stroke-miterlimit:4;stroke-dasharray:none;stroke-opacity:1" d="M1482.469-2126.271v-95.807a22.105 22.105 135 0 1 22.105-22.106h185.637a22.105 22.105 45 0 1 22.105 22.106v90.407"/><path style="fill:none;fill-opacity:1;stroke:url(#l);stroke-width:15;stroke-linecap:butt;stroke-linejoin:miter;stroke-miterlimit:4;stroke-dasharray:none;stroke-opacity:1" d="M1482.469-2126.271v-93.497a22.105 22.105 135 0 1 22.105-22.106h185.637a22.105 22.105 45 0 1 22.105 22.105v88.098"/><g transform="translate(-.689 -1.768)"><rect ry="12.532" rx="12.532" y="-2159.88" x="1666.955" height="142.553" width="93.915" style="display:inline;fill:url(#m);fill-opacity:1;stroke-width:5.62935;enable-background:new;stop-color:#000"/><rect style="display:inline;vector-effect:none;fill:url(#n);fill-opacity:1;stroke:none;stroke-width:9.09913;stroke-linecap:butt;stroke-linejoin:miter;stroke-miterlimit:4;stroke-dasharray:none;stroke-dashoffset:0;stroke-opacity:1;marker:none;marker-start:none;marker-mid:none;marker-end:none;paint-order:normal;enable-background:new" width="60.795" height="38.228" x="1683.515" y="-2035.525" rx="6.032" ry="6.032"/><rect style="display:inline;vector-effect:none;fill:url(#o);fill-opacity:1;stroke:none;stroke-width:9.09913;stroke-linecap:butt;stroke-linejoin:miter;stroke-miterlimit:4;stroke-dasharray:none;stroke-dashoffset:0;stroke-opacity:1;marker:none;marker-start:none;marker-mid:none;marker-end:none;paint-order:normal;enable-background:new" width="60.661" height="13.409" x="1683.515" y="-2009.624" rx="6.705" ry="6.705"/><rect ry="5.308" rx="5.308" y="-2008.227" x="1685.032" height="10.616" width="57.628" style="display:inline;vector-effect:none;fill:url(#p);fill-opacity:1;stroke:none;stroke-width:9.09913;stroke-linecap:butt;stroke-linejoin:miter;stroke-miterlimit:4;stroke-dasharray:none;stroke-dashoffset:0;stroke-opacity:1;marker:none;marker-start:none;marker-mid:none;marker-end:none;paint-order:normal;enable-background:new"/><path style="display:inline;vector-effect:none;fill:#000;fill-opacity:.177165;stroke:none;stroke-width:9.09913;stroke-linecap:butt;stroke-linejoin:miter;stroke-miterlimit:4;stroke-dasharray:none;stroke-dashoffset:0;stroke-opacity:1;marker:none;marker-start:none;marker-mid:none;marker-end:none;paint-order:normal;enable-background:new" d="M1689.545-2035.525a6.016 6.016 0 0 0-6.03 6.03v3.034a6.016 6.016 0 0 1 6.03-6.03h48.734a6.016 6.016 0 0 1 6.03 6.03v-3.033a6.016 6.016 0 0 0-6.03-6.03z"/><rect style="display:inline;fill:#62a0ea;fill-opacity:1;stroke-width:5.25775;enable-background:new;stop-color:#000" width="93.915" height="124.355" x="1666.955" y="-2165.946" rx="13.352" ry="13.352"/></g><circle style="fill:#fff;fill-opacity:1;stroke:none;stroke-width:15;stroke-linejoin:round;stroke-miterlimit:4;stroke-dasharray:none;stop-color:#000" cx="1482.458" cy="-2126.115" r="7.523"/><circle style="fill:#fff;fill-opacity:1;stroke:none;stroke-width:15;stroke-linejoin:round;stroke-miterlimit:4;stroke-dasharray:none;stop-color:#000" cx="1482.458" cy="-2206.49" r="7.523"/><circle style="fill:#fff;fill-opacity:1;stroke:none;stroke-width:15;stroke-linejoin:round;stroke-miterlimit:4;stroke-dasharray:none;stop-color:#000" cx="1495.152" cy="-2241.324" r="7.523"/><circle style="fill:#fff;fill-opacity:1;stroke:none;stroke-width:15;stroke-linejoin:round;stroke-miterlimit:4;stroke-dasharray:none;stop-color:#000" cx="1537.477" cy="-2244.701" r="7.523"/><circle style="fill:#fff;fill-opacity:1;stroke:none;stroke-width:15;stroke-linejoin:round;stroke-miterlimit:4;stroke-dasharray:none;stop-color:#000" cx="1577.523" cy="-2244.701" r="7.523"/><circle style="fill:#fff;fill-opacity:1;stroke:none;stroke-width:15;stroke-linejoin:round;stroke-miterlimit:4;stroke-dasharray:none;stop-color:#000" cx="1617.523" cy="-2244.701" r="7.523"/><circle style="fill:#fff;fill-opacity:1;stroke:none;stroke-width:15;stroke-linejoin:round;stroke-miterlimit:4;stroke-dasharray:none;stop-color:#000" cx="1657.477" cy="-2244.701" r="7.523"/><circle style="fill:#fff;fill-opacity:1;stroke:none;stroke-width:15;stroke-linejoin:round;stroke-miterlimit:4;stroke-dasharray:none;stop-color:#000" cx="1697.523" cy="-2244.701" r="7.523"/><circle style="fill:#fff;fill-opacity:1;stroke:none;stroke-width:15;stroke-linejoin:round;stroke-miterlimit:4;stroke-dasharray:none;stop-color:#000" cx="1712.523" cy="-2217.744" r="7.523"/><circle style="fill:#fff;fill-opacity:1;stroke:none;stroke-width:15;stroke-linejoin:round;stroke-miterlimit:4;stroke-dasharray:none;stop-color:#000" cx="1712.523" cy="-2184.5" r="7.523"/><circle style="fill:#fff;fill-opacity:1;stroke:none;stroke-width:15;stroke-linejoin:round;stroke-miterlimit:4;stroke-dasharray:none;stop-color:#000" cx="1482.458" cy="-2165.714" r="7.523"/><g transform="matrix(.7396 0 0 .7396 404.191 -569.29)"><circle style="fill:#fff;fill-opacity:1;stroke-width:2;-inkscape-stroke:none;stop-color:#000" cx="1607.074" cy="-2285.013" r="49.297"/><path d="M1608.089-2339.798c-30.525 0-55.239 24.26-55.293 54.212h-.01v41.967h.01c.015 6.792 5.632 12.295 12.56 12.295h42.738c30.53-.02 55.239-24.277 55.239-54.213 0-29.952-24.742-54.213-55.293-54.213zm11.23 22.323c9.283 0 18.047 6.971 18.047 16.588 0 .892.01 1.784-.144 2.796-.257 2.558-2.64 4.397-5.236 4.036-2.596-.365-4.357-2.783-3.877-5.312.044-.288.06-.742.06-1.52 0-5.454-4.55-7.56-8.85-7.56s-8.176 3.546-8.18 7.56c.073 4.64 0 9.243 0 13.876l7.98-.059c6.231-.126 6.301 9.077.072 9.034l-8.051.06c-.02 3.731.029 3.056.01 4.936 0 0 .067 4.565-.071 8.024-.963 10.162-9.784 18.283-20.384 18.283-11.237 0-20.492-9.007-20.492-20.054.338-11.361 9.574-20.298 21.21-20.195l6.49-.048v9.018l-6.49.058h-.034c-6.393.185-11.874 4.445-11.976 11.16 0 6.119 5.04 11.021 11.296 11.021 6.247 0 11.247-4.458 11.247-11.01l-.01-34.152c0-.634.024-1.138.095-1.837 1.055-8.354 8.672-14.72 17.295-14.72z" style="fill:#51a2da;stroke-width:.539966"/></g></g></svg>