<?xml version="1.0" encoding="UTF-8" standalone="no"?>
<svg
   height="600"
   width="800"
   version="1.1"
   id="svg46"
   sodipodi:docname="8-download.svg"
   xml:space="preserve"
   inkscape:version="1.3.2 (091e20ef0f, 2023-11-25)"
   xmlns:inkscape="http://www.inkscape.org/namespaces/inkscape"
   xmlns:sodipodi="http://sodipodi.sourceforge.net/DTD/sodipodi-0.dtd"
   xmlns:xlink="http://www.w3.org/1999/xlink"
   xmlns="http://www.w3.org/2000/svg"
   xmlns:svg="http://www.w3.org/2000/svg"><sodipodi:namedview
     id="namedview46"
     pagecolor="#ffffff"
     bordercolor="#000000"
     borderopacity="0.25"
     inkscape:showpageshadow="2"
     inkscape:pageopacity="0.0"
     inkscape:pagecheckerboard="0"
     inkscape:deskcolor="#d1d1d1"
     inkscape:zoom="0.9699148"
     inkscape:cx="405.19023"
     inkscape:cy="136.60994"
     inkscape:window-width="1920"
     inkscape:window-height="1021"
     inkscape:window-x="0"
     inkscape:window-y="0"
     inkscape:window-maximized="1"
     inkscape:current-layer="svg46" /><defs
     id="defs20"><linearGradient
       xlink:href="#a"
       id="f"
       x1="79.665"
       y1="149.906"
       x2="593.983"
       y2="149.906"
       gradientUnits="userSpaceOnUse"
       gradientTransform="matrix(.5686 0 0 .5686 1420.086 -2224.426)" /><linearGradient
       id="a"><stop
         offset="0"
         style="stop-color:#f9f06b;stop-opacity:1"
         id="stop1" /><stop
         offset=".378"
         style="stop-color:#57e389;stop-opacity:1"
         id="stop2" /><stop
         offset="1"
         style="stop-color:#3584e4;stop-opacity:1"
         id="stop3" /></linearGradient><linearGradient
       xlink:href="#b"
       id="i"
       gradientUnits="userSpaceOnUse"
       x1="20"
       y1="238"
       x2="108"
       y2="238" /><linearGradient
       id="b"><stop
         offset="0"
         style="stop-color:#deddda;stop-opacity:1"
         id="stop4" /><stop
         style="stop-color:#eeeeec;stop-opacity:1"
         offset=".045"
         id="stop5" /><stop
         offset=".091"
         style="stop-color:#deddda;stop-opacity:1"
         id="stop6" /><stop
         style="stop-color:#deddda;stop-opacity:1"
         offset=".909"
         id="stop7" /><stop
         offset=".955"
         style="stop-color:#eeeeec;stop-opacity:1"
         id="stop8" /><stop
         offset="1"
         style="stop-color:#c0bfbc;stop-opacity:1"
         id="stop9" /></linearGradient><linearGradient
       xlink:href="#b"
       id="n"
       gradientUnits="userSpaceOnUse"
       gradientTransform="translate(2 -22)"
       x1="50"
       y1="238"
       x2="74"
       y2="238" /><linearGradient
       xlink:href="#c"
       id="o"
       gradientUnits="userSpaceOnUse"
       x1="65"
       y1="204"
       x2="65"
       y2="200" /><linearGradient
       id="c"><stop
         style="stop-color:#9a9996;stop-opacity:1"
         offset="0"
         id="stop10" /><stop
         style="stop-color:#c0bfbc;stop-opacity:1"
         offset="1"
         id="stop11" /></linearGradient><linearGradient
       xlink:href="#b"
       id="j"
       gradientUnits="userSpaceOnUse"
       gradientTransform="translate(2 -22)"
       x1="50"
       y1="238"
       x2="74"
       y2="238" /><linearGradient
       xlink:href="#c"
       id="k"
       gradientUnits="userSpaceOnUse"
       x1="65"
       y1="204"
       x2="65"
       y2="200" /><linearGradient
       xlink:href="#b"
       id="l"
       gradientUnits="userSpaceOnUse"
       gradientTransform="translate(2 -22)"
       x1="50"
       y1="238"
       x2="74"
       y2="238" /><linearGradient
       xlink:href="#c"
       id="m"
       gradientUnits="userSpaceOnUse"
       x1="65"
       y1="204"
       x2="65"
       y2="200" /><linearGradient
       id="d"><stop
         offset="0"
         stop-color="#eae9e7"
         id="stop12" /><stop
         offset=".208"
         stop-color="#cac8c4"
         stop-opacity=".953"
         id="stop13" /><stop
         offset=".745"
         stop-color="#ebeae9"
         stop-opacity=".972"
         id="stop14" /><stop
         offset="1"
         stop-color="#d5d3cf"
         stop-opacity=".925"
         id="stop15" /></linearGradient><linearGradient
       id="e"><stop
         style="stop-color:#1a5fb4;stop-opacity:1"
         offset="0"
         id="stop16" /><stop
         offset=".739"
         style="stop-color:#9a9996;stop-opacity:1"
         id="stop17" /><stop
         style="stop-color:#deddda;stop-opacity:1"
         offset=".896"
         id="stop18" /><stop
         style="stop-color:#9a9996;stop-opacity:1"
         offset="1"
         id="stop19" /></linearGradient><radialGradient
       r="60"
       fy="229.123"
       fx="-81.054"
       cy="229.123"
       cx="-81.054"
       gradientUnits="userSpaceOnUse"
       id="h"
       xlink:href="#e" /><filter
       id="g"
       color-interpolation-filters="sRGB"
       x="0"
       y="0"
       width="1"
       height="1.004918"><feFlood
         flood-opacity=".2"
         flood-color="#000"
         result="flood"
         id="feFlood19" /><feComposite
         in="flood"
         in2="SourceGraphic"
         operator="in"
         result="composite1"
         id="feComposite19" /><feGaussianBlur
         in="composite1"
         result="blur"
         id="feGaussianBlur19" /><feOffset
         dy="3"
         result="offset"
         id="feOffset19" /><feComposite
         in="SourceGraphic"
         in2="offset"
         result="composite2"
         id="feComposite20" /></filter><linearGradient
       id="e-2"
       gradientUnits="userSpaceOnUse"
       x1="11.959304"
       x2="69.959305"
       y1="70.5"
       y2="70.5"
       gradientTransform="matrix(3.9640173,0,0,3.9640173,168.18002,101.06611)"><stop
         offset="0"
         stop-color="#5e5c64"
         id="stop18-9" /><stop
         offset="0.0496858"
         stop-color="#898790"
         id="stop19-1" /><stop
         offset="0.0993507"
         stop-color="#5e5c64"
         id="stop20" /><stop
         offset="0.898941"
         stop-color="#5e5c64"
         id="stop21" /><stop
         offset="0.947088"
         stop-color="#4a484e"
         id="stop22" /><stop
         offset="1"
         stop-color="#5e5c64"
         id="stop23" /></linearGradient><linearGradient
       id="d-2"
       gradientUnits="userSpaceOnUse"
       x1="68.939423"
       x2="106.93942"
       y1="115.56251"
       y2="115.56251"
       gradientTransform="matrix(3.9640173,0,0,3.9640173,168.18002,101.06611)"><stop
         offset="0"
         stop-color="#6a6966"
         id="stop15-7" /><stop
         offset="0.471382"
         stop-color="#a09f9d"
         id="stop16-0" /><stop
         offset="1"
         stop-color="#a2a09e"
         id="stop17-9" /></linearGradient><linearGradient
       id="c-3"
       gradientUnits="userSpaceOnUse"
       x1="82.218414"
       x2="88.582375"
       y1="111.14143"
       y2="128.69684"
       gradientTransform="matrix(3.9640173,0,0,3.9640173,168.18002,101.06611)"><stop
         offset="0"
         stop-color="#f6f5f4"
         id="stop13-6" /><stop
         offset="1"
         stop-color="#cbc6c0"
         id="stop14-0" /></linearGradient><linearGradient
       id="b-6"
       gradientUnits="userSpaceOnUse"
       x1="67.939423"
       x2="108.02781"
       y1="109.06252"
       y2="109.06252"
       gradientTransform="matrix(3.9640173,0,0,3.9640173,168.18002,101.06611)"><stop
         offset="0"
         stop-color="#c0bfbc"
         id="stop7-2" /><stop
         offset="0.028318"
         stop-color="#dedddc"
         id="stop8-6" /><stop
         offset="0.0746196"
         stop-color="#bdbdb9"
         id="stop9-1" /><stop
         offset="0.654803"
         stop-color="#c4c3c0"
         id="stop10-8" /><stop
         offset="0.938916"
         stop-color="#b8b7b3"
         id="stop11-7" /><stop
         offset="1"
         stop-color="#9f9d99"
         id="stop12-9" /></linearGradient><linearGradient
       id="a-2"
       gradientTransform="matrix(3.4897781,0,0,3.9640173,838.00821,-1634.9257)"
       gradientUnits="userSpaceOnUse"
       x1="-126"
       x2="-58"
       y1="497"
       y2="497"><stop
         offset="0"
         stop-color="#ff6918"
         id="stop1-0" /><stop
         offset="0.0501698"
         stop-color="#ffa06d"
         id="stop2-2" /><stop
         offset="0.119985"
         stop-color="#c64600"
         id="stop3-3" /><stop
         offset="0.865315"
         stop-color="#c64600"
         id="stop4-7" /><stop
         offset="0.94231"
         stop-color="#8f3200"
         id="stop5-5" /><stop
         offset="1"
         stop-color="#c64600"
         id="stop6-9" /></linearGradient><clipPath
       id="i-2"><rect
         height="152"
         width="192"
         id="rect9"
         x="0"
         y="0" /></clipPath><mask
       id="h-2"><g
         filter="url(#c)"
         id="g8"
         style="filter:url(#c-8)"><rect
           fill-opacity="0.5"
           height="128"
           width="128"
           id="rect8"
           x="0"
           y="0" /></g></mask><filter
       id="c-8"
       height="1"
       width="1"
       x="0"
       y="0"><feColorMatrix
         in="SourceGraphic"
         type="matrix"
         values="0 0 0 0 1 0 0 0 0 1 0 0 0 0 1 0 0 0 1 0"
         id="feColorMatrix4" /></filter><clipPath
       id="g-9"><rect
         height="152"
         width="192"
         id="rect7"
         x="0"
         y="0" /></clipPath><mask
       id="f-7"><g
         filter="url(#c)"
         id="g6"
         style="filter:url(#c-8)"><rect
           fill-opacity="0.5"
           height="128"
           width="128"
           id="rect6"
           x="0"
           y="0" /></g></mask><filter
       id="filter1"
       height="1"
       width="1"
       x="0"
       y="0"><feColorMatrix
         in="SourceGraphic"
         type="matrix"
         values="0 0 0 0 1 0 0 0 0 1 0 0 0 0 1 0 0 0 1 0"
         id="feColorMatrix1" /></filter><clipPath
       id="e-3"><rect
         height="152"
         width="192"
         id="rect5"
         x="0"
         y="0" /></clipPath><mask
       id="d-6"><g
         filter="url(#c)"
         id="g4"
         style="filter:url(#c-8)"><rect
           fill-opacity="0.5"
           height="128"
           width="128"
           id="rect4"
           x="0"
           y="0" /></g></mask><filter
       id="filter2"
       height="1"
       width="1"
       x="0"
       y="0"><feColorMatrix
         in="SourceGraphic"
         type="matrix"
         values="0 0 0 0 1 0 0 0 0 1 0 0 0 0 1 0 0 0 1 0"
         id="feColorMatrix2" /></filter><linearGradient
       id="b-1"
       gradientTransform="rotate(-90,520.5,288.5)"
       gradientUnits="userSpaceOnUse"
       x1="0.99999899"
       x2="0.99999899"
       y1="215"
       y2="171"><stop
         offset="0"
         stop-color="#2166bb"
         id="stop3-2" /><stop
         offset="1"
         stop-color="#89eda9"
         id="stop4-9" /></linearGradient><linearGradient
       id="a-3"
       gradientUnits="userSpaceOnUse"
       x1="98"
       x2="108"
       y1="112"
       y2="112"
       gradientTransform="translate(389,688)"><stop
         offset="0"
         stop-color="#16529c"
         id="stop1-1" /><stop
         offset="1"
         stop-color="#236ac0"
         id="stop2-9" /></linearGradient></defs><rect
     style="fill:#af1515;fill-opacity:1;stroke-width:5.94743;stroke-linecap:round;paint-order:stroke fill markers;stop-color:#000000"
     id="rect844-8-5-5-4"
     width="107.97731"
     height="171.52771"
     x="392.21198"
     y="215.19038"
     transform="matrix(0.98802428,0.15429845,-0.85036974,0.52618562,0,0)"
     rx="12.69733" /><rect
     style="fill:#d11010;fill-opacity:1;stroke-width:5.18537;stroke-linecap:round;paint-order:stroke fill markers;stop-color:#000000"
     id="rect844-8-5-5-4-3"
     width="94.141846"
     height="149.54933"
     x="392.93204"
     y="215.38689"
     transform="matrix(0.98802428,0.15429845,-0.85036974,0.52618562,0,0)"
     rx="11.070382" /><rect
     style="fill:#e1a100;fill-opacity:1;stroke-width:5.94743;stroke-linecap:round;paint-order:stroke fill markers;stop-color:#000000"
     id="rect844-3-58-04-3-2"
     width="95.979836"
     height="171.52771"
     x="279.03403"
     y="90.247078"
     transform="matrix(0.98802428,0.15429845,-0.85036974,0.52618562,0,0)"
     rx="12.69733" /><rect
     style="fill:#ffb908;fill-opacity:1;stroke-width:5.10077;stroke-linecap:round;paint-order:stroke fill markers;stop-color:#000000"
     id="rect844-3-58-04-3-2-7"
     width="82.316307"
     height="147.10931"
     x="279.42291"
     y="90.58593"
     transform="matrix(0.98802428,0.15429845,-0.85036974,0.52618562,0,0)"
     rx="10.88976" /><rect
     style="fill:#007ed1;fill-opacity:1;stroke-width:5.94743;stroke-linecap:round;paint-order:stroke fill markers;stop-color:#000000"
     id="rect844-3-5-43-8-8-2"
     width="47.989918"
     height="82.190361"
     x="392.63214"
     y="116.82407"
     transform="matrix(0.98802428,0.15429845,-0.85036974,0.52618562,0,0)"
     rx="12.69733"
     inkscape:export-filename="aosc-os.png"
     inkscape:export-xdpi="90.311111"
     inkscape:export-ydpi="90.311111" /><rect
     style="fill:#0099fe;fill-opacity:1;stroke-width:4.81054;stroke-linecap:round;paint-order:stroke fill markers;stop-color:#000000"
     id="rect844-3-5-43-8-8-2-6"
     width="38.816319"
     height="66.479126"
     x="392.8754"
     y="117.36094"
     transform="matrix(0.98802428,0.15429845,-0.85036974,0.52618562,0,0)"
     rx="10.270151"
     inkscape:export-filename="aosc-os.png"
     inkscape:export-xdpi="90.311111"
     inkscape:export-ydpi="90.311111" /><rect
     style="fill:#b4b4b4;fill-opacity:1;stroke-width:5.94743;stroke-linecap:round;paint-order:stroke fill markers;stop-color:#000000"
     id="rect844-3-6-71-7-8-7"
     width="59.987396"
     height="107.20481"
     x="202.88225"
     y="11.424973"
     transform="matrix(0.98802428,0.15429845,-0.85036974,0.52618562,0,0)"
     inkscape:transform-center-x="5.6372972"
     inkscape:transform-center-y="33.13425"
     rx="12.69733"
     inkscape:export-filename="test3"
     inkscape:export-xdpi="90.311111"
     inkscape:export-ydpi="90.311111" /><rect
     style="fill:#c8c8c8;fill-opacity:1;stroke-width:4.96617;stroke-linecap:round;paint-order:stroke fill markers;stop-color:#000000"
     id="rect844-3-6-71-7-8-7-5"
     width="50.090141"
     height="89.517212"
     x="203.12267"
     y="11.879354"
     transform="matrix(0.98802428,0.15429845,-0.85036974,0.52618562,0,0)"
     inkscape:transform-center-x="4.7072134"
     inkscape:transform-center-y="27.667467"
     rx="10.602412"
     inkscape:export-filename="test3"
     inkscape:export-xdpi="90.311111"
     inkscape:export-ydpi="90.311111" /><g
     id="g51"
     transform="translate(89.86226,-13.676235)"><path
       d="m 431.05942,260.88105 h 171.78437 c 18.08583,0 32.7496,14.66373 32.7496,32.74956 v 195.11948 c 0,18.08583 -14.66377,32.7496 -32.7496,32.7496 H 431.05942 c -18.10133,0 -32.7651,-14.66377 -32.7651,-32.7496 V 293.63061 c 0,-18.08583 14.66377,-32.74956 32.7651,-32.74956 z m 0,0"
       fill="url(#a)"
       id="path23"
       style="fill:url(#a-2);stroke-width:3.96402" /><path
       d="m 453.2641,473.93148 h 127.37501 c 8.70225,0 15.76315,7.06091 15.76315,15.76316 v 68.39479 c 0,8.70225 -7.0609,15.76316 -15.76315,15.76316 H 453.2641 c -8.71775,0 -15.77865,-7.06091 -15.77865,-15.76316 v -68.39479 c 0,-8.70225 7.0609,-15.76316 15.77865,-15.76316 z m 0,0"
       fill="url(#b)"
       id="path24"
       style="fill:url(#b-6);stroke-width:3.96402" /><path
       d="m 455.01381,541.62949 h 123.51942 c 9.67779,0 17.51291,7.85057 17.51291,17.52836 0,9.6778 -7.83512,17.52841 -17.51291,17.52841 H 455.01381 c -9.67775,0 -17.52836,-7.85061 -17.52836,-17.52841 0,-9.67779 7.85061,-17.52836 17.52836,-17.52836 z m 0,0"
       fill="url(#c)"
       id="path25"
       style="fill:url(#c-3);stroke-width:3.96402" /><path
       d="m 455.32352,545.28379 h 122.88454 c 7.66478,0 13.87406,6.20928 13.87406,13.87406 0,7.66479 -6.20928,13.87407 -13.87406,13.87407 H 455.32352 c -7.64932,0 -13.87406,-6.20928 -13.87406,-13.87407 0,-7.66478 6.22474,-13.87406 13.87406,-13.87406 z m 0,0"
       fill="url(#d)"
       id="path26"
       style="fill:url(#d-2);stroke-width:3.96402" /><path
       d="m 453.2486,473.93148 c -8.73321,0 -15.76315,7.02995 -15.76315,15.76316 v 7.92803 c 0,-8.73321 7.02994,-15.76315 15.76315,-15.76315 h 127.39051 c 8.73325,0 15.76315,7.02994 15.76315,15.76315 v -7.92803 c 0,-8.73321 -7.0299,-15.76316 -15.76315,-15.76316 z m 0,0"
       fill-opacity="0.176471"
       id="path27"
       style="stroke-width:3.96402" /><path
       d="m 433.19626,269.50588 h 167.51069 c 19.26267,0 34.88644,15.62378 34.88644,34.90191 v 118.76568 c 0,19.27813 -15.62377,34.90194 -34.88644,34.90194 H 433.19626 c -19.27813,0 -34.90194,-15.62381 -34.90194,-34.90194 V 304.40779 c 0,-19.27813 15.62381,-34.90191 34.90194,-34.90191 z m 0,0"
       fill="#ff7800"
       id="path28"
       style="stroke-width:3.96402" /><g
       id="g50"><path
         d="m 516.95159,133.02599 c 65.5302,0 118.6418,53.12711 118.6418,118.65727 v 87.73488 c 0,65.53017 -53.1116,118.65727 -118.6418,118.65727 -65.53017,0 -118.65727,-53.1271 -118.65727,-118.65727 v -87.73488 c 0,-65.53016 53.1271,-118.65727 118.65727,-118.65727 z m 0,0"
         fill="#ff7800"
         id="path29"
         style="stroke-width:3.96402" /><g
         id="g49"
         transform="translate(40)"><path
           d="m 436.09186,164.49038 h 3.28268 c 3.46851,0 6.28669,2.81818 6.28669,6.2867 v 7.24669 c 0,3.46852 -2.81818,6.2867 -6.28669,6.2867 h -3.28268 c -3.46852,0 -6.2867,-2.81818 -6.2867,-6.2867 v -7.24669 c 0,-3.46852 2.81818,-6.2867 6.2867,-6.2867 z m 0,0"
           fill="#5e5c64"
           id="path30"
           style="stroke-width:3.96402" /><path
           d="m 275.05365,109.24189 c -2.91109,0 -5.85315,1.87363 -7.92803,3.96402 l -47.56821,55.49624 c -1.98201,1.78072 -3.96402,4.78469 -3.96402,7.88158 v 23.58281 h 6.84412 c 0.60388,0 1.08392,0.48 1.08392,1.06842 v 13.71923 c 0,0.58841 -0.48004,1.06842 -1.08392,1.06842 h -6.84412 v 167.06164 c 0,10.6688 8.57837,19.24717 19.23167,19.24717 h 191.43417 c 10.6533,0 19.24717,-8.57837 19.24717,-19.24717 V 180.5942 h -0.13954 c -4.31998,0 -7.7885,-3.48401 -7.7885,-7.80416 v -16.11932 c 0,-4.32014 3.46852,-7.78866 7.78866,-7.78866 h 0.13938 v -20.4085 c 0,-10.6533 -8.59387,-19.23167 -19.24717,-19.23167 z m 0,0"
           fill="#c0bfbc"
           id="path31"
           style="stroke-width:3.96402" /><path
           d="m 259.66209,168.4544 h 151.77853 c 5.68278,0 10.28167,4.59889 10.28167,10.26617 v 145.95639 c 0,5.66727 -4.59889,10.26617 -10.28167,10.26617 H 259.66209 c -5.68278,0 -10.28167,-4.5989 -10.28167,-10.26617 V 178.72057 c 0,-5.66728 4.59889,-10.26617 10.28167,-10.26617 z m 0,0"
           fill="#f6f5f4"
           id="path32"
           style="stroke-width:3.96402" /><path
           d="m 334.34358,362.69125 c -41.40539,0 -82.17594,4.13435 -118.75019,12.03142 v 8.36158 c 0,10.6688 8.57837,19.24717 19.23167,19.24717 h 191.43417 c 10.6533,0 19.24717,-8.57837 19.24717,-19.24717 v -10.00296 c -34.59228,-6.84411 -72.54461,-10.39004 -110.99249,-10.39004 z m 0,0"
           fill="url(#e)"
           id="path33"
           style="fill:url(#e-2);stroke-width:3.96402" /><path
           d="m 366.08668,172.66617 h 45.35394 c 5.69828,0 10.28167,4.56789 10.28167,10.26617 v 141.74462 c 0,5.68277 -4.58339,10.26617 -10.28167,10.26617 h -45.35394 z m 0,0"
           fill="#ed333b"
           id="path34"
           style="stroke-width:3.96402" /><path
           d="m 215.59339,370.75866 v 4.39756 c 0,10.66879 8.57837,19.24717 19.23167,19.24717 h 191.43417 c 10.6533,0 19.24717,-8.57838 19.24717,-19.24717 v -6.03894 c -76.92671,-13.5334 -154.78251,-14.19923 -229.91301,1.64138 z m 0,0"
           fill="#9a9996"
           id="path35"
           style="stroke-width:3.96402" /></g></g></g><path
     style="fill:none;fill-opacity:1;stroke:#c0bfbc;stroke-width:16;stroke-linejoin:round;stroke-dasharray:16, 16;stroke-dashoffset:0;stroke-opacity:1;paint-order:stroke fill markers"
     d="m 194.54435,280.98997 v 163.4092 h 293.61223"
     id="path52" /><rect
     style="fill:#c0bfbc;fill-opacity:1;stroke:none;stroke-width:16;stroke-linejoin:round;stroke-dasharray:16, 16;stroke-dashoffset:0;stroke-opacity:1;paint-order:stroke fill markers"
     id="rect52"
     width="9.9557714"
     height="5.7672591"
     x="186.54436"
     y="436.39935" /></svg>
